<?xml version="1.0" standalone="no"?>
<!DOCTYPE svg PUBLIC "-//W3C//DTD SVG 1.1//EN" "http://www.w3.org/Graphics/SVG/1.1/DTD/svg11.dtd" >
<svg>
<metadata>
Created by FontForge 20120731 at Tue Jul 23 04:56:41 2019
 By www
2015 published by Monotype GmbH
</metadata>
<defs>
<font id="RealTextWebW03-Medium" horiz-adv-x="600" >
  <font-face 
    font-family="RealTextWebW03-Medium"
    font-weight="500"
    font-stretch="normal"
    units-per-em="1000"
    panose-1="2 11 6 4 2 1 1 1 1 2"
    ascent="800"
    descent="-200"
    x-height="527"
    cap-height="700"
    bbox="-453 -310 1408 1154"
    underline-thickness="50"
    underline-position="-75"
    unicode-range="U+0020-FEFF"
  />
<missing-glyph 
d="M531 -164h-462v864h462v-864zM186 592v-648h227v648h-227z" />
    <glyph glyph-name="f_f.liga" unicode="ff" horiz-adv-x="655" 
d="M583 615q-33 0 -49.5 -11t-16.5 -45v-37h134v-94h-134v-428h-128v428h-177v-428h-128v428h-72v94h72v47q0 28 11 54.5t33.5 46t57 31.5t81.5 12q30 0 70 -6.5t94 -33.5q21 19 53 29.5t77 10.5q31 0 60.5 -5t52.5 -13v-96q-18 6 -43.5 11t-47.5 5zM389 567q0 16 3 31
q-32 14 -61.5 19t-49.5 5q-34 0 -51.5 -14.5t-17.5 -48.5v-37h177v45z" />
    <glyph glyph-name="f_f_i.liga" unicode="ffi" horiz-adv-x="881" 
d="M813 522v-522h-128v428h-172v-428h-128v428h-173v-428h-128v428h-72v94h72v47q0 28 11 54.5t33.5 46t57 31.5t81.5 12q29 0 69.5 -6.5t94.5 -32.5q23 18 59 28.5t87 10.5q41 0 78.5 -8.5t58.5 -16.5v-96q-31 14 -60 18.5t-55 4.5q-44 0 -65 -11t-21 -45v-37h300zM385 586
q0 5 1 10q-30 14 -58 18.5t-47 4.5q-34 0 -51.5 -13t-17.5 -47v-37h173v64z" />
    <glyph glyph-name="f_f_j.liga" unicode="ffj" horiz-adv-x="881" 
d="M813 522v-541q0 -45 -13.5 -76.5t-35.5 -51.5t-51 -29t-59 -9q-40 0 -67 7v96q9 -1 12 -1h8q22 0 37 4t24 15t13 30.5t4 51.5v410h-172v-428h-128v428h-173v-428h-128v428h-72v94h72v47q0 28 11 54.5t33.5 46t57 31.5t81.5 12q29 0 69.5 -6.5t94.5 -32.5q23 18 59 28.5
t87 10.5q41 0 78.5 -8.5t58.5 -16.5v-96q-31 14 -60 18.5t-55 4.5q-44 0 -65 -11t-21 -45v-37h300zM385 586q0 5 1 10q-30 14 -58 18.5t-47 4.5q-34 0 -51.5 -13t-17.5 -47v-37h173v64z" />
    <glyph glyph-name="f_j.liga" unicode="fj" horiz-adv-x="580" 
d="M276 713q41 0 78.5 -8.5t58.5 -16.5v-96q-31 14 -60 18.5t-55 4.5q-44 0 -65 -11t-21 -45v-37h300v-541q0 -45 -13.5 -76.5t-35.5 -51.5t-51 -29t-59 -9q-40 0 -67 7v96q9 -1 12 -1h8q22 0 37 4t24 15t13 30.5t4 51.5v410h-172v-428h-128v428h-72v94h72v54q0 28 11 53
t34 44t59.5 29.5t87.5 10.5z" />
    <glyph glyph-name="f_f_l.liga" unicode="ffl" horiz-adv-x="899" 
d="M861 97q4 0 12 1v-97q-29 -8 -66 -8q-61 0 -94.5 34.5t-33.5 106.5v468q-16 5 -39.5 9t-51.5 4q-37 0 -56 -11t-19 -45v-37h97v-94h-97v-428h-128v428h-173v-428h-128v428h-72v94h72v47q0 28 11 54.5t33.5 46t57 31.5t81.5 12q29 0 69 -6.5t94 -32.5q22 18 55 28.5
t79 10.5q35 0 64 -5.5t52 -11.5l127 6v-548q0 -17 1 -28t5.5 -17.5t13.5 -9t25 -2.5h9zM385 586q0 5 1 10q-30 14 -58 18.5t-47 4.5q-34 0 -51.5 -13t-17.5 -47v-37h173v64z" />
    <glyph glyph-name="f_l.liga" unicode="fl" horiz-adv-x="598" 
d="M263 713q35 0 64 -5.5t52 -11.5l127 6v-548q0 -17 1 -28t5.5 -17.5t13.5 -9t25 -2.5h9q4 0 12 1v-97q-29 -8 -66 -8q-61 0 -94.5 34.5t-33.5 106.5v468q-16 5 -39.5 9t-51.5 4q-37 0 -56 -11t-19 -45v-37h97v-94h-97v-428h-128v428h-72v94h72v54q0 28 10.5 53t32.5 44
t56 29.5t80 10.5z" />
    <glyph glyph-name="f_i.liga" unicode="fi" horiz-adv-x="580" 
d="M276 713q41 0 78.5 -8.5t58.5 -16.5v-96q-31 14 -60 18.5t-55 4.5q-44 0 -65 -11t-21 -45v-37h300v-522h-128v428h-172v-428h-128v428h-72v94h72v54q0 28 11 53t34 44t59.5 29.5t87.5 10.5z" />
    <glyph glyph-name=".notdef" 
d="M531 -164h-462v864h462v-864zM186 592v-648h227v648h-227z" />
    <glyph glyph-name="glyph1" horiz-adv-x="0" 
 />
    <glyph glyph-name="glyph2" horiz-adv-x="247" 
 />
    <glyph glyph-name="space" unicode=" " horiz-adv-x="247" 
 />
    <glyph glyph-name="exclam" unicode="!" horiz-adv-x="270" 
d="M205 490l-21 -271h-98l-21 271v213h140v-213zM136 152q34 0 58.5 -24.5t24.5 -59.5q0 -34 -24.5 -58t-58.5 -24q-35 0 -59.5 24.5t-24.5 58.5q0 35 24.5 59t59.5 24z" />
    <glyph glyph-name="quotedbl" unicode="&#x22;" horiz-adv-x="448" 
d="M179 402h-114v314h114v-314zM384 402h-114v314h114v-314z" />
    <glyph glyph-name="numbersign" unicode="#" 
d="M471 441l-30 -209h74v-86h-86l-21 -146h-101l21 146h-98l-21 -146h-100l21 146h-74v86h86l30 209h-75v86h88l22 154h100l-22 -154h98l22 154h100l-22 -154h73v-86h-85zM370 441h-98l-30 -209h98z" />
    <glyph glyph-name="dollar" unicode="$" horiz-adv-x="660" 
d="M381 715q83 -9 140.5 -42.5t94.5 -78.5l-94 -72q-9 13 -22.5 26.5t-31.5 25.5t-41 21t-52 13v-195q70 -14 118 -33t77.5 -44.5t42.5 -59t13 -76.5q0 -91 -63.5 -148.5t-181.5 -67.5v-133h-84v134q-78 5 -146 36.5t-116 92.5l87 78q35 -41 77.5 -67.5t103.5 -32.5v215
q-127 25 -182 78t-55 133q0 43 16.5 77.5t46.5 60t72.5 41t95.5 19.5v118h84v-119zM302 610q-49 -5 -75 -27.5t-26 -60.5q0 -17 3.5 -30.5t14 -25t30.5 -21t53 -17.5v182zM375 92q55 5 84 31t29 68q0 16 -3.5 30.5t-15 27t-34 23.5t-60.5 20v-200z" />
    <glyph glyph-name="percent" unicode="%" horiz-adv-x="1023" 
d="M227 716q39 0 74 -14t61 -42.5t41.5 -71.5t15.5 -102q0 -60 -15.5 -103.5t-41.5 -71.5t-61 -41.5t-74 -13.5t-74 13.5t-61.5 41.5t-41.5 71.5t-15 103.5q0 59 15 102t41.5 71.5t61.5 42.5t74 14zM342 -12h-100l433 724h100zM228 635q-47 0 -69 -37.5t-22 -109.5
q0 -151 91 -151q90 0 90 149t-90 149zM796 447q39 0 74 -14t61 -42.5t41.5 -72t15.5 -102.5q0 -60 -15.5 -104t-41.5 -72t-61 -41.5t-74 -13.5t-74 13.5t-61.5 41.5t-41.5 72t-15 104q0 59 15 102.5t41.5 72t61.5 42.5t74 14zM796 364q-91 0 -91 -147q0 -149 91 -149
q90 0 90 148t-90 148z" />
    <glyph glyph-name="ampersand" unicode="&#x26;" horiz-adv-x="713" 
d="M299 -13q-48 0 -96 12.5t-86 39.5t-61.5 68.5t-23.5 100.5q0 66 36.5 112.5t100.5 79.5q-41 42 -63 76t-22 78q0 40 16.5 70.5t45 51t66.5 31t81 10.5q47 0 84.5 -12t63 -32.5t39 -48t13.5 -58.5q0 -26 -6.5 -48.5t-23.5 -44.5t-47 -44t-76 -46l174 -164q6 18 9 39
t4.5 42t1.5 40t-1 33h121q0 -38 -2.5 -69.5t-8.5 -58.5t-16.5 -52t-25.5 -49q29 -24 57.5 -34.5t54.5 -18.5l-38 -104q-48 10 -82 27t-67 47q-48 -39 -100.5 -56.5t-121.5 -17.5zM272 447q51 27 75 50t24 62q0 28 -22.5 46t-57.5 18q-38 0 -60.5 -18.5t-22.5 -49.5
q0 -14 3 -26t10.5 -24t19.5 -26t31 -32zM309 96q47 0 80 10.5t56 27.5l-206 199q-35 -23 -54.5 -51t-19.5 -70q0 -55 37.5 -85.5t106.5 -30.5z" />
    <glyph glyph-name="quotesingle" unicode="'" horiz-adv-x="243" 
d="M179 402h-114v314h114v-314z" />
    <glyph glyph-name="parenleft" unicode="(" horiz-adv-x="303" 
d="M281 780q-25 -61 -44.5 -115.5t-32.5 -110.5t-20 -117t-7 -134q0 -74 7 -134.5t20 -116t32.5 -110t44.5 -115.5h-100q-66 112 -103 233t-37 243t37 243.5t103 233.5h100z" />
    <glyph glyph-name="parenright" unicode=")" horiz-adv-x="303" 
d="M22.0176 780q24.998 -61 44.4971 -115.5t32.498 -110.5t19.999 -117q6.99902 -61 6.99902 -134q0 -74 -6.99902 -134.5q-7 -60.5 -19.999 -116t-32.498 -110t-44.4971 -115.5h99.9932q65.9961 112 102.994 233t36.998 243t-36.998 243.5t-102.994 233.5h-99.9932z" />
    <glyph glyph-name="asterisk" unicode="*" horiz-adv-x="469" 
d="M275 568l133 62l36 -110l-144 -27l105 -104l-96 -69l-73 127l-70 -130l-97 67l102 110l-145 26l36 110l133 -62l-19 148h116z" />
    <glyph glyph-name="plus" unicode="+" 
d="M362 345h147v-106h-147v-155h-124v155h-147v106h147v155h124v-155z" />
    <glyph glyph-name="comma" unicode="," horiz-adv-x="291" 
d="M144 157q38 0 62.5 -25.5t24.5 -63.5q0 -62 -30.5 -124.5t-81.5 -115.5l-67 35q22 35 33 66.5t15 74.5q-21 14 -31.5 30.5t-10.5 41.5q0 33 24.5 57t61.5 24z" />
    <glyph glyph-name="hyphen" unicode="-" horiz-adv-x="369" 
d="M325 251h-280v109h280v-109z" />
    <glyph glyph-name="period" unicode="." horiz-adv-x="291" 
d="M146 157q17 0 32.5 -7t27 -18.5t18.5 -27t7 -33.5q0 -35 -25 -59.5t-60 -24.5q-18 0 -33.5 7t-27 18.5t-18.5 27t-7 32.5q0 18 7 33.5t18.5 27t27 18t33.5 6.5z" />
    <glyph glyph-name="slash" unicode="/" horiz-adv-x="533" 
d="M144 -163h-107l353 938h106z" />
    <glyph glyph-name="zero" unicode="0" horiz-adv-x="627" 
d="M313 595q64 0 116 -21.5t89 -61.5t57 -97t20 -127q0 -71 -20 -126.5t-57 -94.5t-89 -59.5t-116 -20.5t-116 20.5t-89 59.5t-57 94.5t-20 126.5q0 70 20 127t57 97t89 61.5t116 21.5zM313 492q-71 0 -110.5 -54t-39.5 -150q0 -94 39.5 -145.5t110.5 -51.5q70 0 109.5 50
t39.5 147q0 95 -39.5 149.5t-109.5 54.5z" />
    <glyph glyph-name="one" unicode="1" horiz-adv-x="490" 
d="M52 105h162v247h-164v91h23q46 0 76 10t49 28t28.5 42.5t14.5 54.5h101v-473h136v-105h-426v105z" />
    <glyph glyph-name="two" unicode="2" horiz-adv-x="572" 
d="M294 591q52 0 94 -14t71.5 -39t45.5 -59.5t16 -74.5q0 -46 -15 -83.5t-48.5 -72t-86.5 -69t-128 -74.5h284v-105h-476v102q100 60 165 101.5t102.5 74t52 60t14.5 59.5q0 45 -26 68t-68 23q-56 0 -84.5 -33.5t-28.5 -82.5h-129q1 42 17.5 81t47 70t75.5 49.5t105 18.5z
" />
    <glyph glyph-name="three" unicode="3" horiz-adv-x="575" 
d="M290 595q57 0 99.5 -14t71.5 -39.5t43.5 -60t14.5 -74.5q0 -63 -35 -104t-90 -53q28 -4 54 -17t46.5 -35t33 -52.5t12.5 -69.5q0 -52 -19.5 -93.5t-53.5 -70t-80.5 -44t-100.5 -15.5q-100 0 -170.5 51t-92.5 143l119 28q11 -54 46.5 -86t94.5 -32q27 0 50 7.5t40 22.5
t26.5 38t9.5 55q0 57 -32 86.5t-86 29.5h-76v94h63q19 0 39 4.5t36 16.5t26 32.5t10 52.5q0 26 -8.5 44.5t-23 30.5t-33.5 17.5t-40 5.5q-49 0 -82 -25.5t-46 -79.5l-119 21q8 39 29 73t53.5 58.5t75.5 39t95 14.5z" />
    <glyph glyph-name="four" unicode="4" horiz-adv-x="616" 
d="M490 104h101v-104h-101v-130h-126v130h-327v107l290 471h163v-474zM165 104h199v335z" />
    <glyph glyph-name="five" unicode="5" horiz-adv-x="589" 
d="M502 473h-290l-21 -165q33 32 70 43.5t74 11.5q43 0 83 -16.5t70.5 -47t48.5 -74t18 -97.5q0 -61 -18 -111.5t-52 -87t-84 -56.5t-114 -20q-54 0 -96.5 15t-73.5 38.5t-51.5 53.5t-30.5 60l117 34q12 -42 47.5 -69.5t89.5 -27.5q65 0 99 45.5t34 115.5q0 68 -34 103.5
t-93 35.5q-42 0 -72 -17t-53 -49l-111 16l49 371h410z" />
    <glyph glyph-name="six" unicode="6" horiz-adv-x="589" 
d="M309 697q84 0 138.5 -37.5t86.5 -107.5l-116 -36q-13 35 -38 58.5t-70 23.5q-64 0 -101 -60.5t-45 -169.5q33 46 76 66t91 20q45 0 85 -15.5t70 -45t47.5 -72.5t17.5 -98q0 -54 -19 -97.5t-52 -75t-79 -48.5t-100 -17q-56 0 -104 19t-84 58.5t-56.5 101.5t-20.5 148
q0 91 19.5 163t55.5 121t86 75t112 26zM299 352q-56 0 -89 -37t-33 -95q0 -29 9 -53.5t25 -42t38.5 -27.5t48.5 -10q55 0 88.5 36t33.5 99q0 55 -30 92.5t-91 37.5z" />
    <glyph glyph-name="seven" unicode="7" horiz-adv-x="512" 
d="M503 472q-55 -67 -98.5 -133t-76.5 -137.5t-55 -152.5t-32 -179h-137q11 111 37.5 198t64 158.5t84.5 131t98 114.5h-263v-80h-111v186h489v-106z" />
    <glyph glyph-name="eight" unicode="8" horiz-adv-x="605" 
d="M300 697q61 0 105.5 -16t74 -42.5t44 -59.5t14.5 -66q0 -57 -30 -88.5t-75 -50.5q30 -11 55.5 -28t44.5 -39.5t30 -50.5t11 -61q0 -34 -13 -71t-44.5 -68t-84.5 -51t-132 -20q-73 0 -124 19t-83.5 48.5t-47 66.5t-14.5 73q0 61 35 104t91 66q-52 30 -71.5 66.5
t-19.5 85.5q0 33 14 65.5t42.5 59t73 42.5t104.5 16zM301 599q-48 0 -77.5 -24t-29.5 -66q0 -38 26.5 -58.5t82.5 -36.5l34 -10q43 26 58.5 52.5t15.5 52.5q0 17 -7 33t-21 29t-34.5 20.5t-47.5 7.5zM255 324q-39 -20 -65.5 -48t-26.5 -76q0 -47 36.5 -80t101.5 -33
q40 0 67 11t43.5 27.5t24 36.5t7.5 39q0 27 -12 44t-33 28.5t-49 20.5t-60 19z" />
    <glyph glyph-name="nine" unicode="9" horiz-adv-x="594" 
d="M293 595q55 0 103 -17.5t84 -57.5t56.5 -103.5t20.5 -154.5q0 -208 -72 -308.5t-209 -100.5q-89 0 -147 36.5t-90 102.5l109 46q20 -39 49.5 -61t79.5 -22q37 0 65 18.5t46.5 51t29 77t12.5 97.5q-32 -45 -76 -65t-94 -20q-45 0 -85 16.5t-70 47.5t-48 75t-18 99
q0 56 19.5 101t54 76.5t80.5 48.5t100 17zM296 492q-53 0 -89 -35t-36 -103q0 -27 7.5 -51.5t22.5 -43.5t38 -30t54 -11q27 0 49.5 10.5t38.5 29t24.5 43.5t8.5 54q0 69 -33.5 103t-84.5 34z" />
    <glyph glyph-name="colon" unicode=":" horiz-adv-x="291" 
d="M146 517q17 0 32.5 -7t27 -18.5t18.5 -27t7 -33.5q0 -35 -25 -59.5t-60 -24.5q-18 0 -33.5 7t-27 18.5t-18.5 27t-7 32.5q0 18 7 33.5t18.5 27t27 18t33.5 6.5zM146 157q17 0 32.5 -7t27 -18.5t18.5 -27t7 -33.5q0 -35 -25 -59.5t-60 -24.5q-18 0 -33.5 7t-27 18.5
t-18.5 27t-7 32.5q0 18 7 33.5t18.5 27t27 18t33.5 6.5z" />
    <glyph glyph-name="semicolon" unicode=";" horiz-adv-x="291" 
d="M144 157q38 0 62.5 -25.5t24.5 -63.5q0 -62 -30.5 -124.5t-81.5 -115.5l-67 35q22 35 33 66.5t15 74.5q-21 14 -31.5 30.5t-10.5 41.5q0 33 24.5 57t61.5 24zM146 517q17 0 32.5 -7t27 -18.5t18.5 -27t7 -33.5q0 -35 -25 -59.5t-60 -24.5q-18 0 -33.5 7t-27 18.5
t-18.5 27t-7 32.5q0 18 7 33.5t18.5 27t27 18t33.5 6.5z" />
    <glyph glyph-name="less" unicode="&#x3c;" 
d="M493 407l-302 -117l302 -116v-125l-387 170v142l387 171v-125z" />
    <glyph glyph-name="equal" unicode="=" 
d="M509 356h-418v110h418v-110zM509 139h-418v110h418v-110z" />
    <glyph glyph-name="greater" unicode="&#x3e;" 
d="M493 361v-142l-387 -170v125l302 116l-302 117v125z" />
    <glyph glyph-name="question" unicode="?" horiz-adv-x="528" 
d="M269 714q63 0 107 -17.5t72 -45.5t41 -61.5t13 -64.5q0 -46 -14 -76.5t-35 -52t-45 -37t-45 -31t-35 -34.5t-14 -48v-27h-120v45q0 35 12.5 60t31.5 45t41.5 35.5t41.5 32.5t31.5 36t12.5 45q0 45 -26.5 66.5t-71.5 21.5q-27 0 -48 -8t-36.5 -22t-26.5 -32.5t-18 -39.5
l-117 33q8 29 26.5 60t49 57t73.5 43t99 17zM257 152q34 0 58.5 -24.5t24.5 -59.5q0 -34 -24.5 -58t-58.5 -24q-35 0 -59.5 24.5t-24.5 58.5q0 35 24.5 59t59.5 24z" />
    <glyph glyph-name="at" unicode="@" horiz-adv-x="1043" 
d="M550 717q98 0 176.5 -29t133.5 -80t84.5 -121t29.5 -152q0 -51 -12.5 -106t-39.5 -101t-70.5 -76t-105.5 -30q-32 0 -54 8.5t-36 22t-21 30.5t-9 33q-24 -44 -68.5 -68.5t-101.5 -24.5q-42 0 -75.5 15t-57.5 41.5t-37 63.5t-13 82q0 66 20.5 120t55 92.5t80 59.5t95.5 21
q40 0 74.5 -16.5t51.5 -51.5l7 43h98l-52 -316q-6 -35 6.5 -51.5t38.5 -16.5q28 0 50 18.5t37 50.5t23 74t8 89q0 62 -22 115.5t-63 92.5t-99.5 61t-132.5 22q-84 0 -153 -28t-118 -78.5t-76 -120.5t-27 -154q0 -75 23.5 -138.5t66.5 -109.5t103.5 -72t133.5 -26
q59 0 104.5 8t95.5 25l29 -83q-30 -10 -56.5 -17.5t-53.5 -12.5t-56 -7.5t-62 -2.5q-96 0 -176 32t-137.5 89.5t-89.5 137t-32 175.5q0 103 35.5 189t99 148t152 96.5t195.5 34.5zM533 421q-36 0 -62.5 -17.5t-44 -45.5t-25.5 -64t-8 -73q0 -49 21.5 -76t64.5 -27
q25 0 50 11.5t44.5 36t31.5 62.5t12 91q0 54 -22.5 78t-61.5 24z" />
    <glyph glyph-name="A" unicode="A" horiz-adv-x="636" 
d="M454 117h-279l-35 -117h-137l230 700h169l230 -700h-143zM206 225h216l-108 370z" />
    <glyph glyph-name="B" unicode="B" horiz-adv-x="650" 
d="M470 378q78 -15 116.5 -60.5t38.5 -116.5q0 -44 -15.5 -80.5t-48 -63.5t-83.5 -42t-122 -15h-282v700h243q72 0 123.5 -12t84 -35t47.5 -56.5t15 -75.5q0 -60 -31.5 -94.5t-85.5 -48.5zM206 591v-174h139q45 0 75.5 20.5t30.5 68.5t-31.5 66.5t-92.5 18.5h-121zM361 109
q55 0 90 24.5t35 76.5q0 34 -11.5 55t-29.5 33t-41 16t-45 4h-153v-209h155z" />
    <glyph glyph-name="C" unicode="C" horiz-adv-x="724" 
d="M375 717q44 0 88.5 -10t84 -33.5t72 -62t53.5 -95.5l-130 -36q-23 60 -63 91.5t-105 31.5q-91 0 -142.5 -66t-51.5 -185q0 -118 48.5 -186.5t146.5 -68.5q74 0 117.5 36t66.5 103l126 -41q-20 -54 -51.5 -93.5t-72.5 -66t-89.5 -39.5t-100.5 -13q-57 0 -115.5 19
t-106 62.5t-77 114t-29.5 172.5q0 98 28 167.5t74.5 113.5t106 64.5t122.5 20.5z" />
    <glyph glyph-name="D" unicode="D" horiz-adv-x="700" 
d="M295 700q73 0 138.5 -19t115 -60.5t78.5 -106t29 -154.5q0 -104 -30 -173t-77.5 -110.5t-107 -59t-117.5 -17.5h-250v700h221zM206 587v-474h117q34 0 69 10t63 37t45.5 75t17.5 124q0 50 -12 92t-38.5 72t-68 47t-100.5 17h-93z" />
    <glyph glyph-name="E" unicode="E" horiz-adv-x="583" 
d="M529 588h-322v-176h301v-110h-301v-190h331v-112h-464v700h455v-112z" />
    <glyph glyph-name="F" unicode="F" horiz-adv-x="551" 
d="M517 588h-310v-193h287v-110h-287v-285h-133v700h443v-112z" />
    <glyph glyph-name="G" unicode="G" horiz-adv-x="737" 
d="M375 717q46 0 90 -10.5t82.5 -33t70 -58t52.5 -85.5l-120 -44q-23 57 -65.5 88t-110.5 31q-96 0 -144.5 -68.5t-48.5 -188.5q0 -118 47.5 -185.5t146.5 -67.5q37 0 69 10t55 29t36 47t13 64v31h-160v104h292v-380h-124v65q-72 -82 -198 -82q-56 0 -112 19t-101 62
t-73 112.5t-28 170.5q0 98 28 168t74 115t105.5 66t123.5 21z" />
    <glyph glyph-name="H" unicode="H" horiz-adv-x="714" 
d="M640 0h-132v307h-301v-307h-133v700h133v-281h301v281h132v-700z" />
    <glyph glyph-name="I" unicode="I" horiz-adv-x="386" 
d="M350 591h-91v-482h91v-109h-315v109h91v482h-91v109h315v-109z" />
    <glyph glyph-name="J" unicode="J" horiz-adv-x="402" 
d="M337 215q0 -50 -10.5 -90.5t-35 -69.5t-66 -45t-103.5 -16q-28 0 -51.5 1.5t-49.5 4.5v113q14 -1 27.5 -1.5t27.5 -0.5q38 0 63 5.5t39.5 19t20 35.5t5.5 55v474h133v-485z" />
    <glyph glyph-name="K" unicode="K" horiz-adv-x="671" 
d="M302 319l-95 -109v-210h-133v700h133v-323l274 323h158l-247 -286l277 -414h-157z" />
    <glyph glyph-name="L" unicode="L" horiz-adv-x="535" 
d="M207 116h307v-116h-440v700h133v-584z" />
    <glyph glyph-name="M" unicode="M" horiz-adv-x="848" 
d="M800 0h-128l-37 574l-139 -574h-146l-139 574l-36 -574h-127l51 700h203l123 -546l122 546h203z" />
    <glyph glyph-name="N" unicode="N" horiz-adv-x="708" 
d="M634 0h-150l-288 488v-488h-122v700h147l290 -501v501h123v-700z" />
    <glyph glyph-name="O" unicode="O" horiz-adv-x="765" 
d="M382 717q58 0 118.5 -18.5t109.5 -61.5t80 -113.5t31 -174.5q0 -97 -29 -166.5t-76.5 -113.5t-108.5 -65t-125 -21q-58 0 -118 19t-109 62t-80 113.5t-31 173.5q0 98 29 167.5t76.5 113.5t108 64.5t124.5 20.5zM382 604q-45 0 -82.5 -17t-63.5 -49.5t-40.5 -79.5
t-14.5 -106q0 -118 51 -187t150 -69q44 0 81 17t63.5 49t41.5 79t15 107q0 58 -13 105.5t-38 81t-63 51.5t-87 18z" />
    <glyph glyph-name="P" unicode="P" horiz-adv-x="632" 
d="M333 700q71 0 121.5 -18t83 -49.5t48 -73t15.5 -87.5q0 -52 -16.5 -95t-49.5 -73.5t-83 -47t-117 -16.5h-128v-240h-133v700h259zM342 350q25 0 47 6t38.5 20t26.5 38t10 59q0 52 -31 83.5t-88 31.5h-138v-238h135z" />
    <glyph glyph-name="Q" unicode="Q" horiz-adv-x="768" 
d="M382 717q58 0 118.5 -18.5t109.5 -61.5t80 -113.5t31 -174.5q0 -99 -33 -171t-93 -120q29 -22 62.5 -34.5t83.5 -20.5l-48 -127q-67 20 -114 53t-80 76q-29 -11 -57 -16.5t-60 -5.5q-58 0 -118 19t-109 62t-80 113.5t-31 173.5q0 98 29 167.5t76.5 113.5t108 64.5
t124.5 20.5zM382 603q-45 0 -82.5 -17t-63.5 -49.5t-40.5 -79t-14.5 -105.5q0 -118 50.5 -186.5t150.5 -68.5q44 0 81 16.5t63.5 49t41.5 79t15 106.5q0 58 -13 105t-38 80.5t-63 51.5t-87 18z" />
    <glyph glyph-name="R" unicode="R" horiz-adv-x="644" 
d="M331 700q70 0 120.5 -17t83 -46t47.5 -67.5t15 -81.5q0 -71 -36.5 -120.5t-110.5 -74.5l184 -293h-155l-161 273h-111v-273h-133v700h257zM207 589v-210h131q25 0 47 5t38.5 17.5t26 33t9.5 52.5q0 51 -31 76.5t-87 25.5h-134z" />
    <glyph glyph-name="S" unicode="S" horiz-adv-x="650" 
d="M325 -17q-89 0 -169.5 31.5t-135.5 99.5l89 80q42 -45 93 -71.5t126 -26.5q64 0 106.5 25t42.5 71q0 22 -6.5 39.5t-26.5 31t-56.5 24.5t-95.5 21q-120 20 -178.5 69t-58.5 138q0 46 19 83.5t54 63.5t83.5 40.5t107.5 14.5q103 0 173.5 -36.5t112.5 -88.5l-94 -74
q-12 15 -28.5 30t-39.5 28t-53 21t-70 8q-61 0 -95.5 -22.5t-34.5 -64.5q0 -19 6.5 -33.5t26 -26.5t54.5 -22t91 -20q129 -22 188 -73t59 -143q0 -49 -19.5 -89t-56.5 -68.5t-91 -44t-123 -15.5z" />
    <glyph glyph-name="T" unicode="T" horiz-adv-x="576" 
d="M554 587h-200v-587h-133v587h-200v113h533v-113z" />
    <glyph glyph-name="U" unicode="U" horiz-adv-x="685" 
d="M620 253q0 -52 -14.5 -101t-47.5 -86.5t-86.5 -60t-130.5 -22.5q-79 0 -132 23t-85.5 60.5t-46 86.5t-13.5 100v447h133v-445q0 -85 35.5 -122t109.5 -37t109.5 39t35.5 120v445h133v-447z" />
    <glyph glyph-name="V" unicode="V" horiz-adv-x="597" 
d="M383 0h-169l-211 700h143l155 -589l155 589h137z" />
    <glyph glyph-name="W" unicode="W" horiz-adv-x="852" 
d="M695 0h-153l-110 543l-103 -543h-158l-163 700h140l106 -567l107 567h143l113 -563l92 563h133z" />
    <glyph glyph-name="X" unicode="X" horiz-adv-x="643" 
d="M638 0h-159l-163 282l-158 -282h-155l231 374l-203 326h153l133 -231l129 231h149l-198 -318l-1 -1z" />
    <glyph glyph-name="Y" unicode="Y" horiz-adv-x="614" 
d="M372 279v-279h-132v277l-241 423h150l159 -309l159 309h146z" />
    <glyph glyph-name="Z" unicode="Z" horiz-adv-x="603" 
d="M561 593l-369 -480h378v-113h-546v103l373 487h-347v110h511v-107z" />
    <glyph glyph-name="bracketleft" unicode="[" horiz-adv-x="314" 
d="M281 688h-108v-757h108v-104h-236v963h236v-102z" />
    <glyph glyph-name="backslash" unicode="\" horiz-adv-x="533" 
d="M496 -163h-107l-352 938h106z" />
    <glyph glyph-name="bracketright" unicode="]" horiz-adv-x="314" 
d="M33.0176 688h107.993v-757h-107.993v-104h235.985v963h-235.985v-102z" />
    <glyph glyph-name="asciicircum" unicode="^" horiz-adv-x="616" 
d="M557 333h-133l-119 273l-119 -273h-127l184 384h129z" />
    <glyph glyph-name="underscore" unicode="_" horiz-adv-x="571" 
d="M574 -169h-577v110h577v-110z" />
    <glyph glyph-name="grave" unicode="`" horiz-adv-x="317" 
d="M282 593h-102l-152 146h160z" />
    <glyph glyph-name="a" unicode="a" horiz-adv-x="559" 
d="M280 540q59 0 100 -11t67 -32.5t37.5 -52.5t11.5 -70v-259q0 -31 3.5 -59t14.5 -56h-129q-10 25 -15 55q-30 -38 -72.5 -53t-84.5 -15t-75.5 12t-56 34t-34.5 51t-12 64q0 73 49.5 118.5t165.5 59.5l118 15v24q0 46 -18.5 64t-72.5 18q-50 0 -72 -17t-23 -59h-126
q2 86 62.5 127.5t161.5 41.5zM283 243q-63 -8 -90 -27t-27 -57q0 -30 18.5 -49.5t60.5 -19.5q25 0 47 8t39 22t27 34t10 44v57z" />
    <glyph glyph-name="b" unicode="b" horiz-adv-x="616" 
d="M195 472q30 38 69 53t79 15q53 0 96 -20t74 -56.5t47.5 -87.5t16.5 -113q0 -59 -17 -109t-47.5 -87.5t-73 -58.5t-93.5 -21q-54 0 -91.5 18t-62.5 51v-56h-125v700h128v-228zM314 436q-57 0 -91.5 -43t-34.5 -131q0 -44 10 -76t27 -53t40 -31.5t50 -10.5q58 0 93 45
t35 126q0 85 -33 129.5t-96 44.5z" />
    <glyph glyph-name="c" unicode="c" horiz-adv-x="566" 
d="M301 540q87 0 146 -38t88 -103l-111 -45q-16 39 -45 60.5t-71 21.5q-61 0 -98 -43t-37 -128t36 -129.5t99 -44.5q27 0 47 7.5t34.5 21t24.5 30.5t18 37l111 -46q-30 -68 -90 -111t-151 -43q-62 0 -111 21t-83 57.5t-51.5 87t-17.5 110.5t18.5 111t52.5 88t82.5 57.5
t108.5 20.5z" />
    <glyph glyph-name="d" unicode="d" horiz-adv-x="616" 
d="M549 0h-126v59q-29 -39 -70.5 -55.5t-82.5 -16.5q-53 0 -95.5 20.5t-72.5 57t-46.5 87t-16.5 111.5t17.5 112t48.5 87.5t74.5 57t94.5 20.5q50 0 85.5 -16.5t61.5 -46.5v223h128v-700zM301 436q-61 0 -95 -45t-34 -127q0 -85 33 -129t96 -44q57 0 91.5 42.5t34.5 130.5
q0 86 -36.5 129t-89.5 43z" />
    <glyph glyph-name="e" unicode="e" horiz-adv-x="579" 
d="M294 540q59 0 105.5 -21t78.5 -58t48.5 -89t16.5 -113v-26h-372q3 -72 38.5 -107.5t98.5 -35.5q48 0 78.5 20.5t48.5 52.5l104 -53q-37 -59 -96 -91t-141 -32q-63 0 -111.5 21t-82.5 58t-51.5 87.5t-17.5 109.5q0 60 16.5 111t49 88t80 57.5t109.5 20.5zM293 443
q-52 0 -84.5 -31t-37.5 -92h240q-5 63 -35.5 93t-82.5 30z" />
    <glyph glyph-name="f" unicode="f" horiz-adv-x="350" 
d="M256 713q31 0 60.5 -5t52.5 -13v-96q-18 6 -43.5 11t-47.5 5q-33 0 -49.5 -11t-16.5 -45v-37h134v-94h-134v-428h-128v428h-72v94h72v45q0 31 9.5 57.5t30.5 46t53.5 31t78.5 11.5z" />
    <glyph glyph-name="g" unicode="g" horiz-adv-x="571" 
d="M553 462q-27 0 -43.5 -1.5t-32.5 -8.5q26 -38 26 -89q0 -37 -15 -68t-43.5 -53.5t-70.5 -35t-96 -12.5t-102 17q-15 -17 -15 -33q0 -22 14.5 -32.5t52.5 -10.5h97q57 0 98 -12t67.5 -33t38.5 -49.5t12 -60.5q0 -75 -66.5 -120t-194.5 -45q-70 0 -117.5 11t-77 30
t-42.5 44.5t-13 54.5q0 35 19.5 61t55.5 44q-26 17 -38 39t-12 50q0 25 14.5 48.5t43.5 43.5q-31 21 -49 52.5t-18 71.5q0 36 14 67.5t42.5 55.5t70.5 38t99 14q43 0 77.5 -8t60.5 -22q23 29 58.5 44.5t84.5 15.5v-108zM276 451q-51 0 -77 -22.5t-26 -61.5q0 -37 25.5 -59.5
t76.5 -22.5t77.5 22t26.5 60q0 39 -26 61.5t-77 22.5zM181 34q-23 -15 -31 -29t-8 -31q0 -31 29 -49t107 -18q70 0 102.5 18t32.5 48q0 32 -25.5 46.5t-92.5 14.5h-114z" />
    <glyph glyph-name="h" unicode="h" horiz-adv-x="593" 
d="M195 463q30 39 69 58t86 19q87 0 133 -53t46 -148v-339h-128v306q0 57 -18 91.5t-71 34.5q-26 0 -47 -10t-37 -28.5t-24.5 -44t-8.5 -56.5v-293h-128v700h128v-237z" />
    <glyph glyph-name="i" unicode="i" horiz-adv-x="263" 
d="M195 0h-128v527h128v-527zM131 736q32 0 55.5 -22t23.5 -54q0 -15 -6.5 -29t-17 -24t-25 -16t-30.5 -6q-31 0 -54.5 22t-23.5 53q0 16 6.5 30t17 24t25 16t29.5 6z" />
    <glyph glyph-name="j" unicode="j" horiz-adv-x="263" 
d="M195 -19q0 -45 -13.5 -76.5t-35.5 -51.5t-50.5 -29t-58.5 -9q-41 0 -68 7v96q9 -1 13 -1h8q22 0 37 4t24 15t12.5 30.5t3.5 51.5v509h128v-546zM131 736q32 0 55.5 -22t23.5 -54q0 -15 -6.5 -29t-17 -24t-25 -16t-30.5 -6q-31 0 -54.5 22t-23.5 53q0 16 6.5 30t17 24
t25 16t29.5 6z" />
    <glyph glyph-name="k" unicode="k" horiz-adv-x="574" 
d="M195 312l215 215h153l-206 -201l212 -326h-149l-150 240l-75 -73v-167h-128v700h128v-388z" />
    <glyph glyph-name="l" unicode="l" horiz-adv-x="283" 
d="M191 154q0 -17 1 -28t5.5 -17.5t13.5 -9t25 -2.5h9q4 0 13 1v-97q-29 -8 -67 -8q-61 0 -94.5 34.5t-33.5 106.5v566h128v-546z" />
    <glyph glyph-name="m" unicode="m" horiz-adv-x="886" 
d="M652 540q86 0 128.5 -52.5t42.5 -149.5v-338h-128v284q0 75 -15 111.5t-66 36.5q-47 0 -76 -37.5t-29 -98.5v-296h-128v284q0 37 -3 65t-11.5 46.5t-24.5 27.5t-42 9q-46 0 -75.5 -37.5t-29.5 -98.5v-296h-128v527h125v-60q29 38 65 55.5t81 17.5q54 0 91 -22t56 -64
q30 47 74 66.5t93 19.5z" />
    <glyph glyph-name="n" unicode="n" horiz-adv-x="593" 
d="M351 540q87 0 132.5 -52.5t45.5 -148.5v-339h-128v299q0 62 -18 97.5t-71 35.5q-26 0 -47 -10t-37 -28.5t-24.5 -44t-8.5 -56.5v-293h-128v527h125v-68q30 43 70.5 62t88.5 19z" />
    <glyph glyph-name="o" unicode="o" horiz-adv-x="614" 
d="M307 540q61 0 111 -21.5t84.5 -58.5t53.5 -88t19 -109q0 -61 -18.5 -112t-53 -87.5t-84 -56.5t-112.5 -20t-113 21t-84.5 57.5t-52.5 87t-18 110.5t18.5 111t53 88t84.5 57.5t112 20.5zM307 436q-61 0 -97.5 -43t-36.5 -128t35.5 -129.5t98.5 -44.5t98.5 44.5t35.5 129.5
t-36.5 128t-97.5 43z" />
    <glyph glyph-name="p" unicode="p" horiz-adv-x="615" 
d="M343 540q52 0 95 -20.5t73.5 -56.5t47 -86.5t16.5 -110.5t-16.5 -111t-46.5 -88.5t-73 -58.5t-97 -21q-48 0 -85.5 17t-62.5 49v-218h-127v692h125v-56q30 38 69.5 53.5t81.5 15.5zM314 436q-57 0 -91.5 -42.5t-34.5 -128.5q0 -45 9.5 -78t26.5 -54t40 -31.5t50 -10.5
q57 0 92.5 45t35.5 130q0 79 -32.5 124.5t-95.5 45.5z" />
    <glyph glyph-name="q" unicode="q" horiz-adv-x="616" 
d="M273 540q52 0 89 -17.5t61 -49.5v54h126v-692h-128v220q-29 -38 -69.5 -53t-79.5 -15q-53 0 -96 20.5t-73.5 57t-47 87t-16.5 111.5t17 112t47.5 87.5t73.5 57t96 20.5zM301 436q-61 0 -95 -44.5t-34 -127.5q0 -85 33 -129t96 -44q57 0 91.5 43t34.5 131q0 43 -9.5 75
t-26.5 53.5t-40 32t-50 10.5z" />
    <glyph glyph-name="r" unicode="r" horiz-adv-x="391" 
d="M335 540q8 0 19 -0.5t19 -1.5v-127q-14 1 -20 1h-11q-31 0 -58 -8t-46.5 -29t-31 -56.5t-11.5 -89.5v-229h-128v527h125v-86q27 52 64.5 75.5t78.5 23.5z" />
    <glyph glyph-name="s" unicode="s" horiz-adv-x="528" 
d="M268 540q74 0 128 -22.5t91 -57.5l-69 -74q-32 27 -68.5 41.5t-78.5 14.5q-47 0 -69.5 -15t-22.5 -40q0 -14 5.5 -23.5t19.5 -17t39 -13.5t64 -13q48 -8 84 -21t60 -33t36 -47.5t12 -65.5q0 -73 -60.5 -119.5t-174.5 -46.5q-84 0 -144.5 24.5t-102.5 66.5l72 78
q35 -35 77 -52t90 -17q57 0 83.5 16.5t26.5 43.5q0 14 -4.5 24.5t-19 19.5t-41 16t-70.5 15q-94 16 -138.5 54t-44.5 104q0 38 16.5 67.5t46 50t69.5 31.5t88 11z" />
    <glyph glyph-name="t" unicode="t" horiz-adv-x="376" 
d="M215 522h131v-94h-131v-271q0 -33 13.5 -49t49.5 -16q22 0 42 3.5t37 8.5v-100q-23 -8 -50.5 -12.5t-59.5 -4.5q-45 0 -75.5 11t-49 30.5t-27 47.5t-8.5 62v290h-72v94h72v138h128v-138z" />
    <glyph glyph-name="u" unicode="u" horiz-adv-x="587" 
d="M518 0h-125v61q-29 -37 -69 -55.5t-85 -18.5q-79 0 -128 45t-49 138v357h128v-328q0 -55 20 -78.5t65 -23.5q51 0 83 34.5t32 94.5v301h128v-527z" />
    <glyph glyph-name="v" unicode="v" horiz-adv-x="515" 
d="M334 0h-155l-176 527h141l114 -414l117 414h135z" />
    <glyph glyph-name="w" unicode="w" horiz-adv-x="782" 
d="M628 0h-149l-87 388l-93 -388h-148l-143 527h139l82 -398l90 398h142l94 -398l86 398h131z" />
    <glyph glyph-name="x" unicode="x" horiz-adv-x="528" 
d="M343 288l183 -288h-151l-114 202l-112 -202h-148l181 283l-159 244h152l90 -159l91 159h145z" />
    <glyph glyph-name="y" unicode="y" horiz-adv-x="514" 
d="M341 -25q-11 -36 -26 -65.5t-37.5 -50.5t-55 -32.5t-79.5 -11.5q-20 0 -37.5 2t-31.5 5v93q17 -2 25 -2h20q28 0 46 4.5t29.5 14.5t18 26.5t12.5 41.5h-46l-176 527h142l119 -434l109 434h137z" />
    <glyph glyph-name="z" unicode="z" horiz-adv-x="478" 
d="M443 428l-266 -321h273v-107h-431v97l270 326h-243v104h397v-99z" />
    <glyph glyph-name="braceleft" unicode="{" horiz-adv-x="319" 
d="M301 689h-15q-22 0 -35 -5.5t-20 -15t-9 -23t-2 -28.5v-194q0 -29 -9.5 -50t-23.5 -34.5t-29.5 -20.5t-26.5 -9q11 -3 26 -9q16 -7 30 -21t23.5 -35t9.5 -50v-192q0 -15 2 -28.5t9 -23t20 -15t35 -5.5h15v-101h-47q-79 0 -121 42t-42 106v199q0 25 -3.5 41.5t-10.5 27
t-18 16.5t-27 9v78q16 3 27 9t18 16.5t10.5 26.5t3.5 41v201q0 64 42 106t121 42h47v-101z" />
    <glyph glyph-name="bar" unicode="|" horiz-adv-x="310" 
d="M203 -164h-97v938h97v-938z" />
    <glyph glyph-name="braceright" unicode="}" horiz-adv-x="319" 
d="M18.0186 689h14.999q21.998 0 34.998 -5.5q12.999 -5.5 19.998 -15q7 -9.5 9 -23t2 -28.5v-194q0 -29 9.49902 -50q9.5 -21 23.499 -34.5t29.498 -20.5t26.498 -9q-10.999 -3 -25.998 -9q-15.999 -7 -29.998 -21t-23.499 -35q-9.49902 -21 -9.49902 -50v-192
q0 -15 -2 -28.5t-9 -23q-6.99902 -9.5 -19.998 -15q-13 -5.5 -34.998 -5.5h-14.999v-101h46.9971q78.9951 0 120.992 42q41.998 42 41.998 106v199q0 25 3.49902 41.5q3.5 16.5 10.5 27q6.99902 10.5 17.999 16.5q10.999 6 26.998 9v78q-15.999 3 -26.998 9
q-11 6 -17.999 16.5q-7 10.5 -10.5 26.5q-3.49902 16 -3.49902 41v201q0 64 -41.998 106q-41.9971 42 -120.992 42h-46.9971v-101z" />
    <glyph glyph-name="asciitilde" unicode="~" 
d="M215 394q33 0 58.5 -9t46 -20.5t37.5 -20.5t34 -9q28 0 47 16.5t32 38.5l68 -59q-9 -17 -23 -35t-32.5 -32.5t-43 -23.5t-54.5 -9q-32 0 -57.5 9t-46 20t-38 20t-34.5 9q-28 0 -47 -16.5t-32 -38.5l-68 59q9 18 22.5 36t32.5 32.5t43 23.5t55 9z" />
    <glyph glyph-name="uni00A0" unicode="&#xa0;" horiz-adv-x="247" 
 />
    <glyph glyph-name="exclamdown" unicode="&#xa1;" horiz-adv-x="270" 
d="M135 539q33 0 57.5 -24t24.5 -58q0 -17 -6.5 -31.5t-18 -26t-26.5 -18t-31 -6.5q-34 0 -58.5 24t-24.5 58q0 16 6.5 31t18 26.5t26.5 18t32 6.5zM205 49v-213h-140v213l21 249h98z" />
    <glyph glyph-name="cent" unicode="&#xa2;" 
d="M545 140q-26 -63 -76.5 -103t-124.5 -48v-138h-77v138q-51 7 -91 30t-67 59t-41 83t-14 102t14 102.5t41.5 83.5t67 58.5t90.5 29.5v131h77v-130q69 -8 119 -44t75 -94l-98 -40q-15 36 -38 58t-65 27v-363q46 7 70.5 33t37.5 61zM173 265q0 -86 26 -129.5t76 -52.5v361
q-51 -10 -76.5 -52.5t-25.5 -126.5z" />
    <glyph glyph-name="sterling" unicode="&#xa3;" horiz-adv-x="660" 
d="M374 717q86 0 139.5 -42t75.5 -106l-118 -36q-11 42 -33.5 62.5t-64.5 20.5t-69.5 -26.5t-27.5 -76.5v-140h202v-72h-202v-72q0 -42 -8.5 -70t-38.5 -51h332v-108h-459l-15 97q20 8 33 19t20.5 26t10 35.5t2.5 49.5v74h-83v72h83v149q0 38 13.5 73.5t41 62.5t69 43
t97.5 16z" />
    <glyph glyph-name="currency" unicode="&#xa4;" horiz-adv-x="631" 
d="M191 477q26 14 57.5 23t66.5 9t67.5 -8.5t58.5 -23.5l100 100l72 -71l-99 -99q16 -26 25 -57.5t9 -67.5q0 -37 -9 -68.5t-26 -57.5l100 -99l-72 -71l-101 100q-26 -14 -57.5 -22.5t-66.5 -8.5t-67 8.5t-58 22.5l-102 -101l-71 71l101 101q-17 26 -26 57t-9 68q0 36 9 67
t25 57l-100 101l71 71zM315 412q-55 0 -85 -34.5t-30 -95.5t30.5 -95.5t85.5 -34.5t85 34.5t30 95.5t-30.5 95.5t-85.5 34.5z" />
    <glyph glyph-name="yen" unicode="&#xa5;" horiz-adv-x="660" 
d="M428 346h125v-72h-157v-58h157v-72h-157v-144h-132v144h-157v72h157v58h-157v72h124l-208 354h151l158 -305l158 305h147z" />
    <glyph glyph-name="brokenbar" unicode="&#xa6;" horiz-adv-x="310" 
d="M203 405h-97v369h97v-369zM203 -164h-97v369h97v-369z" />
    <glyph glyph-name="section" unicode="&#xa7;" 
d="M303 714q72 0 124.5 -21.5t90.5 -57.5l-71 -73q-28 26 -63.5 40t-77.5 14q-45 0 -68 -14.5t-23 -39.5q0 -14 5.5 -24t19.5 -18.5t38.5 -15t62.5 -13.5q96 -17 147 -55t51 -111q0 -41 -21.5 -71.5t-63.5 -61.5q58 -41 58 -111q0 -39 -16.5 -68.5t-46 -50t-69.5 -31
t-87 -10.5q-75 0 -128 23.5t-92 60.5l72 70q29 -26 65.5 -41t80.5 -15q45 0 69 14.5t24 40.5q0 14 -5.5 24t-19 18.5t-37.5 15t-60 12.5q-98 17 -149.5 56t-51.5 112q0 42 21 72t63 62q-58 39 -58 110q0 38 16 67.5t45 49.5t68.5 30.5t86.5 10.5zM225 410q-23 -27 -31 -44.5
t-8 -40.5q0 -15 5.5 -28t20.5 -24t41.5 -20t68.5 -17l52 -10q23 28 31.5 45.5t8.5 41.5q0 15 -5.5 28t-20 23.5t-40 19.5t-65.5 16q-14 2 -28.5 5t-29.5 5z" />
    <glyph glyph-name="dieresis" unicode="&#xa8;" horiz-adv-x="439" 
d="M106 739q29 0 51.5 -21.5t22.5 -50.5q0 -30 -22.5 -51.5t-51.5 -21.5t-51.5 21.5t-22.5 51.5q0 29 22.5 50.5t51.5 21.5zM333 739q29 0 51.5 -21.5t22.5 -50.5q0 -30 -22.5 -51.5t-51.5 -21.5t-51.5 21.5t-22.5 51.5q0 29 22.5 50.5t51.5 21.5z" />
    <glyph glyph-name="copyright" unicode="&#xa9;" horiz-adv-x="900" 
d="M451 717q78 0 145.5 -28.5t117 -78t77.5 -117t28 -144.5t-28 -144t-77.5 -116.5t-117 -77.5t-145.5 -28t-146 28t-118 77.5t-78.5 116.5t-28.5 144t28.5 144.5t78.5 117t118 78t146 28.5zM451 651q-65 0 -119.5 -24t-94 -65.5t-62 -96.5t-22.5 -116q0 -62 22.5 -116.5
t62 -95t94 -64.5t119.5 -24t119.5 24t93.5 64.5t61 95t22 116.5q0 61 -22 116t-61 96.5t-93.5 65.5t-119.5 24zM449 570q38 0 67 -9t50.5 -25.5t36.5 -39t26 -48.5l-81 -23q-11 32 -33.5 53t-65.5 21q-50 0 -79.5 -37.5t-29.5 -110.5q0 -66 28 -107.5t83 -41.5
q42 0 66.5 19.5t38.5 61.5l80 -25q-11 -26 -26.5 -49t-38 -40.5t-52.5 -27.5t-69 -10q-46 0 -82.5 16.5t-62 45.5t-39 69.5t-13.5 87.5q0 62 18.5 104t47 68t63 37t67.5 11z" />
    <glyph glyph-name="ordfeminine" unicode="&#xaa;" horiz-adv-x="430" 
d="M217 717q90 0 128.5 -33t38.5 -92v-195q0 -24 2.5 -45t10.5 -42h-104q-5 9 -7.5 19.5t-4.5 21.5q-22 -29 -53.5 -40t-64.5 -11q-65 0 -100 34.5t-35 86.5q0 55 38 89.5t127 45.5l87 11v18q0 32 -13.5 45t-51.5 13q-36 0 -52 -12.5t-17 -42.5h-102q2 66 48 97.5t125 31.5z
M219 491q-46 -6 -65.5 -20t-19.5 -40q0 -22 13.5 -35.5t43.5 -13.5q35 0 61.5 21t26.5 55v41z" />
    <glyph glyph-name="guillemotleft" unicode="&#xab;" horiz-adv-x="507" 
d="M249 448l-94 -170l94 -170l-71 -51l-143 161v120l143 161zM472 448l-94 -170l94 -170l-71 -51l-143 161v120l143 161z" />
    <glyph glyph-name="logicalnot" unicode="&#xac;" 
d="M509 87h-127v149h-291v110h418v-259z" />
    <glyph glyph-name="uni00AD" unicode="&#xad;" horiz-adv-x="369" 
d="M325 251h-280v109h280v-109z" />
    <glyph glyph-name="registered" unicode="&#xae;" horiz-adv-x="900" 
d="M451 717q78 0 145.5 -28.5t117 -78t77.5 -117t28 -144.5t-28 -144t-77.5 -116.5t-117 -77.5t-145.5 -28t-146 28t-118 77.5t-78.5 116.5t-28.5 144t28.5 144.5t78.5 117t118 78t146 28.5zM451 651q-65 0 -119.5 -24t-94 -65.5t-62 -96.5t-22.5 -116q0 -62 22.5 -116.5
t62 -95t94 -64.5t119.5 -24t119.5 24t93.5 64.5t61 95t22 116.5q0 61 -22 116t-61 96.5t-93.5 65.5t-119.5 24zM465 567q74 0 115 -33.5t41 -93.5q0 -23 -7.5 -42t-20 -33t-28.5 -23.5t-33 -14.5l101 -171h-95l-89 158h-66v-158h-82v411h164zM383 500v-121h81
q29 0 49.5 14.5t20.5 46.5q0 29 -19.5 44.5t-47.5 15.5h-84z" />
    <glyph glyph-name="macron" unicode="&#xaf;" horiz-adv-x="405" 
d="M375 618h-345v88h345v-88z" />
    <glyph glyph-name="degree" unicode="&#xb0;" horiz-adv-x="516" 
d="M258 714q37 0 71.5 -12.5t61.5 -36t43.5 -58t16.5 -77.5t-16.5 -77t-43.5 -57.5t-61.5 -36t-71.5 -12.5q-36 0 -71 12.5t-62 36.5t-43.5 58t-16.5 77t16.5 77.5t43.5 57.5t62 35.5t71 12.5zM258 628q-16 0 -31.5 -5.5t-27.5 -17.5t-19.5 -30.5t-7.5 -43.5q0 -26 7.5 -44
t19.5 -30t27.5 -17.5t31.5 -5.5t31.5 5.5t27.5 17.5t19.5 30t7.5 43t-7.5 43.5t-19.5 30.5t-27.5 18t-31.5 6z" />
    <glyph glyph-name="plusminus" unicode="&#xb1;" 
d="M366 363h147v-107h-147v-105h-124v105h-147v107h147v154h124v-154zM505 0h-418v110h418v-110z" />
    <glyph glyph-name="uni00B2" unicode="&#xb2;" horiz-adv-x="400" 
d="M201 762q74 0 116.5 -35.5t42.5 -92.5q0 -66 -46.5 -117.5t-140.5 -103.5h194v-83h-335v80q59 40 100 71t67 56.5t37.5 48t11.5 45.5q0 49 -51 49q-55 0 -57 -71h-107q0 32 10 60t31 48.5t52.5 32.5t74.5 12z" />
    <glyph glyph-name="uni00B3" unicode="&#xb3;" horiz-adv-x="400" 
d="M204 762q78 0 119 -33t41 -82q0 -38 -23.5 -61.5t-61.5 -31.5q41 -5 69.5 -30t28.5 -71q0 -62 -47.5 -97.5t-128.5 -35.5q-69 0 -116.5 31t-61.5 88l98 23q7 -28 27.5 -43.5t52.5 -15.5q29 0 47.5 14t18.5 41q0 26 -18.5 39.5t-49.5 13.5h-46v77h39q23 0 43.5 9.5
t20.5 37.5q0 23 -16.5 34t-39.5 11q-26 0 -45 -12t-27 -39l-97 16q14 52 59 84.5t114 32.5z" />
    <glyph glyph-name="acute" unicode="&#xb4;" horiz-adv-x="317" 
d="M136 593h-102l94 146h160z" />
    <glyph glyph-name="uni00B5" unicode="&#xb5;" horiz-adv-x="592" 
d="M523 0h-125v56q-22 -34 -51.5 -51.5t-71.5 -17.5q-53 0 -85 32v-184h-123v692h128v-325q0 -57 21 -81.5t64 -24.5q51 0 83 35t32 95v301h128v-527z" />
    <glyph glyph-name="paragraph" unicode="&#xb6;" 
d="M538 -162h-79v791h-115v-791h-78v470q-47 2 -84.5 18.5t-63.5 43t-40.5 61t-14.5 72.5q0 41 14.5 77t43 62.5t70.5 42t97 15.5h250v-862z" />
    <glyph glyph-name="periodcentered" unicode="&#xb7;" horiz-adv-x="291" 
d="M146 384q17 0 32.5 -7t27 -18.5t18.5 -27t7 -33.5q0 -35 -25 -59.5t-60 -24.5q-18 0 -33.5 7t-27 18.5t-18.5 27t-7 32.5q0 18 7 33.5t18.5 27t27 18t33.5 6.5z" />
    <glyph glyph-name="cedilla" unicode="&#xb8;" horiz-adv-x="314" 
d="M178 -45q51 -5 79.5 -30t28.5 -59q0 -51 -39 -77.5t-98 -26.5q-35 0 -65.5 8t-53.5 20l32 62q16 -8 34.5 -12.5t36.5 -4.5q23 0 37.5 6.5t14.5 26.5q0 24 -27.5 31.5t-76.5 7.5l18 103h80z" />
    <glyph glyph-name="uni00B9" unicode="&#xb9;" horiz-adv-x="400" 
d="M66 413h107v193h-108v69h12q32 0 53 5t34 15t19 23.5t9 31.5h85v-337h85v-83h-296v83z" />
    <glyph glyph-name="ordmasculine" unicode="&#xba;" horiz-adv-x="476" 
d="M237 717q48 0 86 -16t64.5 -44t41 -66.5t14.5 -82.5q0 -46 -14 -84.5t-40.5 -66t-65 -42.5t-86.5 -15q-49 0 -87.5 15.5t-65 43.5t-40.5 66t-14 83q0 46 14 84t41 66t65.5 43.5t86.5 15.5zM237 634q-45 0 -71.5 -31t-26.5 -93t25.5 -94.5t72.5 -32.5q46 0 72 32.5
t26 94.5t-26.5 93t-71.5 31z" />
    <glyph glyph-name="guillemotright" unicode="&#xbb;" horiz-adv-x="507" 
d="M472 338v-120l-142 -161l-72 51l94 170l-94 170l72 51zM249 338v-120l-142 -161l-72 51l94 170l-94 170l72 51z" />
    <glyph glyph-name="onequarter" unicode="&#xbc;" horiz-adv-x="943" 
d="M350 -12h-100l433 724h100zM872 155h56v-83h-56v-72h-102v72h-213v86l180 262h135v-265zM657 155h113v163zM66 363h107v193h-108v69h12q32 0 53 5t34 15t19 23.5t9 31.5h85v-337h85v-83h-296v83z" />
    <glyph glyph-name="onehalf" unicode="&#xbd;" horiz-adv-x="993" 
d="M350 -12h-100l433 724h100zM794 432q74 0 116.5 -35.5t42.5 -92.5q0 -66 -46.5 -117.5t-140.5 -103.5h194v-83h-335v80q59 40 100 71t67 56.5t37.5 48t11.5 45.5q0 49 -51 49q-55 0 -57 -71h-107q0 32 10 60t31 48.5t52.5 32.5t74.5 12zM66 363h107v193h-108v69h12
q32 0 53 5t34 15t19 23.5t9 31.5h85v-337h85v-83h-296v83z" />
    <glyph glyph-name="threequarters" unicode="&#xbe;" horiz-adv-x="903" 
d="M310 -12h-100l433 724h100zM832 155h56v-83h-56v-72h-102v72h-213v86l180 262h135v-265zM617 155h113v163zM204 712q78 0 119 -33t41 -82q0 -38 -23.5 -61.5t-61.5 -31.5q41 -5 69.5 -30t28.5 -71q0 -62 -47.5 -97.5t-128.5 -35.5q-69 0 -116.5 31t-61.5 88l98 23
q7 -28 27.5 -43.5t52.5 -15.5q29 0 47.5 14t18.5 41q0 26 -18.5 39.5t-49.5 13.5h-46v77h39q23 0 43.5 9.5t20.5 37.5q0 23 -16.5 34t-39.5 11q-26 0 -45 -12t-27 -39l-97 16q14 52 59 84.5t114 32.5z" />
    <glyph glyph-name="questiondown" unicode="&#xbf;" horiz-adv-x="528" 
d="M272 539q33 0 57.5 -24t24.5 -58q0 -17 -6.5 -31.5t-18 -26t-26.5 -18t-31 -6.5q-34 0 -58.5 24t-24.5 58q0 16 6.5 31t18 26.5t26.5 18t32 6.5zM334 268q0 -35 -12.5 -60t-31.5 -45t-41.5 -35.5t-41.5 -32.5t-31.5 -36t-12.5 -45q0 -45 26.5 -67t71.5 -22q27 0 48 8.5
t36.5 22.5t26 32.5t18.5 39.5l117 -33q-8 -29 -26.5 -60t-49 -57t-73.5 -43t-99 -17q-63 0 -107 17.5t-72 45.5t-41 61t-13 65q0 46 14 76.5t35 52t45 37t45 31t35 34t14 47.5v21h120v-38z" />
    <glyph glyph-name="Agrave" unicode="&#xc0;" horiz-adv-x="636" 
d="M454 117h-279l-35 -117h-137l230 700h169l230 -700h-143zM206 225h216l-108 370zM382 753h-105l-157 142h166z" />
    <glyph glyph-name="Aacute" unicode="&#xc1;" horiz-adv-x="636" 
d="M454 117h-279l-35 -117h-137l230 700h169l230 -700h-143zM206 225h216l-108 370zM365 753h-104l95 142h167z" />
    <glyph glyph-name="Acircumflex" unicode="&#xc2;" horiz-adv-x="636" 
d="M454 117h-279l-35 -117h-137l230 700h169l230 -700h-143zM206 225h216l-108 370zM519 753h-119l-82 67l-82 -67h-119l137 141h128z" />
    <glyph glyph-name="Atilde" unicode="&#xc3;" horiz-adv-x="636" 
d="M454 117h-279l-35 -117h-137l230 700h169l230 -700h-143zM206 225h216l-108 370zM256 889q27 0 46.5 -8t34 -17t26 -17t22.5 -8q14 0 24.5 8t19.5 29h71q-7 -54 -39 -89t-82 -35q-27 0 -46.5 8t-34.5 17t-26 17t-22 8q-15 0 -25.5 -8t-19.5 -29h-70q8 54 39 89t82 35z
" />
    <glyph glyph-name="Adieresis" unicode="&#xc4;" horiz-adv-x="636" 
d="M454 117h-279l-35 -117h-137l230 700h169l230 -700h-143zM206 225h216l-108 370zM205 899q29 0 51.5 -21.5t22.5 -50.5q0 -30 -22.5 -51.5t-51.5 -21.5t-51.5 21.5t-22.5 51.5q0 29 22.5 50.5t51.5 21.5zM432 899q29 0 51.5 -21.5t22.5 -50.5q0 -30 -22.5 -51.5
t-51.5 -21.5t-51.5 21.5t-22.5 51.5q0 29 22.5 50.5t51.5 21.5z" />
    <glyph glyph-name="Aring" unicode="&#xc5;" horiz-adv-x="636" 
d="M454 117h-279l-35 -117h-137l230 700h169l230 -700h-143zM206 225h216l-108 370zM318 981q26 0 49.5 -9t41 -25t28 -38.5t10.5 -50.5t-10.5 -50.5t-28 -38.5t-41 -25t-49.5 -9t-49.5 9t-41 25t-28 38.5t-10.5 50.5t10.5 50.5t28 38.5t41 25t49.5 9zM319 911
q-20 0 -34.5 -13.5t-14.5 -39.5q0 -25 14.5 -38.5t34.5 -13.5t34 13.5t14 38.5q0 26 -14 39.5t-34 13.5z" />
    <glyph glyph-name="AE" unicode="&#xc6;" horiz-adv-x="946" 
d="M869 588h-344l28 -176h299v-110h-282l31 -190h319v-112h-439l-16 113h-279l-51 -113h-142l334 700h542v-112zM233 222h218l-53 366z" />
    <glyph glyph-name="Ccedilla" unicode="&#xc7;" horiz-adv-x="724" 
d="M375 717q44 0 88.5 -10t84 -33.5t72 -62t53.5 -95.5l-130 -36q-23 60 -63 91.5t-105 31.5q-91 0 -142.5 -66t-51.5 -185q0 -118 48.5 -186.5t146.5 -68.5q74 0 117.5 36t66.5 103l126 -41q-20 -54 -51.5 -93.5t-72.5 -66t-89.5 -39.5t-100.5 -13q-57 0 -115.5 19
t-106 62.5t-77 114t-29.5 172.5q0 98 28 167.5t74.5 113.5t106 64.5t122.5 20.5zM407 -45q51 -5 79.5 -30t28.5 -59q0 -51 -39 -77.5t-98 -26.5q-35 0 -65.5 8t-53.5 20l32 62q16 -8 34.5 -12.5t36.5 -4.5q23 0 37.5 6.5t14.5 26.5q0 24 -27.5 31.5t-76.5 7.5l18 103h80z
" />
    <glyph glyph-name="Egrave" unicode="&#xc8;" horiz-adv-x="583" 
d="M529 588h-322v-176h301v-110h-301v-190h331v-112h-464v700h455v-112zM365 753h-105l-157 142h166z" />
    <glyph glyph-name="Eacute" unicode="&#xc9;" horiz-adv-x="583" 
d="M529 588h-322v-176h301v-110h-301v-190h331v-112h-464v700h455v-112zM348 753h-104l95 142h167z" />
    <glyph glyph-name="Ecircumflex" unicode="&#xca;" horiz-adv-x="583" 
d="M529 588h-322v-176h301v-110h-301v-190h331v-112h-464v700h455v-112zM502 753h-119l-82 67l-82 -67h-119l137 141h128z" />
    <glyph glyph-name="Edieresis" unicode="&#xcb;" horiz-adv-x="583" 
d="M529 588h-322v-176h301v-110h-301v-190h331v-112h-464v700h455v-112zM188 899q29 0 51.5 -21.5t22.5 -50.5q0 -30 -22.5 -51.5t-51.5 -21.5t-51.5 21.5t-22.5 51.5q0 29 22.5 50.5t51.5 21.5zM415 899q29 0 51.5 -21.5t22.5 -50.5q0 -30 -22.5 -51.5t-51.5 -21.5
t-51.5 21.5t-22.5 51.5q0 29 22.5 50.5t51.5 21.5z" />
    <glyph glyph-name="Igrave" unicode="&#xcc;" horiz-adv-x="386" 
d="M350 591h-91v-482h91v-109h-315v109h91v482h-91v109h315v-109zM257 753h-105l-157 142h166z" />
    <glyph glyph-name="Iacute" unicode="&#xcd;" horiz-adv-x="386" 
d="M350 591h-91v-482h91v-109h-315v109h91v482h-91v109h315v-109zM240 753h-104l95 142h167z" />
    <glyph glyph-name="Icircumflex" unicode="&#xce;" horiz-adv-x="386" 
d="M350 591h-91v-482h91v-109h-315v109h91v482h-91v109h315v-109zM394 753h-119l-82 67l-82 -67h-119l137 141h128z" />
    <glyph glyph-name="Idieresis" unicode="&#xcf;" horiz-adv-x="386" 
d="M350 591h-91v-482h91v-109h-315v109h91v482h-91v109h315v-109zM80 899q29 0 51.5 -21.5t22.5 -50.5q0 -30 -22.5 -51.5t-51.5 -21.5t-51.5 21.5t-22.5 51.5q0 29 22.5 50.5t51.5 21.5zM307 899q29 0 51.5 -21.5t22.5 -50.5q0 -30 -22.5 -51.5t-51.5 -21.5t-51.5 21.5
t-22.5 51.5q0 29 22.5 50.5t51.5 21.5z" />
    <glyph glyph-name="Eth" unicode="&#xd0;" horiz-adv-x="724" 
d="M319 700q73 0 138.5 -19t115 -60.5t78.5 -106t29 -154.5q0 -104 -30 -173t-77.5 -110.5t-107 -59t-117.5 -17.5h-250v321h-75v89h75v290h221zM347 113q34 0 69 10t63 37t45.5 75t17.5 124q0 50 -12 92t-38.5 72t-68 47t-100.5 17h-93v-177h167v-89h-167v-208h117z" />
    <glyph glyph-name="Ntilde" unicode="&#xd1;" horiz-adv-x="708" 
d="M634 0h-150l-288 488v-488h-122v700h147l290 -501v501h123v-700zM292 889q27 0 46.5 -8t34 -17t26 -17t22.5 -8q14 0 24.5 8t19.5 29h71q-7 -54 -39 -89t-82 -35q-27 0 -46.5 8t-34.5 17t-26 17t-22 8q-15 0 -25.5 -8t-19.5 -29h-70q8 54 39 89t82 35z" />
    <glyph glyph-name="Ograve" unicode="&#xd2;" horiz-adv-x="765" 
d="M382 717q58 0 118.5 -18.5t109.5 -61.5t80 -113.5t31 -174.5q0 -97 -29 -166.5t-76.5 -113.5t-108.5 -65t-125 -21q-58 0 -118 19t-109 62t-80 113.5t-31 173.5q0 98 29 167.5t76.5 113.5t108 64.5t124.5 20.5zM382 604q-45 0 -82.5 -17t-63.5 -49.5t-40.5 -79.5
t-14.5 -106q0 -118 51 -187t150 -69q44 0 81 17t63.5 49t41.5 79t15 107q0 58 -13 105.5t-38 81t-63 51.5t-87 18zM446 753h-105l-157 142h166z" />
    <glyph glyph-name="Oacute" unicode="&#xd3;" horiz-adv-x="765" 
d="M382 717q58 0 118.5 -18.5t109.5 -61.5t80 -113.5t31 -174.5q0 -97 -29 -166.5t-76.5 -113.5t-108.5 -65t-125 -21q-58 0 -118 19t-109 62t-80 113.5t-31 173.5q0 98 29 167.5t76.5 113.5t108 64.5t124.5 20.5zM382 604q-45 0 -82.5 -17t-63.5 -49.5t-40.5 -79.5
t-14.5 -106q0 -118 51 -187t150 -69q44 0 81 17t63.5 49t41.5 79t15 107q0 58 -13 105.5t-38 81t-63 51.5t-87 18zM429 753h-104l95 142h167z" />
    <glyph glyph-name="Ocircumflex" unicode="&#xd4;" horiz-adv-x="765" 
d="M382 717q58 0 118.5 -18.5t109.5 -61.5t80 -113.5t31 -174.5q0 -97 -29 -166.5t-76.5 -113.5t-108.5 -65t-125 -21q-58 0 -118 19t-109 62t-80 113.5t-31 173.5q0 98 29 167.5t76.5 113.5t108 64.5t124.5 20.5zM382 604q-45 0 -82.5 -17t-63.5 -49.5t-40.5 -79.5
t-14.5 -106q0 -118 51 -187t150 -69q44 0 81 17t63.5 49t41.5 79t15 107q0 58 -13 105.5t-38 81t-63 51.5t-87 18zM583 753h-119l-82 67l-82 -67h-119l137 141h128z" />
    <glyph glyph-name="Otilde" unicode="&#xd5;" horiz-adv-x="765" 
d="M382 717q58 0 118.5 -18.5t109.5 -61.5t80 -113.5t31 -174.5q0 -97 -29 -166.5t-76.5 -113.5t-108.5 -65t-125 -21q-58 0 -118 19t-109 62t-80 113.5t-31 173.5q0 98 29 167.5t76.5 113.5t108 64.5t124.5 20.5zM382 604q-45 0 -82.5 -17t-63.5 -49.5t-40.5 -79.5
t-14.5 -106q0 -118 51 -187t150 -69q44 0 81 17t63.5 49t41.5 79t15 107q0 58 -13 105.5t-38 81t-63 51.5t-87 18zM320 889q27 0 46.5 -8t34 -17t26 -17t22.5 -8q14 0 24.5 8t19.5 29h71q-7 -54 -39 -89t-82 -35q-27 0 -46.5 8t-34.5 17t-26 17t-22 8q-15 0 -25.5 -8
t-19.5 -29h-70q8 54 39 89t82 35z" />
    <glyph glyph-name="Odieresis" unicode="&#xd6;" horiz-adv-x="765" 
d="M382 717q58 0 118.5 -18.5t109.5 -61.5t80 -113.5t31 -174.5q0 -97 -29 -166.5t-76.5 -113.5t-108.5 -65t-125 -21q-58 0 -118 19t-109 62t-80 113.5t-31 173.5q0 98 29 167.5t76.5 113.5t108 64.5t124.5 20.5zM382 604q-45 0 -82.5 -17t-63.5 -49.5t-40.5 -79.5
t-14.5 -106q0 -118 51 -187t150 -69q44 0 81 17t63.5 49t41.5 79t15 107q0 58 -13 105.5t-38 81t-63 51.5t-87 18zM269 899q29 0 51.5 -21.5t22.5 -50.5q0 -30 -22.5 -51.5t-51.5 -21.5t-51.5 21.5t-22.5 51.5q0 29 22.5 50.5t51.5 21.5zM496 899q29 0 51.5 -21.5
t22.5 -50.5q0 -30 -22.5 -51.5t-51.5 -21.5t-51.5 21.5t-22.5 51.5q0 29 22.5 50.5t51.5 21.5z" />
    <glyph glyph-name="multiply" unicode="&#xd7;" 
d="M522 422l-145 -145l145 -144l-78 -77l-144 144l-144 -144l-78 77l145 144l-145 145l78 77l144 -145l144 145z" />
    <glyph glyph-name="Oslash" unicode="&#xd8;" horiz-adv-x="765" 
d="M622 625q45 -44 72 -111.5t27 -164.5t-29 -166.5t-76.5 -113.5t-108.5 -65t-125 -21q-37 0 -75.5 7.5t-74.5 24.5l-65 -105h-108l98 153q-50 44 -81.5 114.5t-31.5 173.5q0 98 29 167.5t76.5 113.5t108 64.5t124.5 20.5q42 0 84 -9t81 -29l52 80h106zM382 603
q-45 0 -82.5 -17t-63.5 -49.5t-40.5 -79t-14.5 -105.5q0 -121 49 -186l261 408q-44 29 -109 29zM382 97q44 0 81 16.5t63.5 49t41.5 79t15 106.5q0 105 -39 170l-255 -401q40 -20 93 -20z" />
    <glyph glyph-name="Ugrave" unicode="&#xd9;" horiz-adv-x="685" 
d="M620 253q0 -52 -14.5 -101t-47.5 -86.5t-86.5 -60t-130.5 -22.5q-79 0 -132 23t-85.5 60.5t-46 86.5t-13.5 100v447h133v-445q0 -85 35.5 -122t109.5 -37t109.5 39t35.5 120v445h133v-447zM407 753h-105l-157 142h166z" />
    <glyph glyph-name="Uacute" unicode="&#xda;" horiz-adv-x="685" 
d="M620 253q0 -52 -14.5 -101t-47.5 -86.5t-86.5 -60t-130.5 -22.5q-79 0 -132 23t-85.5 60.5t-46 86.5t-13.5 100v447h133v-445q0 -85 35.5 -122t109.5 -37t109.5 39t35.5 120v445h133v-447zM390 753h-104l95 142h167z" />
    <glyph glyph-name="Ucircumflex" unicode="&#xdb;" horiz-adv-x="685" 
d="M620 253q0 -52 -14.5 -101t-47.5 -86.5t-86.5 -60t-130.5 -22.5q-79 0 -132 23t-85.5 60.5t-46 86.5t-13.5 100v447h133v-445q0 -85 35.5 -122t109.5 -37t109.5 39t35.5 120v445h133v-447zM544 753h-119l-82 67l-82 -67h-119l137 141h128z" />
    <glyph glyph-name="Udieresis" unicode="&#xdc;" horiz-adv-x="685" 
d="M620 253q0 -52 -14.5 -101t-47.5 -86.5t-86.5 -60t-130.5 -22.5q-79 0 -132 23t-85.5 60.5t-46 86.5t-13.5 100v447h133v-445q0 -85 35.5 -122t109.5 -37t109.5 39t35.5 120v445h133v-447zM230 899q29 0 51.5 -21.5t22.5 -50.5q0 -30 -22.5 -51.5t-51.5 -21.5t-51.5 21.5
t-22.5 51.5q0 29 22.5 50.5t51.5 21.5zM457 899q29 0 51.5 -21.5t22.5 -50.5q0 -30 -22.5 -51.5t-51.5 -21.5t-51.5 21.5t-22.5 51.5q0 29 22.5 50.5t51.5 21.5z" />
    <glyph glyph-name="Yacute" unicode="&#xdd;" horiz-adv-x="614" 
d="M372 279v-279h-132v277l-241 423h150l159 -309l159 309h146zM354 753h-104l95 142h167z" />
    <glyph glyph-name="Thorn" unicode="&#xde;" horiz-adv-x="632" 
d="M207 588h126q71 0 121.5 -18.5t83 -50t48 -74t15.5 -89.5q0 -53 -16.5 -96t-49.5 -74.5t-83 -48.5t-117 -17h-128v-120h-133v700h133v-112zM207 476v-247h134q24 0 46.5 6.5t39 21.5t26.5 39.5t10 59.5q0 54 -31.5 87t-87.5 33h-137z" />
    <glyph glyph-name="germandbls" unicode="&#xdf;" horiz-adv-x="603" 
d="M285 713q53 0 92 -12.5t64.5 -33.5t38 -48t12.5 -57q0 -36 -15.5 -59t-33.5 -40.5t-33.5 -32.5t-15.5 -34q0 -18 14.5 -29t35.5 -21t46.5 -22t46.5 -31.5t35.5 -50t14.5 -76.5q0 -33 -12 -64.5t-36.5 -57t-63 -41t-92.5 -15.5q-51 0 -89 13t-71 41l59 82
q20 -17 42.5 -24.5t51.5 -7.5q35 0 56.5 18.5t21.5 56.5q0 27 -13.5 44t-34.5 29.5t-44.5 23.5t-44.5 26t-34.5 36.5t-13.5 54.5q0 31 15.5 52.5t34 39.5t34 35.5t15.5 41.5q0 18 -7.5 30t-19 19.5t-26.5 10.5t-30 3q-45 0 -67.5 -27t-22.5 -75v-511h-128v509q0 45 14 82.5
t42 64.5t68.5 42t93.5 15z" />
    <glyph glyph-name="agrave" unicode="&#xe0;" horiz-adv-x="559" 
d="M280 540q59 0 100 -11t67 -32.5t37.5 -52.5t11.5 -70v-259q0 -31 3.5 -59t14.5 -56h-129q-10 25 -15 55q-30 -38 -72.5 -53t-84.5 -15t-75.5 12t-56 34t-34.5 51t-12 64q0 73 49.5 118.5t165.5 59.5l118 15v24q0 46 -18.5 64t-72.5 18q-50 0 -72 -17t-23 -59h-126
q2 86 62.5 127.5t161.5 41.5zM283 243q-63 -8 -90 -27t-27 -57q0 -30 18.5 -49.5t60.5 -19.5q25 0 47 8t39 22t27 34t10 44v57zM346 593h-102l-152 146h160z" />
    <glyph glyph-name="aacute" unicode="&#xe1;" horiz-adv-x="559" 
d="M280 540q59 0 100 -11t67 -32.5t37.5 -52.5t11.5 -70v-259q0 -31 3.5 -59t14.5 -56h-129q-10 25 -15 55q-30 -38 -72.5 -53t-84.5 -15t-75.5 12t-56 34t-34.5 51t-12 64q0 73 49.5 118.5t165.5 59.5l118 15v24q0 46 -18.5 64t-72.5 18q-50 0 -72 -17t-23 -59h-126
q2 86 62.5 127.5t161.5 41.5zM283 243q-63 -8 -90 -27t-27 -57q0 -30 18.5 -49.5t60.5 -19.5q25 0 47 8t39 22t27 34t10 44v57zM327 593h-102l94 146h160z" />
    <glyph glyph-name="acircumflex" unicode="&#xe2;" horiz-adv-x="559" 
d="M280 540q59 0 100 -11t67 -32.5t37.5 -52.5t11.5 -70v-259q0 -31 3.5 -59t14.5 -56h-129q-10 25 -15 55q-30 -38 -72.5 -53t-84.5 -15t-75.5 12t-56 34t-34.5 51t-12 64q0 73 49.5 118.5t165.5 59.5l118 15v24q0 46 -18.5 64t-72.5 18q-50 0 -72 -17t-23 -59h-126
q2 86 62.5 127.5t161.5 41.5zM283 243q-63 -8 -90 -27t-27 -57q0 -30 18.5 -49.5t60.5 -19.5q25 0 47 8t39 22t27 34t10 44v57zM487 593h-119l-82 74l-82 -74h-119l137 146h128z" />
    <glyph glyph-name="atilde" unicode="&#xe3;" horiz-adv-x="559" 
d="M280 540q59 0 100 -11t67 -32.5t37.5 -52.5t11.5 -70v-259q0 -31 3.5 -59t14.5 -56h-129q-10 25 -15 55q-30 -38 -72.5 -53t-84.5 -15t-75.5 12t-56 34t-34.5 51t-12 64q0 73 49.5 118.5t165.5 59.5l118 15v24q0 46 -18.5 64t-72.5 18q-50 0 -72 -17t-23 -59h-126
q2 86 62.5 127.5t161.5 41.5zM283 243q-63 -8 -90 -27t-27 -57q0 -30 18.5 -49.5t60.5 -19.5q25 0 47 8t39 22t27 34t10 44v57zM224 729q27 0 46.5 -8t34 -17t26 -17t22.5 -8q14 0 24.5 8t19.5 29h71q-7 -54 -39 -89t-82 -35q-27 0 -46.5 8t-34.5 17t-26 17t-22 8
q-15 0 -25.5 -8t-19.5 -29h-70q8 54 39 89t82 35z" />
    <glyph glyph-name="adieresis" unicode="&#xe4;" horiz-adv-x="559" 
d="M280 540q59 0 100 -11t67 -32.5t37.5 -52.5t11.5 -70v-259q0 -31 3.5 -59t14.5 -56h-129q-10 25 -15 55q-30 -38 -72.5 -53t-84.5 -15t-75.5 12t-56 34t-34.5 51t-12 64q0 73 49.5 118.5t165.5 59.5l118 15v24q0 46 -18.5 64t-72.5 18q-50 0 -72 -17t-23 -59h-126
q2 86 62.5 127.5t161.5 41.5zM283 243q-63 -8 -90 -27t-27 -57q0 -30 18.5 -49.5t60.5 -19.5q25 0 47 8t39 22t27 34t10 44v57zM173 739q29 0 51.5 -21.5t22.5 -50.5q0 -30 -22.5 -51.5t-51.5 -21.5t-51.5 21.5t-22.5 51.5q0 29 22.5 50.5t51.5 21.5zM400 739
q29 0 51.5 -21.5t22.5 -50.5q0 -30 -22.5 -51.5t-51.5 -21.5t-51.5 21.5t-22.5 51.5q0 29 22.5 50.5t51.5 21.5z" />
    <glyph glyph-name="aring" unicode="&#xe5;" horiz-adv-x="559" 
d="M280 540q59 0 100 -11t67 -32.5t37.5 -52.5t11.5 -70v-259q0 -31 3.5 -59t14.5 -56h-129q-10 25 -15 55q-30 -38 -72.5 -53t-84.5 -15t-75.5 12t-56 34t-34.5 51t-12 64q0 73 49.5 118.5t165.5 59.5l118 15v24q0 46 -18.5 64t-72.5 18q-50 0 -72 -17t-23 -59h-126
q2 86 62.5 127.5t161.5 41.5zM283 243q-63 -8 -90 -27t-27 -57q0 -30 18.5 -49.5t60.5 -19.5q25 0 47 8t39 22t27 34t10 44v57zM286 830q26 0 49.5 -9t41 -25t28 -38.5t10.5 -50.5t-10.5 -50.5t-28 -38.5t-41 -25t-49.5 -9t-49.5 9t-41 25t-28 38.5t-10.5 50.5t10.5 50.5
t28 38.5t41 25t49.5 9zM287 759q-20 0 -34.5 -13.5t-14.5 -38.5q0 -26 14.5 -39.5t34.5 -13.5t34 13.5t14 39.5q0 25 -14 38.5t-34 13.5z" />
    <glyph glyph-name="ae" unicode="&#xe6;" horiz-adv-x="899" 
d="M616 540q59 0 105 -21t77.5 -58t48 -89t16.5 -113v-26h-370q2 -72 37.5 -107.5t97.5 -35.5q48 0 78.5 20.5t48.5 52.5l104 -53q-37 -59 -96 -91t-140 -32q-71 0 -121 26t-83 74q-27 -41 -74.5 -70.5t-126.5 -29.5q-89 0 -136 45.5t-47 115.5q0 73 49.5 118.5t165.5 59.5
l129 15q3 22 12 46q-10 31 -34.5 45.5t-78.5 14.5q-51 0 -73 -17t-23 -59h-126q2 86 61 127.5t160 41.5q43 0 72 -6t48.5 -15.5t31.5 -22t22 -24.5q9 10 25 22t37.5 22.5t47.5 17t55 6.5zM616 443q-53 0 -85 -31t-37 -92h240q-5 63 -35.5 93t-82.5 30zM280 243
q-60 -8 -87 -27t-27 -57q0 -31 19 -50t61 -19q25 0 48 7.5t41 20t30 28t15 31.5q-5 29 -5.5 46t-0.5 32z" />
    <glyph glyph-name="ccedilla" unicode="&#xe7;" horiz-adv-x="566" 
d="M301 540q87 0 146 -38t88 -103l-111 -45q-16 39 -45 60.5t-71 21.5q-61 0 -98 -43t-37 -128t36 -129.5t99 -44.5q27 0 47 7.5t34.5 21t24.5 30.5t18 37l111 -46q-30 -68 -90 -111t-151 -43q-62 0 -111 21t-83 57.5t-51.5 87t-17.5 110.5t18.5 111t52.5 88t82.5 57.5
t108.5 20.5zM334 -45q51 -5 79.5 -30t28.5 -59q0 -51 -39 -77.5t-98 -26.5q-35 0 -65.5 8t-53.5 20l32 62q16 -8 34.5 -12.5t36.5 -4.5q23 0 37.5 6.5t14.5 26.5q0 24 -27.5 31.5t-76.5 7.5l18 103h80z" />
    <glyph glyph-name="egrave" unicode="&#xe8;" horiz-adv-x="579" 
d="M294 540q59 0 105.5 -21t78.5 -58t48.5 -89t16.5 -113v-26h-372q3 -72 38.5 -107.5t98.5 -35.5q48 0 78.5 20.5t48.5 52.5l104 -53q-37 -59 -96 -91t-141 -32q-63 0 -111.5 21t-82.5 58t-51.5 87.5t-17.5 109.5q0 60 16.5 111t49 88t80 57.5t109.5 20.5zM293 443
q-52 0 -84.5 -31t-37.5 -92h240q-5 63 -35.5 93t-82.5 30zM353 593h-102l-152 146h160z" />
    <glyph glyph-name="eacute" unicode="&#xe9;" horiz-adv-x="579" 
d="M294 540q59 0 105.5 -21t78.5 -58t48.5 -89t16.5 -113v-26h-372q3 -72 38.5 -107.5t98.5 -35.5q48 0 78.5 20.5t48.5 52.5l104 -53q-37 -59 -96 -91t-141 -32q-63 0 -111.5 21t-82.5 58t-51.5 87.5t-17.5 109.5q0 60 16.5 111t49 88t80 57.5t109.5 20.5zM293 443
q-52 0 -84.5 -31t-37.5 -92h240q-5 63 -35.5 93t-82.5 30zM334 593h-102l94 146h160z" />
    <glyph glyph-name="ecircumflex" unicode="&#xea;" horiz-adv-x="579" 
d="M294 540q59 0 105.5 -21t78.5 -58t48.5 -89t16.5 -113v-26h-372q3 -72 38.5 -107.5t98.5 -35.5q48 0 78.5 20.5t48.5 52.5l104 -53q-37 -59 -96 -91t-141 -32q-63 0 -111.5 21t-82.5 58t-51.5 87.5t-17.5 109.5q0 60 16.5 111t49 88t80 57.5t109.5 20.5zM293 443
q-52 0 -84.5 -31t-37.5 -92h240q-5 63 -35.5 93t-82.5 30zM494 593h-119l-82 74l-82 -74h-119l137 146h128z" />
    <glyph glyph-name="edieresis" unicode="&#xeb;" horiz-adv-x="579" 
d="M294 540q59 0 105.5 -21t78.5 -58t48.5 -89t16.5 -113v-26h-372q3 -72 38.5 -107.5t98.5 -35.5q48 0 78.5 20.5t48.5 52.5l104 -53q-37 -59 -96 -91t-141 -32q-63 0 -111.5 21t-82.5 58t-51.5 87.5t-17.5 109.5q0 60 16.5 111t49 88t80 57.5t109.5 20.5zM293 443
q-52 0 -84.5 -31t-37.5 -92h240q-5 63 -35.5 93t-82.5 30zM180 739q29 0 51.5 -21.5t22.5 -50.5q0 -30 -22.5 -51.5t-51.5 -21.5t-51.5 21.5t-22.5 51.5q0 29 22.5 50.5t51.5 21.5zM407 739q29 0 51.5 -21.5t22.5 -50.5q0 -30 -22.5 -51.5t-51.5 -21.5t-51.5 21.5
t-22.5 51.5q0 29 22.5 50.5t51.5 21.5z" />
    <glyph glyph-name="igrave" unicode="&#xec;" horiz-adv-x="263" 
d="M195 0h-128v527h128v-527zM192 593h-102l-152 146h160z" />
    <glyph glyph-name="iacute" unicode="&#xed;" horiz-adv-x="263" 
d="M195 0h-128v527h128v-527zM173 593h-102l94 146h160z" />
    <glyph glyph-name="icircumflex" unicode="&#xee;" horiz-adv-x="263" 
d="M195 0h-128v527h128v-527zM333 593h-119l-82 74l-82 -74h-119l137 146h128z" />
    <glyph glyph-name="idieresis" unicode="&#xef;" horiz-adv-x="263" 
d="M195 0h-128v527h128v-527zM19 739q29 0 51.5 -21.5t22.5 -50.5q0 -30 -22.5 -51.5t-51.5 -21.5t-51.5 21.5t-22.5 51.5q0 29 22.5 50.5t51.5 21.5zM246 739q29 0 51.5 -21.5t22.5 -50.5q0 -30 -22.5 -51.5t-51.5 -21.5t-51.5 21.5t-22.5 51.5q0 29 22.5 50.5t51.5 21.5z
" />
    <glyph glyph-name="eth" unicode="&#xf0;" horiz-adv-x="598" 
d="M376 665q87 -42 135 -126.5t48 -223.5q0 -87 -20 -150t-55.5 -103.5t-84 -59.5t-105.5 -19t-104 17t-80.5 48.5t-52 76t-18.5 100.5t18 99.5t48.5 73.5t71 45.5t86.5 15.5q51 0 96.5 -20t72.5 -63q-3 78 -32 126.5t-79 76.5l-42 -66h-95l61 94q-27 7 -57 10t-63 4l21 94
q42 -2 80.5 -7.5t73.5 -14.5l42 65h93zM296 87q54 0 87.5 35.5t33.5 101.5q0 60 -33 96t-91 36q-32 0 -55.5 -10.5t-38.5 -28.5t-22 -42t-7 -51q0 -67 35 -102t91 -35z" />
    <glyph glyph-name="ntilde" unicode="&#xf1;" horiz-adv-x="593" 
d="M351 540q87 0 132.5 -52.5t45.5 -148.5v-339h-128v299q0 62 -18 97.5t-71 35.5q-26 0 -47 -10t-37 -28.5t-24.5 -44t-8.5 -56.5v-293h-128v527h125v-68q30 43 70.5 62t88.5 19zM256 729q27 0 46.5 -8t34 -17t26 -17t22.5 -8q14 0 24.5 8t19.5 29h71q-7 -54 -39 -89
t-82 -35q-27 0 -46.5 8t-34.5 17t-26 17t-22 8q-15 0 -25.5 -8t-19.5 -29h-70q8 54 39 89t82 35z" />
    <glyph glyph-name="ograve" unicode="&#xf2;" horiz-adv-x="614" 
d="M307 540q61 0 111 -21.5t84.5 -58.5t53.5 -88t19 -109q0 -61 -18.5 -112t-53 -87.5t-84 -56.5t-112.5 -20t-113 21t-84.5 57.5t-52.5 87t-18 110.5t18.5 111t53 88t84.5 57.5t112 20.5zM307 436q-61 0 -97.5 -43t-36.5 -128t35.5 -129.5t98.5 -44.5t98.5 44.5t35.5 129.5
t-36.5 128t-97.5 43zM367 593h-102l-152 146h160z" />
    <glyph glyph-name="oacute" unicode="&#xf3;" horiz-adv-x="614" 
d="M307 540q61 0 111 -21.5t84.5 -58.5t53.5 -88t19 -109q0 -61 -18.5 -112t-53 -87.5t-84 -56.5t-112.5 -20t-113 21t-84.5 57.5t-52.5 87t-18 110.5t18.5 111t53 88t84.5 57.5t112 20.5zM307 436q-61 0 -97.5 -43t-36.5 -128t35.5 -129.5t98.5 -44.5t98.5 44.5t35.5 129.5
t-36.5 128t-97.5 43zM348 593h-102l94 146h160z" />
    <glyph glyph-name="ocircumflex" unicode="&#xf4;" horiz-adv-x="614" 
d="M307 540q61 0 111 -21.5t84.5 -58.5t53.5 -88t19 -109q0 -61 -18.5 -112t-53 -87.5t-84 -56.5t-112.5 -20t-113 21t-84.5 57.5t-52.5 87t-18 110.5t18.5 111t53 88t84.5 57.5t112 20.5zM307 436q-61 0 -97.5 -43t-36.5 -128t35.5 -129.5t98.5 -44.5t98.5 44.5t35.5 129.5
t-36.5 128t-97.5 43zM508 593h-119l-82 74l-82 -74h-119l137 146h128z" />
    <glyph glyph-name="otilde" unicode="&#xf5;" horiz-adv-x="614" 
d="M307 540q61 0 111 -21.5t84.5 -58.5t53.5 -88t19 -109q0 -61 -18.5 -112t-53 -87.5t-84 -56.5t-112.5 -20t-113 21t-84.5 57.5t-52.5 87t-18 110.5t18.5 111t53 88t84.5 57.5t112 20.5zM307 436q-61 0 -97.5 -43t-36.5 -128t35.5 -129.5t98.5 -44.5t98.5 44.5t35.5 129.5
t-36.5 128t-97.5 43zM245 729q27 0 46.5 -8t34 -17t26 -17t22.5 -8q14 0 24.5 8t19.5 29h71q-7 -54 -39 -89t-82 -35q-27 0 -46.5 8t-34.5 17t-26 17t-22 8q-15 0 -25.5 -8t-19.5 -29h-70q8 54 39 89t82 35z" />
    <glyph glyph-name="odieresis" unicode="&#xf6;" horiz-adv-x="614" 
d="M307 540q61 0 111 -21.5t84.5 -58.5t53.5 -88t19 -109q0 -61 -18.5 -112t-53 -87.5t-84 -56.5t-112.5 -20t-113 21t-84.5 57.5t-52.5 87t-18 110.5t18.5 111t53 88t84.5 57.5t112 20.5zM307 436q-61 0 -97.5 -43t-36.5 -128t35.5 -129.5t98.5 -44.5t98.5 44.5t35.5 129.5
t-36.5 128t-97.5 43zM194 739q29 0 51.5 -21.5t22.5 -50.5q0 -30 -22.5 -51.5t-51.5 -21.5t-51.5 21.5t-22.5 51.5q0 29 22.5 50.5t51.5 21.5zM421 739q29 0 51.5 -21.5t22.5 -50.5q0 -30 -22.5 -51.5t-51.5 -21.5t-51.5 21.5t-22.5 51.5q0 29 22.5 50.5t51.5 21.5z" />
    <glyph glyph-name="divide" unicode="&#xf7;" 
d="M301.498 573.234q16.5918 0 31.7207 -6.83203q15.1279 -6.83203 26.3516 -18.0566q11.2246 -11.2246 18.0566 -26.3525t6.83203 -32.6963q0 -34.1602 -24.4004 -58.0723q-24.4004 -23.9131 -58.5605 -23.9131q-17.5684 0 -32.6963 6.83203
q-15.1289 6.83203 -26.3525 18.0566q-11.2246 11.2236 -18.0566 26.3525q-6.83203 15.1279 -6.83203 31.7207q0 17.5674 6.83203 32.6963q6.83203 15.1279 18.0566 26.3525q11.2236 11.2236 26.3525 17.5674q15.1279 6.34473 32.6963 6.34473zM509 242h-418v110h418v-110z
M301.498 187.234q16.5918 0 31.7207 -6.83203q15.1279 -6.83203 26.3516 -18.0566q11.2246 -11.2246 18.0566 -26.3525t6.83203 -32.6963q0 -34.1602 -24.4004 -58.0723q-24.4004 -23.9131 -58.5605 -23.9131q-17.5684 0 -32.6963 6.83203
q-15.1289 6.83203 -26.3525 18.0566q-11.2246 11.2236 -18.0566 26.3525q-6.83203 15.1279 -6.83203 31.7207q0 17.5674 6.83203 32.6963q6.83203 15.1279 18.0566 26.3516q11.2236 11.2246 26.3525 17.5684q15.1279 6.34473 32.6963 6.34473z" />
    <glyph glyph-name="oslash" unicode="&#xf8;" horiz-adv-x="614" 
d="M489 471q41 -38 63.5 -91.5t22.5 -116.5q0 -61 -18.5 -112t-53 -87.5t-84 -56.5t-112.5 -20q-58 0 -104 18l-50 -85h-103l78 128q-43 38 -66 93t-23 122q0 60 18.5 111t53 88t84.5 57.5t112 20.5q29 0 56 -5.5t52 -15.5l49 82h100zM307 436q-61 0 -98 -43t-37 -128
q0 -75 27 -117l166 276q-26 12 -58 12zM253 101q12 -5 25.5 -7.5t28.5 -2.5q63 0 98.5 44.5t35.5 129.5q0 67 -23 108z" />
    <glyph glyph-name="ugrave" unicode="&#xf9;" horiz-adv-x="587" 
d="M518 0h-125v61q-29 -37 -69 -55.5t-85 -18.5q-79 0 -128 45t-49 138v357h128v-328q0 -55 20 -78.5t65 -23.5q51 0 83 34.5t32 94.5v301h128v-527zM351 593h-102l-152 146h160z" />
    <glyph glyph-name="uacute" unicode="&#xfa;" horiz-adv-x="587" 
d="M518 0h-125v61q-29 -37 -69 -55.5t-85 -18.5q-79 0 -128 45t-49 138v357h128v-328q0 -55 20 -78.5t65 -23.5q51 0 83 34.5t32 94.5v301h128v-527zM332 593h-102l94 146h160z" />
    <glyph glyph-name="ucircumflex" unicode="&#xfb;" horiz-adv-x="587" 
d="M518 0h-125v61q-29 -37 -69 -55.5t-85 -18.5q-79 0 -128 45t-49 138v357h128v-328q0 -55 20 -78.5t65 -23.5q51 0 83 34.5t32 94.5v301h128v-527zM492 593h-119l-82 74l-82 -74h-119l137 146h128z" />
    <glyph glyph-name="udieresis" unicode="&#xfc;" horiz-adv-x="587" 
d="M518 0h-125v61q-29 -37 -69 -55.5t-85 -18.5q-79 0 -128 45t-49 138v357h128v-328q0 -55 20 -78.5t65 -23.5q51 0 83 34.5t32 94.5v301h128v-527zM178 739q29 0 51.5 -21.5t22.5 -50.5q0 -30 -22.5 -51.5t-51.5 -21.5t-51.5 21.5t-22.5 51.5q0 29 22.5 50.5t51.5 21.5z
M405 739q29 0 51.5 -21.5t22.5 -50.5q0 -30 -22.5 -51.5t-51.5 -21.5t-51.5 21.5t-22.5 51.5q0 29 22.5 50.5t51.5 21.5z" />
    <glyph glyph-name="yacute" unicode="&#xfd;" horiz-adv-x="514" 
d="M341 -25q-11 -36 -26 -65.5t-37.5 -50.5t-55 -32.5t-79.5 -11.5q-20 0 -37.5 2t-31.5 5v93q17 -2 25 -2h20q28 0 46 4.5t29.5 14.5t18 26.5t12.5 41.5h-46l-176 527h142l119 -434l109 434h137zM299 593h-102l94 146h160z" />
    <glyph glyph-name="thorn" unicode="&#xfe;" horiz-adv-x="617" 
d="M195 473q29 37 68.5 52t82.5 15q51 0 93.5 -20t73 -56.5t47.5 -87.5t17 -113q0 -59 -17 -109t-47.5 -87.5t-73 -58.5t-93.5 -21q-52 0 -89.5 17t-61.5 48v-217h-128v865h128v-227zM314 436q-57 0 -91.5 -43t-34.5 -131q0 -44 10 -76t27 -53t40 -31.5t49 -10.5
q58 0 93.5 45t35.5 126q0 85 -33 129.5t-96 44.5z" />
    <glyph glyph-name="ydieresis" unicode="&#xff;" horiz-adv-x="514" 
d="M341 -25q-11 -36 -26 -65.5t-37.5 -50.5t-55 -32.5t-79.5 -11.5q-20 0 -37.5 2t-31.5 5v93q17 -2 25 -2h20q28 0 46 4.5t29.5 14.5t18 26.5t12.5 41.5h-46l-176 527h142l119 -434l109 434h137zM145 739q29 0 51.5 -21.5t22.5 -50.5q0 -30 -22.5 -51.5t-51.5 -21.5
t-51.5 21.5t-22.5 51.5q0 29 22.5 50.5t51.5 21.5zM372 739q29 0 51.5 -21.5t22.5 -50.5q0 -30 -22.5 -51.5t-51.5 -21.5t-51.5 21.5t-22.5 51.5q0 29 22.5 50.5t51.5 21.5z" />
    <glyph glyph-name="Amacron" unicode="&#x100;" horiz-adv-x="636" 
d="M454 117h-279l-35 -117h-137l230 700h169l230 -700h-143zM206 225h216l-108 370zM491 778h-345v88h345v-88z" />
    <glyph glyph-name="amacron" unicode="&#x101;" horiz-adv-x="559" 
d="M280 540q59 0 100 -11t67 -32.5t37.5 -52.5t11.5 -70v-259q0 -31 3.5 -59t14.5 -56h-129q-10 25 -15 55q-30 -38 -72.5 -53t-84.5 -15t-75.5 12t-56 34t-34.5 51t-12 64q0 73 49.5 118.5t165.5 59.5l118 15v24q0 46 -18.5 64t-72.5 18q-50 0 -72 -17t-23 -59h-126
q2 86 62.5 127.5t161.5 41.5zM283 243q-63 -8 -90 -27t-27 -57q0 -30 18.5 -49.5t60.5 -19.5q25 0 47 8t39 22t27 34t10 44v57zM459 618h-345v88h345v-88z" />
    <glyph glyph-name="Abreve" unicode="&#x102;" horiz-adv-x="636" 
d="M454 117h-279l-35 -117h-137l230 700h169l230 -700h-143zM206 225h216l-108 370zM485 898q-9 -69 -52 -107.5t-115 -38.5t-115 38.5t-53 107.5h75q7 -33 34 -45.5t59 -13.5q32 0 58.5 13t34.5 46h74z" />
    <glyph glyph-name="abreve" unicode="&#x103;" horiz-adv-x="559" 
d="M280 540q59 0 100 -11t67 -32.5t37.5 -52.5t11.5 -70v-259q0 -31 3.5 -59t14.5 -56h-129q-10 25 -15 55q-30 -38 -72.5 -53t-84.5 -15t-75.5 12t-56 34t-34.5 51t-12 64q0 73 49.5 118.5t165.5 59.5l118 15v24q0 46 -18.5 64t-72.5 18q-50 0 -72 -17t-23 -59h-126
q2 86 62.5 127.5t161.5 41.5zM283 243q-63 -8 -90 -27t-27 -57q0 -30 18.5 -49.5t60.5 -19.5q25 0 47 8t39 22t27 34t10 44v57zM453 740q-9 -69 -52 -109.5t-115 -40.5t-115 40.5t-53 109.5h75q7 -33 34 -48t59 -15t58.5 15t34.5 48h74z" />
    <glyph glyph-name="Aogonek" unicode="&#x104;" horiz-adv-x="636" 
d="M454 117h-279l-35 -117h-137l230 700h169l230 -700h-143zM206 225h216l-108 370zM564 0q-27 -16 -44 -31.5t-26 -30t-12.5 -28t-3.5 -25.5q0 -21 13 -33.5t44 -12.5q20 0 36 4t28 9l24 -66q-49 -23 -107 -23q-65 0 -101.5 28t-36.5 81q0 48 45 88.5t123 61.5z" />
    <glyph glyph-name="aogonek" unicode="&#x105;" horiz-adv-x="559" 
d="M280 540q59 0 100 -11t67 -32.5t37.5 -52.5t11.5 -70v-259q0 -31 3.5 -59t14.5 -56h-129q-10 25 -15 55q-30 -38 -72.5 -53t-84.5 -15t-75.5 12t-56 34t-34.5 51t-12 64q0 73 49.5 118.5t165.5 59.5l118 15v24q0 46 -18.5 64t-72.5 18q-50 0 -72 -17t-23 -59h-126
q2 86 62.5 127.5t161.5 41.5zM283 243q-63 -8 -90 -27t-27 -57q0 -30 18.5 -49.5t60.5 -19.5q25 0 47 8t39 22t27 34t10 44v57zM456 0q-27 -16 -44 -31.5t-26 -30t-12.5 -28t-3.5 -25.5q0 -21 13 -33.5t44 -12.5q20 0 36 4t28 9l24 -66q-49 -23 -107 -23q-65 0 -101.5 28
t-36.5 81q0 48 45 88.5t123 61.5z" />
    <glyph glyph-name="Cacute" unicode="&#x106;" horiz-adv-x="724" 
d="M375 717q44 0 88.5 -10t84 -33.5t72 -62t53.5 -95.5l-130 -36q-23 60 -63 91.5t-105 31.5q-91 0 -142.5 -66t-51.5 -185q0 -118 48.5 -186.5t146.5 -68.5q74 0 117.5 36t66.5 103l126 -41q-20 -54 -51.5 -93.5t-72.5 -66t-89.5 -39.5t-100.5 -13q-57 0 -115.5 19
t-106 62.5t-77 114t-29.5 172.5q0 98 28 167.5t74.5 113.5t106 64.5t122.5 20.5zM424 753h-104l95 142h167z" />
    <glyph glyph-name="cacute" unicode="&#x107;" horiz-adv-x="566" 
d="M301 540q87 0 146 -38t88 -103l-111 -45q-16 39 -45 60.5t-71 21.5q-61 0 -98 -43t-37 -128t36 -129.5t99 -44.5q27 0 47 7.5t34.5 21t24.5 30.5t18 37l111 -46q-30 -68 -90 -111t-151 -43q-62 0 -111 21t-83 57.5t-51.5 87t-17.5 110.5t18.5 111t52.5 88t82.5 57.5
t108.5 20.5zM345 593h-102l94 146h160z" />
    <glyph glyph-name="Ccircumflex" unicode="&#x108;" horiz-adv-x="724" 
d="M375 717q44 0 88.5 -10t84 -33.5t72 -62t53.5 -95.5l-130 -36q-23 60 -63 91.5t-105 31.5q-91 0 -142.5 -66t-51.5 -185q0 -118 48.5 -186.5t146.5 -68.5q74 0 117.5 36t66.5 103l126 -41q-20 -54 -51.5 -93.5t-72.5 -66t-89.5 -39.5t-100.5 -13q-57 0 -115.5 19
t-106 62.5t-77 114t-29.5 172.5q0 98 28 167.5t74.5 113.5t106 64.5t122.5 20.5zM578 753h-119l-82 67l-82 -67h-119l137 141h128z" />
    <glyph glyph-name="ccircumflex" unicode="&#x109;" horiz-adv-x="566" 
d="M301 540q87 0 146 -38t88 -103l-111 -45q-16 39 -45 60.5t-71 21.5q-61 0 -98 -43t-37 -128t36 -129.5t99 -44.5q27 0 47 7.5t34.5 21t24.5 30.5t18 37l111 -46q-30 -68 -90 -111t-151 -43q-62 0 -111 21t-83 57.5t-51.5 87t-17.5 110.5t18.5 111t52.5 88t82.5 57.5
t108.5 20.5zM505 593h-119l-82 74l-82 -74h-119l137 146h128z" />
    <glyph glyph-name="Cdotaccent" unicode="&#x10a;" horiz-adv-x="724" 
d="M375 717q44 0 88.5 -10t84 -33.5t72 -62t53.5 -95.5l-130 -36q-23 60 -63 91.5t-105 31.5q-91 0 -142.5 -66t-51.5 -185q0 -118 48.5 -186.5t146.5 -68.5q74 0 117.5 36t66.5 103l126 -41q-20 -54 -51.5 -93.5t-72.5 -66t-89.5 -39.5t-100.5 -13q-57 0 -115.5 19
t-106 62.5t-77 114t-29.5 172.5q0 98 28 167.5t74.5 113.5t106 64.5t122.5 20.5zM376 896q32 0 55.5 -22t23.5 -54q0 -15 -6.5 -29t-17 -24t-25 -16t-30.5 -6q-31 0 -54.5 22t-23.5 53q0 16 6.5 30t17 24t25 16t29.5 6z" />
    <glyph glyph-name="cdotaccent" unicode="&#x10b;" horiz-adv-x="566" 
d="M301 540q87 0 146 -38t88 -103l-111 -45q-16 39 -45 60.5t-71 21.5q-61 0 -98 -43t-37 -128t36 -129.5t99 -44.5q27 0 47 7.5t34.5 21t24.5 30.5t18 37l111 -46q-30 -68 -90 -111t-151 -43q-62 0 -111 21t-83 57.5t-51.5 87t-17.5 110.5t18.5 111t52.5 88t82.5 57.5
t108.5 20.5zM303 736q32 0 55.5 -22t23.5 -54q0 -15 -6.5 -29t-17 -24t-25 -16t-30.5 -6q-31 0 -54.5 22t-23.5 53q0 16 6.5 30t17 24t25 16t29.5 6z" />
    <glyph glyph-name="Ccaron" unicode="&#x10c;" horiz-adv-x="724" 
d="M375 717q44 0 88.5 -10t84 -33.5t72 -62t53.5 -95.5l-130 -36q-23 60 -63 91.5t-105 31.5q-91 0 -142.5 -66t-51.5 -185q0 -118 48.5 -186.5t146.5 -68.5q74 0 117.5 36t66.5 103l126 -41q-20 -54 -51.5 -93.5t-72.5 -66t-89.5 -39.5t-100.5 -13q-57 0 -115.5 19
t-106 62.5t-77 114t-29.5 172.5q0 98 28 167.5t74.5 113.5t106 64.5t122.5 20.5zM441 763h-128l-137 141h119l82 -67l82 67h119z" />
    <glyph glyph-name="ccaron" unicode="&#x10d;" horiz-adv-x="566" 
d="M301 540q87 0 146 -38t88 -103l-111 -45q-16 39 -45 60.5t-71 21.5q-61 0 -98 -43t-37 -128t36 -129.5t99 -44.5q27 0 47 7.5t34.5 21t24.5 30.5t18 37l111 -46q-30 -68 -90 -111t-151 -43q-62 0 -111 21t-83 57.5t-51.5 87t-17.5 110.5t18.5 111t52.5 88t82.5 57.5
t108.5 20.5zM368 603h-128l-137 146h119l82 -74l82 74h119z" />
    <glyph glyph-name="Dcaron" unicode="&#x10e;" horiz-adv-x="700" 
d="M295 700q73 0 138.5 -19t115 -60.5t78.5 -106t29 -154.5q0 -104 -30 -173t-77.5 -110.5t-107 -59t-117.5 -17.5h-250v700h221zM206 587v-474h117q34 0 69 10t63 37t45.5 75t17.5 124q0 50 -12 92t-38.5 72t-68 47t-100.5 17h-93zM359 763h-128l-137 141h119l82 -67l82 67
h119z" />
    <glyph glyph-name="dcaron" unicode="&#x10f;" horiz-adv-x="712" 
d="M549 0h-126v59q-29 -39 -70.5 -55.5t-82.5 -16.5q-53 0 -95.5 20.5t-72.5 57t-46.5 87t-16.5 111.5t17.5 112t48.5 87.5t74.5 57t94.5 20.5q50 0 85.5 -16.5t61.5 -46.5v223h128v-700zM301 436q-61 0 -95 -45t-34 -127q0 -85 33 -129t96 -44q57 0 91.5 42.5t34.5 130.5
q0 86 -36.5 129t-89.5 43zM657 588h-79l37 150h130z" />
    <glyph glyph-name="Dcroat" unicode="&#x110;" horiz-adv-x="724" 
d="M319 700q73 0 138.5 -19t115 -60.5t78.5 -106t29 -154.5q0 -104 -30 -173t-77.5 -110.5t-107 -59t-117.5 -17.5h-250v321h-75v89h75v290h221zM347 113q34 0 69 10t63 37t45.5 75t17.5 124q0 50 -12 92t-38.5 72t-68 47t-100.5 17h-93v-177h167v-89h-167v-208h117z" />
    <glyph glyph-name="dcroat" unicode="&#x111;" horiz-adv-x="628" 
d="M623 575h-74v-575h-126v57q-29 -38 -69.5 -54t-81.5 -16q-53 0 -96 20.5t-73.5 57t-47 87t-16.5 110.5q0 61 17 111.5t47.5 86.5t73 56t93.5 20q56 0 93.5 -18t62.5 -50v107h-155v80h155v45h123v-45h74v-80zM301 91q57 0 91.5 42t34.5 130q0 43 -9.5 74.5t-26.5 52.5
t-40 31.5t-50 10.5q-61 0 -95 -44t-34 -125q0 -84 33 -128t96 -44z" />
    <glyph glyph-name="Emacron" unicode="&#x112;" horiz-adv-x="583" 
d="M529 588h-322v-176h301v-110h-301v-190h331v-112h-464v700h455v-112zM474 778h-345v88h345v-88z" />
    <glyph glyph-name="emacron" unicode="&#x113;" horiz-adv-x="579" 
d="M294 540q59 0 105.5 -21t78.5 -58t48.5 -89t16.5 -113v-26h-372q3 -72 38.5 -107.5t98.5 -35.5q48 0 78.5 20.5t48.5 52.5l104 -53q-37 -59 -96 -91t-141 -32q-63 0 -111.5 21t-82.5 58t-51.5 87.5t-17.5 109.5q0 60 16.5 111t49 88t80 57.5t109.5 20.5zM293 443
q-52 0 -84.5 -31t-37.5 -92h240q-5 63 -35.5 93t-82.5 30zM466 618h-345v88h345v-88z" />
    <glyph glyph-name="Ebreve" unicode="&#x114;" horiz-adv-x="583" 
d="M529 588h-322v-176h301v-110h-301v-190h331v-112h-464v700h455v-112zM468 898q-9 -69 -52 -107.5t-115 -38.5t-115 38.5t-53 107.5h75q7 -33 34 -45.5t59 -13.5q32 0 58.5 13t34.5 46h74z" />
    <glyph glyph-name="ebreve" unicode="&#x115;" horiz-adv-x="579" 
d="M294 540q59 0 105.5 -21t78.5 -58t48.5 -89t16.5 -113v-26h-372q3 -72 38.5 -107.5t98.5 -35.5q48 0 78.5 20.5t48.5 52.5l104 -53q-37 -59 -96 -91t-141 -32q-63 0 -111.5 21t-82.5 58t-51.5 87.5t-17.5 109.5q0 60 16.5 111t49 88t80 57.5t109.5 20.5zM293 443
q-52 0 -84.5 -31t-37.5 -92h240q-5 63 -35.5 93t-82.5 30zM460 740q-9 -69 -52 -109.5t-115 -40.5t-115 40.5t-53 109.5h75q7 -33 34 -48t59 -15t58.5 15t34.5 48h74z" />
    <glyph glyph-name="Edotaccent" unicode="&#x116;" horiz-adv-x="583" 
d="M529 588h-322v-176h301v-110h-301v-190h331v-112h-464v700h455v-112zM300 896q32 0 55.5 -22t23.5 -54q0 -15 -6.5 -29t-17 -24t-25 -16t-30.5 -6q-31 0 -54.5 22t-23.5 53q0 16 6.5 30t17 24t25 16t29.5 6z" />
    <glyph glyph-name="edotaccent" unicode="&#x117;" horiz-adv-x="579" 
d="M294 540q59 0 105.5 -21t78.5 -58t48.5 -89t16.5 -113v-26h-372q3 -72 38.5 -107.5t98.5 -35.5q48 0 78.5 20.5t48.5 52.5l104 -53q-37 -59 -96 -91t-141 -32q-63 0 -111.5 21t-82.5 58t-51.5 87.5t-17.5 109.5q0 60 16.5 111t49 88t80 57.5t109.5 20.5zM293 443
q-52 0 -84.5 -31t-37.5 -92h240q-5 63 -35.5 93t-82.5 30zM292 736q32 0 55.5 -22t23.5 -54q0 -15 -6.5 -29t-17 -24t-25 -16t-30.5 -6q-31 0 -54.5 22t-23.5 53q0 16 6.5 30t17 24t25 16t29.5 6z" />
    <glyph glyph-name="Eogonek" unicode="&#x118;" horiz-adv-x="583" 
d="M529 588h-322v-176h301v-110h-301v-190h331v-112h-464v700h455v-112zM495 0q-27 -16 -44 -31.5t-26 -30t-12.5 -28t-3.5 -25.5q0 -21 13 -33.5t44 -12.5q20 0 36 4t28 9l24 -66q-49 -23 -107 -23q-65 0 -101.5 28t-36.5 81q0 48 45 88.5t123 61.5z" />
    <glyph glyph-name="eogonek" unicode="&#x119;" horiz-adv-x="579" 
d="M294 540q59 0 105.5 -21t78.5 -58t48.5 -89t16.5 -113v-26h-372q3 -72 38.5 -107.5t98.5 -35.5q48 0 78.5 20.5t48.5 52.5l104 -53q-37 -59 -96 -91t-141 -32q-63 0 -111.5 21t-82.5 58t-51.5 87.5t-17.5 109.5q0 60 16.5 111t49 88t80 57.5t109.5 20.5zM293 443
q-52 0 -84.5 -31t-37.5 -92h240q-5 63 -35.5 93t-82.5 30zM394 0q-27 -16 -44 -31.5t-26 -30t-12.5 -28t-3.5 -25.5q0 -21 13 -33.5t44 -12.5q20 0 36 4t28 9l24 -66q-49 -23 -107 -23q-65 0 -101.5 28t-36.5 81q0 48 45 88.5t123 61.5z" />
    <glyph glyph-name="Ecaron" unicode="&#x11a;" horiz-adv-x="583" 
d="M529 588h-322v-176h301v-110h-301v-190h331v-112h-464v700h455v-112zM365 763h-128l-137 141h119l82 -67l82 67h119z" />
    <glyph glyph-name="ecaron" unicode="&#x11b;" horiz-adv-x="579" 
d="M294 540q59 0 105.5 -21t78.5 -58t48.5 -89t16.5 -113v-26h-372q3 -72 38.5 -107.5t98.5 -35.5q48 0 78.5 20.5t48.5 52.5l104 -53q-37 -59 -96 -91t-141 -32q-63 0 -111.5 21t-82.5 58t-51.5 87.5t-17.5 109.5q0 60 16.5 111t49 88t80 57.5t109.5 20.5zM293 443
q-52 0 -84.5 -31t-37.5 -92h240q-5 63 -35.5 93t-82.5 30zM357 603h-128l-137 146h119l82 -74l82 74h119z" />
    <glyph glyph-name="Gcircumflex" unicode="&#x11c;" horiz-adv-x="737" 
d="M375 717q46 0 90 -10.5t82.5 -33t70 -58t52.5 -85.5l-120 -44q-23 57 -65.5 88t-110.5 31q-96 0 -144.5 -68.5t-48.5 -188.5q0 -118 47.5 -185.5t146.5 -67.5q37 0 69 10t55 29t36 47t13 64v31h-160v104h292v-380h-124v65q-72 -82 -198 -82q-56 0 -112 19t-101 62
t-73 112.5t-28 170.5q0 98 28 168t74 115t105.5 66t123.5 21zM572 753h-119l-82 67l-82 -67h-119l137 141h128z" />
    <glyph glyph-name="gcircumflex" unicode="&#x11d;" horiz-adv-x="571" 
d="M553 462q-27 0 -43.5 -1.5t-32.5 -8.5q26 -38 26 -89q0 -37 -15 -68t-43.5 -53.5t-70.5 -35t-96 -12.5t-102 17q-15 -17 -15 -33q0 -22 14.5 -32.5t52.5 -10.5h97q57 0 98 -12t67.5 -33t38.5 -49.5t12 -60.5q0 -75 -66.5 -120t-194.5 -45q-70 0 -117.5 11t-77 30
t-42.5 44.5t-13 54.5q0 35 19.5 61t55.5 44q-26 17 -38 39t-12 50q0 25 14.5 48.5t43.5 43.5q-31 21 -49 52.5t-18 71.5q0 36 14 67.5t42.5 55.5t70.5 38t99 14q43 0 77.5 -8t60.5 -22q23 29 58.5 44.5t84.5 15.5v-108zM276 451q-51 0 -77 -22.5t-26 -61.5q0 -37 25.5 -59.5
t76.5 -22.5t77.5 22t26.5 60q0 39 -26 61.5t-77 22.5zM181 34q-23 -15 -31 -29t-8 -31q0 -31 29 -49t107 -18q70 0 102.5 18t32.5 48q0 32 -25.5 46.5t-92.5 14.5h-114zM477 593h-119l-82 74l-82 -74h-119l137 146h128z" />
    <glyph glyph-name="Gbreve" unicode="&#x11e;" horiz-adv-x="737" 
d="M375 717q46 0 90 -10.5t82.5 -33t70 -58t52.5 -85.5l-120 -44q-23 57 -65.5 88t-110.5 31q-96 0 -144.5 -68.5t-48.5 -188.5q0 -118 47.5 -185.5t146.5 -67.5q37 0 69 10t55 29t36 47t13 64v31h-160v104h292v-380h-124v65q-72 -82 -198 -82q-56 0 -112 19t-101 62
t-73 112.5t-28 170.5q0 98 28 168t74 115t105.5 66t123.5 21zM538 898q-9 -69 -52 -107.5t-115 -38.5t-115 38.5t-53 107.5h75q7 -33 34 -45.5t59 -13.5q32 0 58.5 13t34.5 46h74z" />
    <glyph glyph-name="gbreve" unicode="&#x11f;" horiz-adv-x="571" 
d="M553 462q-27 0 -43.5 -1.5t-32.5 -8.5q26 -38 26 -89q0 -37 -15 -68t-43.5 -53.5t-70.5 -35t-96 -12.5t-102 17q-15 -17 -15 -33q0 -22 14.5 -32.5t52.5 -10.5h97q57 0 98 -12t67.5 -33t38.5 -49.5t12 -60.5q0 -75 -66.5 -120t-194.5 -45q-70 0 -117.5 11t-77 30
t-42.5 44.5t-13 54.5q0 35 19.5 61t55.5 44q-26 17 -38 39t-12 50q0 25 14.5 48.5t43.5 43.5q-31 21 -49 52.5t-18 71.5q0 36 14 67.5t42.5 55.5t70.5 38t99 14q43 0 77.5 -8t60.5 -22q23 29 58.5 44.5t84.5 15.5v-108zM276 451q-51 0 -77 -22.5t-26 -61.5q0 -37 25.5 -59.5
t76.5 -22.5t77.5 22t26.5 60q0 39 -26 61.5t-77 22.5zM181 34q-23 -15 -31 -29t-8 -31q0 -31 29 -49t107 -18q70 0 102.5 18t32.5 48q0 32 -25.5 46.5t-92.5 14.5h-114zM443 740q-9 -69 -52 -109.5t-115 -40.5t-115 40.5t-53 109.5h75q7 -33 34 -48t59 -15t58.5 15t34.5 48
h74z" />
    <glyph glyph-name="Gdotaccent" unicode="&#x120;" horiz-adv-x="737" 
d="M375 717q46 0 90 -10.5t82.5 -33t70 -58t52.5 -85.5l-120 -44q-23 57 -65.5 88t-110.5 31q-96 0 -144.5 -68.5t-48.5 -188.5q0 -118 47.5 -185.5t146.5 -67.5q37 0 69 10t55 29t36 47t13 64v31h-160v104h292v-380h-124v65q-72 -82 -198 -82q-56 0 -112 19t-101 62
t-73 112.5t-28 170.5q0 98 28 168t74 115t105.5 66t123.5 21zM370 896q32 0 55.5 -22t23.5 -54q0 -15 -6.5 -29t-17 -24t-25 -16t-30.5 -6q-31 0 -54.5 22t-23.5 53q0 16 6.5 30t17 24t25 16t29.5 6z" />
    <glyph glyph-name="gdotaccent" unicode="&#x121;" horiz-adv-x="571" 
d="M553 462q-27 0 -43.5 -1.5t-32.5 -8.5q26 -38 26 -89q0 -37 -15 -68t-43.5 -53.5t-70.5 -35t-96 -12.5t-102 17q-15 -17 -15 -33q0 -22 14.5 -32.5t52.5 -10.5h97q57 0 98 -12t67.5 -33t38.5 -49.5t12 -60.5q0 -75 -66.5 -120t-194.5 -45q-70 0 -117.5 11t-77 30
t-42.5 44.5t-13 54.5q0 35 19.5 61t55.5 44q-26 17 -38 39t-12 50q0 25 14.5 48.5t43.5 43.5q-31 21 -49 52.5t-18 71.5q0 36 14 67.5t42.5 55.5t70.5 38t99 14q43 0 77.5 -8t60.5 -22q23 29 58.5 44.5t84.5 15.5v-108zM276 451q-51 0 -77 -22.5t-26 -61.5q0 -37 25.5 -59.5
t76.5 -22.5t77.5 22t26.5 60q0 39 -26 61.5t-77 22.5zM181 34q-23 -15 -31 -29t-8 -31q0 -31 29 -49t107 -18q70 0 102.5 18t32.5 48q0 32 -25.5 46.5t-92.5 14.5h-114zM275 736q32 0 55.5 -22t23.5 -54q0 -15 -6.5 -29t-17 -24t-25 -16t-30.5 -6q-31 0 -54.5 22t-23.5 53
q0 16 6.5 30t17 24t25 16t29.5 6z" />
    <glyph glyph-name="Gcommaaccent" unicode="&#x122;" horiz-adv-x="737" 
d="M375 717q46 0 90 -10.5t82.5 -33t70 -58t52.5 -85.5l-120 -44q-23 57 -65.5 88t-110.5 31q-96 0 -144.5 -68.5t-48.5 -188.5q0 -118 47.5 -185.5t146.5 -67.5q37 0 69 10t55 29t36 47t13 64v31h-160v104h292v-380h-124v65q-72 -82 -198 -82q-56 0 -112 19t-101 62
t-73 112.5t-28 170.5q0 98 28 168t74 115t105.5 66t123.5 21zM375 -63q31 0 49.5 -20t18.5 -49q0 -43 -23.5 -89.5t-58.5 -88.5l-57 22q15 26 23.5 49t12.5 54q-19 12 -26.5 26.5t-7.5 31.5q0 27 20 45.5t49 18.5z" />
    <glyph glyph-name="gcommaaccent" unicode="&#x123;" horiz-adv-x="571" 
d="M553 462q-27 0 -43.5 -1.5t-32.5 -8.5q26 -38 26 -89q0 -37 -15 -68t-43.5 -53.5t-70.5 -35t-96 -12.5t-102 17q-15 -17 -15 -33q0 -22 14.5 -32.5t52.5 -10.5h97q57 0 98 -12t67.5 -33t38.5 -49.5t12 -60.5q0 -75 -66.5 -120t-194.5 -45q-70 0 -117.5 11t-77 30
t-42.5 44.5t-13 54.5q0 35 19.5 61t55.5 44q-26 17 -38 39t-12 50q0 25 14.5 48.5t43.5 43.5q-31 21 -49 52.5t-18 71.5q0 36 14 67.5t42.5 55.5t70.5 38t99 14q43 0 77.5 -8t60.5 -22q23 29 58.5 44.5t84.5 15.5v-108zM276 451q-51 0 -77 -22.5t-26 -61.5q0 -37 25.5 -59.5
t76.5 -22.5t77.5 22t26.5 60q0 39 -26 61.5t-77 22.5zM181 34q-23 -15 -31 -29t-8 -31q0 -31 29 -49t107 -18q70 0 102.5 18t32.5 48q0 32 -25.5 46.5t-92.5 14.5h-114zM275.994 589.996q-30.998 0 -49.4971 19.999t-18.499 48.9971q0 42.9971 23.499 89.4941
q23.498 46.4971 58.4961 88.4951l56.9961 -21.999q-14.999 -25.998 -23.498 -48.9971q-8.5 -22.999 -12.499 -53.9971q18.998 -11.999 26.498 -26.498t7.5 -31.498q0 -26.998 -19.999 -45.4971t-48.9971 -18.499z" />
    <glyph glyph-name="Hcircumflex" unicode="&#x124;" horiz-adv-x="714" 
d="M640 0h-132v307h-301v-307h-133v700h133v-281h301v281h132v-700zM558 753h-119l-82 67l-82 -67h-119l137 141h128z" />
    <glyph glyph-name="hcircumflex" unicode="&#x125;" horiz-adv-x="593" 
d="M195 463q30 39 69 58t86 19q87 0 133 -53t46 -148v-339h-128v306q0 57 -18 91.5t-71 34.5q-26 0 -47 -10t-37 -28.5t-24.5 -44t-8.5 -56.5v-293h-128v700h128v-237zM500 753h-119l-82 67l-82 -67h-119l137 141h128z" />
    <glyph glyph-name="Hbar" unicode="&#x126;" horiz-adv-x="748" 
d="M720 526h-65v-526h-132v307h-301v-307h-133v526h-63v82h63v92h133v-92h301v92h132v-92h65v-82zM523 526h-301v-107h301v107z" />
    <glyph glyph-name="hbar" unicode="&#x127;" horiz-adv-x="601" 
d="M359 536q87 0 133 -53t46 -148v-335h-128v280q0 73 -18 110.5t-71 37.5q-26 0 -47 -10t-37 -28.5t-24.5 -44t-8.5 -56.5v-289h-128v575h-74v80h74v45h123v-45h155v-80h-155v-120q30 42 71 61.5t89 19.5z" />
    <glyph glyph-name="Itilde" unicode="&#x128;" horiz-adv-x="386" 
d="M350 591h-91v-482h91v-109h-315v109h91v482h-91v109h315v-109zM131 889q27 0 46.5 -8t34 -17t26 -17t22.5 -8q14 0 24.5 8t19.5 29h71q-7 -54 -39 -89t-82 -35q-27 0 -46.5 8t-34.5 17t-26 17t-22 8q-15 0 -25.5 -8t-19.5 -29h-70q8 54 39 89t82 35z" />
    <glyph glyph-name="itilde" unicode="&#x129;" horiz-adv-x="263" 
d="M195 0h-128v527h128v-527zM70 729q27 0 46.5 -8t34 -17t26 -17t22.5 -8q14 0 24.5 8t19.5 29h71q-7 -54 -39 -89t-82 -35q-27 0 -46.5 8t-34.5 17t-26 17t-22 8q-15 0 -25.5 -8t-19.5 -29h-70q8 54 39 89t82 35z" />
    <glyph glyph-name="Imacron" unicode="&#x12a;" horiz-adv-x="386" 
d="M350 591h-91v-482h91v-109h-315v109h91v482h-91v109h315v-109zM366 778h-345v88h345v-88z" />
    <glyph glyph-name="imacron" unicode="&#x12b;" horiz-adv-x="263" 
d="M195 0h-128v527h128v-527zM305 618h-345v88h345v-88z" />
    <glyph glyph-name="Ibreve" unicode="&#x12c;" horiz-adv-x="386" 
d="M350 591h-91v-482h91v-109h-315v109h91v482h-91v109h315v-109zM360 898q-9 -69 -52 -107.5t-115 -38.5t-115 38.5t-53 107.5h75q7 -33 34 -45.5t59 -13.5q32 0 58.5 13t34.5 46h74z" />
    <glyph glyph-name="ibreve" unicode="&#x12d;" horiz-adv-x="263" 
d="M195 0h-128v527h128v-527zM299 740q-9 -69 -52 -109.5t-115 -40.5t-115 40.5t-53 109.5h75q7 -33 34 -48t59 -15t58.5 15t34.5 48h74z" />
    <glyph glyph-name="Iogonek" unicode="&#x12e;" horiz-adv-x="386" 
d="M350 591h-91v-482h91v-109h-315v109h91v482h-91v109h315v-109zM231 0q-27 -16 -44 -31.5t-26 -30t-12.5 -28t-3.5 -25.5q0 -21 13 -33.5t44 -12.5q20 0 36 4t28 9l24 -66q-49 -23 -107 -23q-65 0 -101.5 28t-36.5 81q0 48 45 88.5t123 61.5z" />
    <glyph glyph-name="iogonek" unicode="&#x12f;" horiz-adv-x="263" 
d="M195 0h-128v527h128v-527zM131 736q32 0 55.5 -22t23.5 -54q0 -15 -6.5 -29t-17 -24t-25 -16t-30.5 -6q-31 0 -54.5 22t-23.5 53q0 16 6.5 30t17 24t25 16t29.5 6zM195 0q-27 -16 -44 -31.5t-26 -30t-12.5 -28t-3.5 -25.5q0 -21 13 -33.5t44 -12.5q20 0 36 4t28 9l24 -66
q-49 -23 -107 -23q-65 0 -101.5 28t-36.5 81q0 48 45 88.5t123 61.5z" />
    <glyph glyph-name="Idotaccent" unicode="&#x130;" horiz-adv-x="386" 
d="M350 591h-91v-482h91v-109h-315v109h91v482h-91v109h315v-109zM192 896q32 0 55.5 -22t23.5 -54q0 -15 -6.5 -29t-17 -24t-25 -16t-30.5 -6q-31 0 -54.5 22t-23.5 53q0 16 6.5 30t17 24t25 16t29.5 6z" />
    <glyph glyph-name="dotlessi" unicode="&#x131;" horiz-adv-x="263" 
d="M195 0h-128v527h128v-527z" />
    <glyph glyph-name="IJ" unicode="&#x132;" horiz-adv-x="804" 
d="M350 591h-91v-482h91v-109h-315v109h91v482h-91v109h315v-109zM739 215q0 -50 -10.5 -90.5t-35 -69.5t-66 -45t-103.5 -16q-28 0 -51.5 1.5t-49.5 4.5v113q14 -1 27.5 -1.5t27.5 -0.5q38 0 63 5.5t39.5 19t20 35.5t5.5 55v474h133v-485z" />
    <glyph glyph-name="ij" unicode="&#x133;" horiz-adv-x="542" 
d="M474 -19q0 -45 -13.5 -76.5t-35.5 -51.5t-50.5 -29t-58.5 -9q-41 0 -68 7v96q9 -1 13 -1h8q22 0 37 4t24 15t12.5 30.5t3.5 51.5v509h128v-546zM410 736q32 0 55.5 -22t23.5 -54q0 -15 -6.5 -29t-17 -24t-25 -16t-30.5 -6q-31 0 -54.5 22t-23.5 53q0 16 6.5 30t17 24
t25 16t29.5 6zM195 0h-128v527h128v-527zM131 736q32 0 55.5 -22t23.5 -54q0 -15 -6.5 -29t-17 -24t-25 -16t-30.5 -6q-31 0 -54.5 22t-23.5 53q0 16 6.5 30t17 24t25 16t29.5 6z" />
    <glyph glyph-name="Jcircumflex" unicode="&#x134;" horiz-adv-x="402" 
d="M337 215q0 -50 -10.5 -90.5t-35 -69.5t-66 -45t-103.5 -16q-28 0 -51.5 1.5t-49.5 4.5v113q14 -1 27.5 -1.5t27.5 -0.5q38 0 63 5.5t39.5 19t20 35.5t5.5 55v474h133v-485zM471 753h-119l-82 67l-82 -67h-119l137 141h128z" />
    <glyph glyph-name="jcircumflex" unicode="&#x135;" horiz-adv-x="263" 
d="M195 -19q0 -45 -13.5 -76.5t-35.5 -51.5t-50.5 -29t-58.5 -9q-41 0 -68 7v96q9 -1 13 -1h8q22 0 37 4t24 15t12.5 30.5t3.5 51.5v509h128v-546zM333 593h-119l-82 74l-82 -74h-119l137 146h128z" />
    <glyph glyph-name="Kcommaaccent" unicode="&#x136;" horiz-adv-x="671" 
d="M302 319l-95 -109v-210h-133v700h133v-323l274 323h158l-247 -286l277 -414h-157zM334 -63q31 0 49.5 -20t18.5 -49q0 -43 -23.5 -89.5t-58.5 -88.5l-57 22q15 26 23.5 49t12.5 54q-19 12 -26.5 26.5t-7.5 31.5q0 27 20 45.5t49 18.5z" />
    <glyph glyph-name="kcommaaccent" unicode="&#x137;" horiz-adv-x="574" 
d="M195 312l215 215h153l-206 -201l212 -326h-149l-150 240l-75 -73v-167h-128v700h128v-388zM286 -63q31 0 49.5 -20t18.5 -49q0 -43 -23.5 -89.5t-58.5 -88.5l-57 22q15 26 23.5 49t12.5 54q-19 12 -26.5 26.5t-7.5 31.5q0 27 20 45.5t49 18.5z" />
    <glyph glyph-name="kgreenlandic" unicode="&#x138;" horiz-adv-x="574" 
d="M358 323l211 -323h-148l-150 239l-76 -74v-165h-128v527h128v-217l213 217h155z" />
    <glyph glyph-name="Lacute" unicode="&#x139;" horiz-adv-x="535" 
d="M207 116h307v-116h-440v700h133v-584zM188 753h-104l95 142h167z" />
    <glyph glyph-name="lacute" unicode="&#x13a;" horiz-adv-x="283" 
d="M191 154q0 -17 1 -28t5.5 -17.5t13.5 -9t25 -2.5h9q4 0 13 1v-97q-29 -8 -67 -8q-61 0 -94.5 34.5t-33.5 106.5v566h128v-546zM173 753h-104l95 142h167z" />
    <glyph glyph-name="Lcommaaccent" unicode="&#x13b;" horiz-adv-x="535" 
d="M207 116h307v-116h-440v700h133v-584zM294 -63q31 0 49.5 -20t18.5 -49q0 -43 -23.5 -89.5t-58.5 -88.5l-57 22q15 26 23.5 49t12.5 54q-19 12 -26.5 26.5t-7.5 31.5q0 27 20 45.5t49 18.5z" />
    <glyph glyph-name="lcommaaccent" unicode="&#x13c;" horiz-adv-x="283" 
d="M191 154q0 -17 1 -28t5.5 -17.5t13.5 -9t25 -2.5h9q4 0 13 1v-97q-29 -8 -67 -8q-61 0 -94.5 34.5t-33.5 106.5v566h128v-546zM165 -63q31 0 49.5 -20t18.5 -49q0 -43 -23.5 -89.5t-58.5 -88.5l-57 22q15 26 23.5 49t12.5 54q-19 12 -26.5 26.5t-7.5 31.5q0 27 20 45.5
t49 18.5z" />
    <glyph glyph-name="Lcaron" unicode="&#x13d;" horiz-adv-x="535" 
d="M207 116h307v-116h-440v700h133v-584zM327 588h-79l37 150h130z" />
    <glyph glyph-name="lcaron" unicode="&#x13e;" horiz-adv-x="345" 
d="M191 154q0 -17 1 -28t5.5 -17.5t13.5 -9t25 -2.5h9q4 0 13 1v-97q-29 -8 -67 -8q-61 0 -94.5 34.5t-33.5 106.5v566h128v-546zM290 588h-79l37 150h130z" />
    <glyph glyph-name="Ldot" unicode="&#x13f;" horiz-adv-x="535" 
d="M207 116h307v-116h-440v700h133v-584zM413 441q32 0 55.5 -22t23.5 -54q0 -15 -6.5 -29t-17 -24t-25 -16t-30.5 -6q-31 0 -54.5 22t-23.5 53q0 16 6.5 30t17 24t25 16t29.5 6z" />
    <glyph glyph-name="ldot" unicode="&#x140;" horiz-adv-x="338" 
d="M191 154q0 -17 1 -28t5.5 -17.5t13.5 -9t25 -2.5h9q4 0 13 1v-97q-29 -8 -67 -8q-61 0 -94.5 34.5t-33.5 106.5v566h128v-546zM295.602 407.791q25.5996 0 44.3994 -17.5996t18.7998 -43.1992q0 -12 -5.2002 -23.2002q-5.2002 -11.1992 -13.5996 -19.1992
q-8.40039 -8 -20 -12.7998t-24.3994 -4.7998q-24.7998 0 -43.5996 17.5996t-18.7998 42.3994q0 12.7998 5.2002 23.999q5.2002 11.2002 13.5996 19.2002q8.40039 8 20 12.7998t23.5996 4.7998z" />
    <glyph glyph-name="Lslash" unicode="&#x141;" horiz-adv-x="564" 
d="M538 116v-116h-440v266l-75 -40v96l75 40v338h133v-267l169 91v-96l-169 -91v-221h307z" />
    <glyph glyph-name="lslash" unicode="&#x142;" horiz-adv-x="294" 
d="M201 330v-176q0 -17 1 -28t5.5 -17.5t13.5 -9t25 -2.5h9q4 0 13 1v-97q-29 -8 -67 -8q-61 0 -94.5 34.5t-33.5 106.5v125l-56 -31v93l56 31v348h128v-277l77 42v-93z" />
    <glyph glyph-name="Nacute" unicode="&#x143;" horiz-adv-x="708" 
d="M634 0h-150l-288 488v-488h-122v700h147l290 -501v501h123v-700zM401 753h-104l95 142h167z" />
    <glyph glyph-name="nacute" unicode="&#x144;" horiz-adv-x="593" 
d="M351 540q87 0 132.5 -52.5t45.5 -148.5v-339h-128v299q0 62 -18 97.5t-71 35.5q-26 0 -47 -10t-37 -28.5t-24.5 -44t-8.5 -56.5v-293h-128v527h125v-68q30 43 70.5 62t88.5 19zM359 593h-102l94 146h160z" />
    <glyph glyph-name="Ncommaaccent" unicode="&#x145;" horiz-adv-x="708" 
d="M634 0h-150l-288 488v-488h-122v700h147l290 -501v501h123v-700zM353 -63q31 0 49.5 -20t18.5 -49q0 -43 -23.5 -89.5t-58.5 -88.5l-57 22q15 26 23.5 49t12.5 54q-19 12 -26.5 26.5t-7.5 31.5q0 27 20 45.5t49 18.5z" />
    <glyph glyph-name="ncommaaccent" unicode="&#x146;" horiz-adv-x="593" 
d="M351 540q87 0 132.5 -52.5t45.5 -148.5v-339h-128v299q0 62 -18 97.5t-71 35.5q-26 0 -47 -10t-37 -28.5t-24.5 -44t-8.5 -56.5v-293h-128v527h125v-68q30 43 70.5 62t88.5 19zM296 -63q31 0 49.5 -20t18.5 -49q0 -43 -23.5 -89.5t-58.5 -88.5l-57 22q15 26 23.5 49
t12.5 54q-19 12 -26.5 26.5t-7.5 31.5q0 27 20 45.5t49 18.5z" />
    <glyph glyph-name="Ncaron" unicode="&#x147;" horiz-adv-x="708" 
d="M634 0h-150l-288 488v-488h-122v700h147l290 -501v501h123v-700zM418 763h-128l-137 141h119l82 -67l82 67h119z" />
    <glyph glyph-name="ncaron" unicode="&#x148;" horiz-adv-x="593" 
d="M351 540q87 0 132.5 -52.5t45.5 -148.5v-339h-128v299q0 62 -18 97.5t-71 35.5q-26 0 -47 -10t-37 -28.5t-24.5 -44t-8.5 -56.5v-293h-128v527h125v-68q30 43 70.5 62t88.5 19zM382 603h-128l-137 146h119l82 -74l82 74h119z" />
    <glyph glyph-name="napostrophe" unicode="&#x149;" horiz-adv-x="883" 
d="M642 540q87 0 132.5 -52.5t45.5 -148.5v-339h-128v299q0 62 -18 97.5t-71 35.5q-26 0 -47 -10t-37 -28.5t-24.5 -44t-8.5 -56.5v-293h-128v527h125v-68q30 43 70.5 62t88.5 19zM133.092 757.468q36.1768 0 59.502 -24.2764q23.3242 -24.2764 23.3242 -60.4531
q0 -59.0264 -29.0371 -118.527q-29.0361 -59.502 -77.5898 -109.959l-63.7852 33.3203q20.9443 33.3213 31.416 63.3096q10.4727 29.9893 14.2812 70.9268q-19.9932 13.3281 -29.9893 29.0361q-9.99609 15.709 -9.99609 39.5088q0 31.417 23.3242 54.2656
q23.3252 22.8486 58.5498 22.8486z" />
    <glyph glyph-name="Eng" unicode="&#x14a;" horiz-adv-x="708" 
d="M634 700v-700h-1q0 -88 -50 -134t-158 -46q-29 0 -52.5 1.5t-49.5 4.5v95q15 -1 29.5 -1.5t29.5 -0.5q40 0 64.5 3t38.5 11.5t19 24.5t6 42h-26l-288 488v-488h-122v700h147l290 -501v501h123z" />
    <glyph glyph-name="eng" unicode="&#x14b;" horiz-adv-x="593" 
d="M351 540q87 0 132.5 -52.5t45.5 -148.5v-362q0 -43 -13.5 -74t-35.5 -50.5t-50.5 -28.5t-58.5 -9q-41 0 -68 7v96q9 -1 12 -1h8q22 0 37 4t24 15t13 30.5t4 51.5v281q0 62 -18 97.5t-71 35.5q-26 0 -47 -10t-37 -28.5t-24.5 -44t-8.5 -56.5v-293h-128v527h125v-68
q30 43 70.5 62t88.5 19z" />
    <glyph glyph-name="Omacron" unicode="&#x14c;" horiz-adv-x="765" 
d="M382 717q58 0 118.5 -18.5t109.5 -61.5t80 -113.5t31 -174.5q0 -97 -29 -166.5t-76.5 -113.5t-108.5 -65t-125 -21q-58 0 -118 19t-109 62t-80 113.5t-31 173.5q0 98 29 167.5t76.5 113.5t108 64.5t124.5 20.5zM382 604q-45 0 -82.5 -17t-63.5 -49.5t-40.5 -79.5
t-14.5 -106q0 -118 51 -187t150 -69q44 0 81 17t63.5 49t41.5 79t15 107q0 58 -13 105.5t-38 81t-63 51.5t-87 18zM555 778h-345v88h345v-88z" />
    <glyph glyph-name="omacron" unicode="&#x14d;" horiz-adv-x="614" 
d="M307 540q61 0 111 -21.5t84.5 -58.5t53.5 -88t19 -109q0 -61 -18.5 -112t-53 -87.5t-84 -56.5t-112.5 -20t-113 21t-84.5 57.5t-52.5 87t-18 110.5t18.5 111t53 88t84.5 57.5t112 20.5zM307 436q-61 0 -97.5 -43t-36.5 -128t35.5 -129.5t98.5 -44.5t98.5 44.5t35.5 129.5
t-36.5 128t-97.5 43zM480 618h-345v88h345v-88z" />
    <glyph glyph-name="Obreve" unicode="&#x14e;" horiz-adv-x="765" 
d="M382 717q58 0 118.5 -18.5t109.5 -61.5t80 -113.5t31 -174.5q0 -97 -29 -166.5t-76.5 -113.5t-108.5 -65t-125 -21q-58 0 -118 19t-109 62t-80 113.5t-31 173.5q0 98 29 167.5t76.5 113.5t108 64.5t124.5 20.5zM382 604q-45 0 -82.5 -17t-63.5 -49.5t-40.5 -79.5
t-14.5 -106q0 -118 51 -187t150 -69q44 0 81 17t63.5 49t41.5 79t15 107q0 58 -13 105.5t-38 81t-63 51.5t-87 18zM549 898q-9 -69 -52 -107.5t-115 -38.5t-115 38.5t-53 107.5h75q7 -33 34 -45.5t59 -13.5q32 0 58.5 13t34.5 46h74z" />
    <glyph glyph-name="obreve" unicode="&#x14f;" horiz-adv-x="614" 
d="M307 540q61 0 111 -21.5t84.5 -58.5t53.5 -88t19 -109q0 -61 -18.5 -112t-53 -87.5t-84 -56.5t-112.5 -20t-113 21t-84.5 57.5t-52.5 87t-18 110.5t18.5 111t53 88t84.5 57.5t112 20.5zM307 436q-61 0 -97.5 -43t-36.5 -128t35.5 -129.5t98.5 -44.5t98.5 44.5t35.5 129.5
t-36.5 128t-97.5 43zM474 740q-9 -69 -52 -109.5t-115 -40.5t-115 40.5t-53 109.5h75q7 -33 34 -48t59 -15t58.5 15t34.5 48h74z" />
    <glyph glyph-name="Ohungarumlaut" unicode="&#x150;" horiz-adv-x="765" 
d="M382 717q58 0 118.5 -18.5t109.5 -61.5t80 -113.5t31 -174.5q0 -97 -29 -166.5t-76.5 -113.5t-108.5 -65t-125 -21q-58 0 -118 19t-109 62t-80 113.5t-31 173.5q0 98 29 167.5t76.5 113.5t108 64.5t124.5 20.5zM382 604q-45 0 -82.5 -17t-63.5 -49.5t-40.5 -79.5
t-14.5 -106q0 -118 51 -187t150 -69q44 0 81 17t63.5 49t41.5 79t15 107q0 58 -13 105.5t-38 81t-63 51.5t-87 18zM332 752h-91l85 149h144zM519 752h-91l91 149h144z" />
    <glyph glyph-name="ohungarumlaut" unicode="&#x151;" horiz-adv-x="614" 
d="M307 540q61 0 111 -21.5t84.5 -58.5t53.5 -88t19 -109q0 -61 -18.5 -112t-53 -87.5t-84 -56.5t-112.5 -20t-113 21t-84.5 57.5t-52.5 87t-18 110.5t18.5 111t53 88t84.5 57.5t112 20.5zM307 436q-61 0 -97.5 -43t-36.5 -128t35.5 -129.5t98.5 -44.5t98.5 44.5t35.5 129.5
t-36.5 128t-97.5 43zM250 593h-94l82 153h147zM437 593h-94l89 153h147z" />
    <glyph glyph-name="OE" unicode="&#x152;" horiz-adv-x="980" 
d="M382 717q30 0 62 -4t62 -13h419v-112h-312v-177h291v-108h-291v-191h321v-112h-432q-29 -9 -59.5 -13t-60.5 -4q-58 0 -118 19t-109 62t-80 113.5t-31 173.5q0 98 29 167.5t76.5 113.5t108 64.5t124.5 20.5zM382 606q-45 0 -82.5 -17.5t-63.5 -50.5t-40.5 -80t-14.5 -106
t13 -106.5t38 -81.5t62.5 -52t87.5 -18q26 0 51 4.5t47 15.5v474q-41 18 -98 18z" />
    <glyph glyph-name="oe" unicode="&#x153;" horiz-adv-x="981" 
d="M702 540q58 0 103 -20.5t76 -57.5t47.5 -87.5t16.5 -111.5v-31h-371q4 -72 38.5 -107.5t97.5 -35.5q48 0 79 20.5t49 51.5l103 -52q-38 -60 -96 -91t-140 -31q-73 0 -123 28t-79 76q-30 -45 -80 -74.5t-119 -29.5q-63 0 -112 21t-83 57.5t-52 87t-18 110.5t18 111
t52.5 88t84 57.5t111.5 20.5q71 0 121 -28.5t80 -76.5q29 48 78 76.5t118 28.5zM695 442q-54 0 -83 -30.5t-37 -88.5h238q-15 119 -118 119zM305 436q-61 0 -96.5 -43t-35.5 -128t34.5 -129.5t97.5 -44.5q64 0 100 44.5t36 129.5t-37.5 128t-98.5 43z" />
    <glyph glyph-name="Racute" unicode="&#x154;" horiz-adv-x="644" 
d="M331 700q70 0 120.5 -17t83 -46t47.5 -67.5t15 -81.5q0 -71 -36.5 -120.5t-110.5 -74.5l184 -293h-155l-161 273h-111v-273h-133v700h257zM207 589v-210h131q25 0 47 5t38.5 17.5t26 33t9.5 52.5q0 51 -31 76.5t-87 25.5h-134zM359 753h-104l95 142h167z" />
    <glyph glyph-name="racute" unicode="&#x155;" horiz-adv-x="391" 
d="M335 540q8 0 19 -0.5t19 -1.5v-127q-14 1 -20 1h-11q-31 0 -58 -8t-46.5 -29t-31 -56.5t-11.5 -89.5v-229h-128v527h125v-86q27 52 64.5 75.5t78.5 23.5zM261 593h-102l94 146h160z" />
    <glyph glyph-name="Rcommaaccent" unicode="&#x156;" horiz-adv-x="644" 
d="M331 700q70 0 120.5 -17t83 -46t47.5 -67.5t15 -81.5q0 -71 -36.5 -120.5t-110.5 -74.5l184 -293h-155l-161 273h-111v-273h-133v700h257zM207 589v-210h131q25 0 47 5t38.5 17.5t26 33t9.5 52.5q0 51 -31 76.5t-87 25.5h-134zM328 -63q31 0 49.5 -20t18.5 -49
q0 -43 -23.5 -89.5t-58.5 -88.5l-57 22q15 26 23.5 49t12.5 54q-19 12 -26.5 26.5t-7.5 31.5q0 27 20 45.5t49 18.5z" />
    <glyph glyph-name="rcommaaccent" unicode="&#x157;" horiz-adv-x="391" 
d="M335 540q8 0 19 -0.5t19 -1.5v-127q-14 1 -20 1h-11q-31 0 -58 -8t-46.5 -29t-31 -56.5t-11.5 -89.5v-229h-128v527h125v-86q27 52 64.5 75.5t78.5 23.5zM131 -63q31 0 49.5 -20t18.5 -49q0 -43 -23.5 -89.5t-58.5 -88.5l-57 22q15 26 23.5 49t12.5 54q-19 12 -26.5 26.5
t-7.5 31.5q0 27 20 45.5t49 18.5z" />
    <glyph glyph-name="Rcaron" unicode="&#x158;" horiz-adv-x="644" 
d="M331 700q70 0 120.5 -17t83 -46t47.5 -67.5t15 -81.5q0 -71 -36.5 -120.5t-110.5 -74.5l184 -293h-155l-161 273h-111v-273h-133v700h257zM207 589v-210h131q25 0 47 5t38.5 17.5t26 33t9.5 52.5q0 51 -31 76.5t-87 25.5h-134zM376 763h-128l-137 141h119l82 -67l82 67
h119z" />
    <glyph glyph-name="rcaron" unicode="&#x159;" horiz-adv-x="391" 
d="M335 540q8 0 19 -0.5t19 -1.5v-127q-14 1 -20 1h-11q-31 0 -58 -8t-46.5 -29t-31 -56.5t-11.5 -89.5v-229h-128v527h125v-86q27 52 64.5 75.5t78.5 23.5zM284 603h-128l-137 146h119l82 -74l82 74h119z" />
    <glyph glyph-name="Sacute" unicode="&#x15a;" horiz-adv-x="650" 
d="M325 -17q-89 0 -169.5 31.5t-135.5 99.5l89 80q42 -45 93 -71.5t126 -26.5q64 0 106.5 25t42.5 71q0 22 -6.5 39.5t-26.5 31t-56.5 24.5t-95.5 21q-120 20 -178.5 69t-58.5 138q0 46 19 83.5t54 63.5t83.5 40.5t107.5 14.5q103 0 173.5 -36.5t112.5 -88.5l-94 -74
q-12 15 -28.5 30t-39.5 28t-53 21t-70 8q-61 0 -95.5 -22.5t-34.5 -64.5q0 -19 6.5 -33.5t26 -26.5t54.5 -22t91 -20q129 -22 188 -73t59 -143q0 -49 -19.5 -89t-56.5 -68.5t-91 -44t-123 -15.5zM371 753h-104l95 142h167z" />
    <glyph glyph-name="sacute" unicode="&#x15b;" horiz-adv-x="528" 
d="M268 540q74 0 128 -22.5t91 -57.5l-69 -74q-32 27 -68.5 41.5t-78.5 14.5q-47 0 -69.5 -15t-22.5 -40q0 -14 5.5 -23.5t19.5 -17t39 -13.5t64 -13q48 -8 84 -21t60 -33t36 -47.5t12 -65.5q0 -73 -60.5 -119.5t-174.5 -46.5q-84 0 -144.5 24.5t-102.5 66.5l72 78
q35 -35 77 -52t90 -17q57 0 83.5 16.5t26.5 43.5q0 14 -4.5 24.5t-19 19.5t-41 16t-70.5 15q-94 16 -138.5 54t-44.5 104q0 38 16.5 67.5t46 50t69.5 31.5t88 11zM310 593h-102l94 146h160z" />
    <glyph glyph-name="Scircumflex" unicode="&#x15c;" horiz-adv-x="650" 
d="M325 -17q-89 0 -169.5 31.5t-135.5 99.5l89 80q42 -45 93 -71.5t126 -26.5q64 0 106.5 25t42.5 71q0 22 -6.5 39.5t-26.5 31t-56.5 24.5t-95.5 21q-120 20 -178.5 69t-58.5 138q0 46 19 83.5t54 63.5t83.5 40.5t107.5 14.5q103 0 173.5 -36.5t112.5 -88.5l-94 -74
q-12 15 -28.5 30t-39.5 28t-53 21t-70 8q-61 0 -95.5 -22.5t-34.5 -64.5q0 -19 6.5 -33.5t26 -26.5t54.5 -22t91 -20q129 -22 188 -73t59 -143q0 -49 -19.5 -89t-56.5 -68.5t-91 -44t-123 -15.5zM525 753h-119l-82 67l-82 -67h-119l137 141h128z" />
    <glyph glyph-name="scircumflex" unicode="&#x15d;" horiz-adv-x="528" 
d="M268 540q74 0 128 -22.5t91 -57.5l-69 -74q-32 27 -68.5 41.5t-78.5 14.5q-47 0 -69.5 -15t-22.5 -40q0 -14 5.5 -23.5t19.5 -17t39 -13.5t64 -13q48 -8 84 -21t60 -33t36 -47.5t12 -65.5q0 -73 -60.5 -119.5t-174.5 -46.5q-84 0 -144.5 24.5t-102.5 66.5l72 78
q35 -35 77 -52t90 -17q57 0 83.5 16.5t26.5 43.5q0 14 -4.5 24.5t-19 19.5t-41 16t-70.5 15q-94 16 -138.5 54t-44.5 104q0 38 16.5 67.5t46 50t69.5 31.5t88 11zM470 593h-119l-82 74l-82 -74h-119l137 146h128z" />
    <glyph glyph-name="Scedilla" unicode="&#x15e;" horiz-adv-x="650" 
d="M325 -17q-89 0 -169.5 31.5t-135.5 99.5l89 80q42 -45 93 -71.5t126 -26.5q64 0 106.5 25t42.5 71q0 22 -6.5 39.5t-26.5 31t-56.5 24.5t-95.5 21q-120 20 -178.5 69t-58.5 138q0 46 19 83.5t54 63.5t83.5 40.5t107.5 14.5q103 0 173.5 -36.5t112.5 -88.5l-94 -74
q-12 15 -28.5 30t-39.5 28t-53 21t-70 8q-61 0 -95.5 -22.5t-34.5 -64.5q0 -19 6.5 -33.5t26 -26.5t54.5 -22t91 -20q129 -22 188 -73t59 -143q0 -49 -19.5 -89t-56.5 -68.5t-91 -44t-123 -15.5zM359 -45q51 -5 79.5 -30t28.5 -59q0 -51 -39 -77.5t-98 -26.5q-35 0 -65.5 8
t-53.5 20l32 62q16 -8 34.5 -12.5t36.5 -4.5q23 0 37.5 6.5t14.5 26.5q0 24 -27.5 31.5t-76.5 7.5l18 103h80z" />
    <glyph glyph-name="scedilla" unicode="&#x15f;" horiz-adv-x="528" 
d="M268 540q74 0 128 -22.5t91 -57.5l-69 -74q-32 27 -68.5 41.5t-78.5 14.5q-47 0 -69.5 -15t-22.5 -40q0 -14 5.5 -23.5t19.5 -17t39 -13.5t64 -13q48 -8 84 -21t60 -33t36 -47.5t12 -65.5q0 -73 -60.5 -119.5t-174.5 -46.5q-84 0 -144.5 24.5t-102.5 66.5l72 78
q35 -35 77 -52t90 -17q57 0 83.5 16.5t26.5 43.5q0 14 -4.5 24.5t-19 19.5t-41 16t-70.5 15q-94 16 -138.5 54t-44.5 104q0 38 16.5 67.5t46 50t69.5 31.5t88 11zM291 -45q51 -5 79.5 -30t28.5 -59q0 -51 -39 -77.5t-98 -26.5q-35 0 -65.5 8t-53.5 20l32 62
q16 -8 34.5 -12.5t36.5 -4.5q23 0 37.5 6.5t14.5 26.5q0 24 -27.5 31.5t-76.5 7.5l18 103h80z" />
    <glyph glyph-name="Scaron" unicode="&#x160;" horiz-adv-x="650" 
d="M325 -17q-89 0 -169.5 31.5t-135.5 99.5l89 80q42 -45 93 -71.5t126 -26.5q64 0 106.5 25t42.5 71q0 22 -6.5 39.5t-26.5 31t-56.5 24.5t-95.5 21q-120 20 -178.5 69t-58.5 138q0 46 19 83.5t54 63.5t83.5 40.5t107.5 14.5q103 0 173.5 -36.5t112.5 -88.5l-94 -74
q-12 15 -28.5 30t-39.5 28t-53 21t-70 8q-61 0 -95.5 -22.5t-34.5 -64.5q0 -19 6.5 -33.5t26 -26.5t54.5 -22t91 -20q129 -22 188 -73t59 -143q0 -49 -19.5 -89t-56.5 -68.5t-91 -44t-123 -15.5zM388 763h-128l-137 141h119l82 -67l82 67h119z" />
    <glyph glyph-name="scaron" unicode="&#x161;" horiz-adv-x="528" 
d="M268 540q74 0 128 -22.5t91 -57.5l-69 -74q-32 27 -68.5 41.5t-78.5 14.5q-47 0 -69.5 -15t-22.5 -40q0 -14 5.5 -23.5t19.5 -17t39 -13.5t64 -13q48 -8 84 -21t60 -33t36 -47.5t12 -65.5q0 -73 -60.5 -119.5t-174.5 -46.5q-84 0 -144.5 24.5t-102.5 66.5l72 78
q35 -35 77 -52t90 -17q57 0 83.5 16.5t26.5 43.5q0 14 -4.5 24.5t-19 19.5t-41 16t-70.5 15q-94 16 -138.5 54t-44.5 104q0 38 16.5 67.5t46 50t69.5 31.5t88 11zM333 603h-128l-137 146h119l82 -74l82 74h119z" />
    <glyph glyph-name="Tcommaaccent" unicode="&#x162;" horiz-adv-x="576" 
d="M554 587h-200v-587h-133v587h-200v113h533v-113zM329 -45q51 -5 79.5 -30t28.5 -59q0 -51 -39 -77.5t-98 -26.5q-35 0 -65.5 8t-53.5 20l32 62q16 -8 34.5 -12.5t36.5 -4.5q23 0 37.5 6.5t14.5 26.5q0 24 -27.5 31.5t-76.5 7.5l18 103h80z" />
    <glyph glyph-name="tcommaaccent" unicode="&#x163;" horiz-adv-x="376" 
d="M215 522h131v-94h-131v-271q0 -33 13.5 -49t49.5 -16q22 0 42 3.5t37 8.5v-100q-23 -8 -50.5 -12.5t-59.5 -4.5q-45 0 -75.5 11t-49 30.5t-27 47.5t-8.5 62v290h-72v94h72v138h128v-138zM264 -45q51 -5 79.5 -30t28.5 -59q0 -51 -39 -77.5t-98 -26.5q-35 0 -65.5 8
t-53.5 20l32 62q16 -8 34.5 -12.5t36.5 -4.5q23 0 37.5 6.5t14.5 26.5q0 24 -27.5 31.5t-76.5 7.5l18 103h80z" />
    <glyph glyph-name="Tcaron" unicode="&#x164;" horiz-adv-x="576" 
d="M554 587h-200v-587h-133v587h-200v113h533v-113zM352 763h-128l-137 141h119l82 -67l82 67h119z" />
    <glyph glyph-name="tcaron" unicode="&#x165;" horiz-adv-x="376" 
d="M215 522h131v-94h-131v-271q0 -33 13.5 -49t49.5 -16q22 0 42 3.5t37 8.5v-100q-23 -8 -50.5 -12.5t-59.5 -4.5q-45 0 -75.5 11t-49 30.5t-27 47.5t-8.5 62v290h-72v94h72v138h128v-138zM335 588h-79l37 150h130z" />
    <glyph glyph-name="Tbar" unicode="&#x166;" horiz-adv-x="576" 
d="M473 360h-119v-360h-133v360h-118v91h118v136h-200v113h533v-113h-200v-136h119v-91z" />
    <glyph glyph-name="tbar" unicode="&#x167;" horiz-adv-x="376" 
d="M278 92q22 0 42 3.5t37 8.5v-100q-23 -8 -50.5 -12.5t-59.5 -4.5q-45 0 -75.5 11t-49 30.5t-27 47.5t-8.5 62v145h-68v87h68v58h-72v94h72v138h128v-138h131v-94h-131v-58h123v-87h-123v-126q0 -33 13.5 -49t49.5 -16z" />
    <glyph glyph-name="Utilde" unicode="&#x168;" horiz-adv-x="685" 
d="M620 253q0 -52 -14.5 -101t-47.5 -86.5t-86.5 -60t-130.5 -22.5q-79 0 -132 23t-85.5 60.5t-46 86.5t-13.5 100v447h133v-445q0 -85 35.5 -122t109.5 -37t109.5 39t35.5 120v445h133v-447zM281 889q27 0 46.5 -8t34 -17t26 -17t22.5 -8q14 0 24.5 8t19.5 29h71
q-7 -54 -39 -89t-82 -35q-27 0 -46.5 8t-34.5 17t-26 17t-22 8q-15 0 -25.5 -8t-19.5 -29h-70q8 54 39 89t82 35z" />
    <glyph glyph-name="utilde" unicode="&#x169;" horiz-adv-x="587" 
d="M518 0h-125v61q-29 -37 -69 -55.5t-85 -18.5q-79 0 -128 45t-49 138v357h128v-328q0 -55 20 -78.5t65 -23.5q51 0 83 34.5t32 94.5v301h128v-527zM229 729q27 0 46.5 -8t34 -17t26 -17t22.5 -8q14 0 24.5 8t19.5 29h71q-7 -54 -39 -89t-82 -35q-27 0 -46.5 8t-34.5 17
t-26 17t-22 8q-15 0 -25.5 -8t-19.5 -29h-70q8 54 39 89t82 35z" />
    <glyph glyph-name="Umacron" unicode="&#x16a;" horiz-adv-x="685" 
d="M620 253q0 -52 -14.5 -101t-47.5 -86.5t-86.5 -60t-130.5 -22.5q-79 0 -132 23t-85.5 60.5t-46 86.5t-13.5 100v447h133v-445q0 -85 35.5 -122t109.5 -37t109.5 39t35.5 120v445h133v-447zM516 778h-345v88h345v-88z" />
    <glyph glyph-name="umacron" unicode="&#x16b;" horiz-adv-x="587" 
d="M518 0h-125v61q-29 -37 -69 -55.5t-85 -18.5q-79 0 -128 45t-49 138v357h128v-328q0 -55 20 -78.5t65 -23.5q51 0 83 34.5t32 94.5v301h128v-527zM464 618h-345v88h345v-88z" />
    <glyph glyph-name="Ubreve" unicode="&#x16c;" horiz-adv-x="685" 
d="M620 253q0 -52 -14.5 -101t-47.5 -86.5t-86.5 -60t-130.5 -22.5q-79 0 -132 23t-85.5 60.5t-46 86.5t-13.5 100v447h133v-445q0 -85 35.5 -122t109.5 -37t109.5 39t35.5 120v445h133v-447zM510 898q-9 -69 -52 -107.5t-115 -38.5t-115 38.5t-53 107.5h75q7 -33 34 -45.5
t59 -13.5q32 0 58.5 13t34.5 46h74z" />
    <glyph glyph-name="ubreve" unicode="&#x16d;" horiz-adv-x="587" 
d="M518 0h-125v61q-29 -37 -69 -55.5t-85 -18.5q-79 0 -128 45t-49 138v357h128v-328q0 -55 20 -78.5t65 -23.5q51 0 83 34.5t32 94.5v301h128v-527zM458 740q-9 -69 -52 -109.5t-115 -40.5t-115 40.5t-53 109.5h75q7 -33 34 -48t59 -15t58.5 15t34.5 48h74z" />
    <glyph glyph-name="Uring" unicode="&#x16e;" horiz-adv-x="685" 
d="M620 253q0 -52 -14.5 -101t-47.5 -86.5t-86.5 -60t-130.5 -22.5q-79 0 -132 23t-85.5 60.5t-46 86.5t-13.5 100v447h133v-445q0 -85 35.5 -122t109.5 -37t109.5 39t35.5 120v445h133v-447zM343 981q26 0 49.5 -9t41 -25t28 -38.5t10.5 -50.5t-10.5 -50.5t-28 -38.5
t-41 -25t-49.5 -9t-49.5 9t-41 25t-28 38.5t-10.5 50.5t10.5 50.5t28 38.5t41 25t49.5 9zM344 911q-20 0 -34.5 -13.5t-14.5 -39.5q0 -25 14.5 -38.5t34.5 -13.5t34 13.5t14 38.5q0 26 -14 39.5t-34 13.5z" />
    <glyph glyph-name="uring" unicode="&#x16f;" horiz-adv-x="587" 
d="M518 0h-125v61q-29 -37 -69 -55.5t-85 -18.5q-79 0 -128 45t-49 138v357h128v-328q0 -55 20 -78.5t65 -23.5q51 0 83 34.5t32 94.5v301h128v-527zM291 830q26 0 49.5 -9t41 -25t28 -38.5t10.5 -50.5t-10.5 -50.5t-28 -38.5t-41 -25t-49.5 -9t-49.5 9t-41 25t-28 38.5
t-10.5 50.5t10.5 50.5t28 38.5t41 25t49.5 9zM292 759q-20 0 -34.5 -13.5t-14.5 -38.5q0 -26 14.5 -39.5t34.5 -13.5t34 13.5t14 39.5q0 25 -14 38.5t-34 13.5z" />
    <glyph glyph-name="Uhungarumlaut" unicode="&#x170;" horiz-adv-x="685" 
d="M620 253q0 -52 -14.5 -101t-47.5 -86.5t-86.5 -60t-130.5 -22.5q-79 0 -132 23t-85.5 60.5t-46 86.5t-13.5 100v447h133v-445q0 -85 35.5 -122t109.5 -37t109.5 39t35.5 120v445h133v-447zM293 752h-91l85 149h144zM480 752h-91l91 149h144z" />
    <glyph glyph-name="uhungarumlaut" unicode="&#x171;" horiz-adv-x="587" 
d="M518 0h-125v61q-29 -37 -69 -55.5t-85 -18.5q-79 0 -128 45t-49 138v357h128v-328q0 -55 20 -78.5t65 -23.5q51 0 83 34.5t32 94.5v301h128v-527zM234 593h-94l82 153h147zM421 593h-94l89 153h147z" />
    <glyph glyph-name="Uogonek" unicode="&#x172;" horiz-adv-x="685" 
d="M620 253q0 -52 -14.5 -101t-47.5 -86.5t-86.5 -60t-130.5 -22.5q-79 0 -132 23t-85.5 60.5t-46 86.5t-13.5 100v447h133v-445q0 -85 35.5 -122t109.5 -37t109.5 39t35.5 120v445h133v-447zM457 0q-27 -16 -44 -31.5t-26 -30t-12.5 -28t-3.5 -25.5q0 -21 13 -33.5
t44 -12.5q20 0 36 4t28 9l24 -66q-49 -23 -107 -23q-65 0 -101.5 28t-36.5 81q0 48 45 88.5t123 61.5z" />
    <glyph glyph-name="uogonek" unicode="&#x173;" horiz-adv-x="587" 
d="M518 0h-125v61q-29 -37 -69 -55.5t-85 -18.5q-79 0 -128 45t-49 138v357h128v-328q0 -55 20 -78.5t65 -23.5q51 0 83 34.5t32 94.5v301h128v-527zM466 0q-27 -16 -44 -31.5t-26 -30t-12.5 -28t-3.5 -25.5q0 -21 13 -33.5t44 -12.5q20 0 36 4t28 9l24 -66
q-49 -23 -107 -23q-65 0 -101.5 28t-36.5 81q0 48 45 88.5t123 61.5z" />
    <glyph glyph-name="Wcircumflex" unicode="&#x174;" horiz-adv-x="852" 
d="M695 0h-153l-110 543l-103 -543h-158l-163 700h140l106 -567l107 567h143l113 -563l92 563h133zM634 753h-119l-82 67l-82 -67h-119l137 141h128z" />
    <glyph glyph-name="wcircumflex" unicode="&#x175;" horiz-adv-x="782" 
d="M628 0h-149l-87 388l-93 -388h-148l-143 527h139l82 -398l90 398h142l94 -398l86 398h131zM593 593h-119l-82 74l-82 -74h-119l137 146h128z" />
    <glyph glyph-name="Ycircumflex" unicode="&#x176;" horiz-adv-x="614" 
d="M372 279v-279h-132v277l-241 423h150l159 -309l159 309h146zM508 753h-119l-82 67l-82 -67h-119l137 141h128z" />
    <glyph glyph-name="ycircumflex" unicode="&#x177;" horiz-adv-x="514" 
d="M341 -25q-11 -36 -26 -65.5t-37.5 -50.5t-55 -32.5t-79.5 -11.5q-20 0 -37.5 2t-31.5 5v93q17 -2 25 -2h20q28 0 46 4.5t29.5 14.5t18 26.5t12.5 41.5h-46l-176 527h142l119 -434l109 434h137zM459 593h-119l-82 74l-82 -74h-119l137 146h128z" />
    <glyph glyph-name="Ydieresis" unicode="&#x178;" horiz-adv-x="614" 
d="M372 279v-279h-132v277l-241 423h150l159 -309l159 309h146zM194 899q29 0 51.5 -21.5t22.5 -50.5q0 -30 -22.5 -51.5t-51.5 -21.5t-51.5 21.5t-22.5 51.5q0 29 22.5 50.5t51.5 21.5zM421 899q29 0 51.5 -21.5t22.5 -50.5q0 -30 -22.5 -51.5t-51.5 -21.5t-51.5 21.5
t-22.5 51.5q0 29 22.5 50.5t51.5 21.5z" />
    <glyph glyph-name="Zacute" unicode="&#x179;" horiz-adv-x="603" 
d="M561 593l-369 -480h378v-113h-546v103l373 487h-347v110h511v-107zM346 753h-104l95 142h167z" />
    <glyph glyph-name="zacute" unicode="&#x17a;" horiz-adv-x="478" 
d="M443 428l-266 -321h273v-107h-431v97l270 326h-243v104h397v-99zM278 593h-102l94 146h160z" />
    <glyph glyph-name="Zdotaccent" unicode="&#x17b;" horiz-adv-x="603" 
d="M561 593l-369 -480h378v-113h-546v103l373 487h-347v110h511v-107zM298 896q32 0 55.5 -22t23.5 -54q0 -15 -6.5 -29t-17 -24t-25 -16t-30.5 -6q-31 0 -54.5 22t-23.5 53q0 16 6.5 30t17 24t25 16t29.5 6z" />
    <glyph glyph-name="zdotaccent" unicode="&#x17c;" horiz-adv-x="478" 
d="M443 428l-266 -321h273v-107h-431v97l270 326h-243v104h397v-99zM236 736q32 0 55.5 -22t23.5 -54q0 -15 -6.5 -29t-17 -24t-25 -16t-30.5 -6q-31 0 -54.5 22t-23.5 53q0 16 6.5 30t17 24t25 16t29.5 6z" />
    <glyph glyph-name="Zcaron" unicode="&#x17d;" horiz-adv-x="603" 
d="M561 593l-369 -480h378v-113h-546v103l373 487h-347v110h511v-107zM363 763h-128l-137 141h119l82 -67l82 67h119z" />
    <glyph glyph-name="zcaron" unicode="&#x17e;" horiz-adv-x="478" 
d="M443 428l-266 -321h273v-107h-431v97l270 326h-243v104h397v-99zM301 603h-128l-137 146h119l82 -74l82 74h119z" />
    <glyph glyph-name="longs" unicode="&#x17f;" horiz-adv-x="344" 
d="M259 713q24 0 45 -3t46 -11v-93q-21 5 -37 7t-32 2q-33 0 -49.5 -11t-16.5 -45v-559h-128v428h-72v94h72v51q0 28 9.5 53.5t30.5 45t53.5 30.5t78.5 11z" />
    <glyph glyph-name="uni018F" unicode="&#x18f;" horiz-adv-x="735" 
d="M363 717q64 0 123 -20t104.5 -64t73 -113.5t27.5 -168.5q0 -101 -29 -171.5t-75.5 -114t-103.5 -63t-114 -19.5q-67 0 -126 22.5t-103.5 70t-70 120t-25.5 171.5v23h512q-8 107 -57 161.5t-134 54.5q-60 0 -106 -27.5t-75 -87.5l-128 40q24 51 58 86.5t74 57.5t84.5 32
t90.5 10zM367 91q80 0 127 50t59 144h-370q3 -51 19 -87.5t41.5 -60t57.5 -35t66 -11.5z" />
    <glyph glyph-name="florin" unicode="&#x192;" horiz-adv-x="316" 
d="M230 714q31 0 60.5 -5.5t52.5 -12.5v-96q-18 6 -43 11t-48 5q-33 0 -49.5 -11t-16.5 -45v-37h134v-94h-134v-445q0 -45 -13.5 -76.5t-35.5 -51.5t-50.5 -29t-58.5 -9q-41 0 -68 7v96q9 -1 13 -1h8q22 0 37 4t24 15t12.5 30.5t3.5 51.5v408h-72v94h72v54q0 28 9.5 53
t30.5 44t53.5 29.5t78.5 10.5z" />
    <glyph glyph-name="uni01CD" unicode="&#x1cd;" horiz-adv-x="636" 
d="M454 117h-279l-35 -117h-137l230 700h169l230 -700h-143zM206 225h216l-108 370zM382 763h-128l-137 141h119l82 -67l82 67h119z" />
    <glyph glyph-name="uni01CE" unicode="&#x1ce;" horiz-adv-x="559" 
d="M280 540q59 0 100 -11t67 -32.5t37.5 -52.5t11.5 -70v-259q0 -31 3.5 -59t14.5 -56h-129q-10 25 -15 55q-30 -38 -72.5 -53t-84.5 -15t-75.5 12t-56 34t-34.5 51t-12 64q0 73 49.5 118.5t165.5 59.5l118 15v24q0 46 -18.5 64t-72.5 18q-50 0 -72 -17t-23 -59h-126
q2 86 62.5 127.5t161.5 41.5zM283 243q-63 -8 -90 -27t-27 -57q0 -30 18.5 -49.5t60.5 -19.5q25 0 47 8t39 22t27 34t10 44v57zM350 603h-128l-137 146h119l82 -74l82 74h119z" />
    <glyph glyph-name="uni01CF" unicode="&#x1cf;" horiz-adv-x="386" 
d="M350 591h-91v-482h91v-109h-315v109h91v482h-91v109h315v-109zM257 763h-128l-137 141h119l82 -67l82 67h119z" />
    <glyph glyph-name="uni01D0" unicode="&#x1d0;" horiz-adv-x="263" 
d="M195 0h-128v527h128v-527zM196 603h-128l-137 146h119l82 -74l82 74h119z" />
    <glyph glyph-name="uni01D1" unicode="&#x1d1;" horiz-adv-x="765" 
d="M382 717q58 0 118.5 -18.5t109.5 -61.5t80 -113.5t31 -174.5q0 -97 -29 -166.5t-76.5 -113.5t-108.5 -65t-125 -21q-58 0 -118 19t-109 62t-80 113.5t-31 173.5q0 98 29 167.5t76.5 113.5t108 64.5t124.5 20.5zM382 604q-45 0 -82.5 -17t-63.5 -49.5t-40.5 -79.5
t-14.5 -106q0 -118 51 -187t150 -69q44 0 81 17t63.5 49t41.5 79t15 107q0 58 -13 105.5t-38 81t-63 51.5t-87 18zM446 763h-128l-137 141h119l82 -67l82 67h119z" />
    <glyph glyph-name="uni01D2" unicode="&#x1d2;" horiz-adv-x="614" 
d="M307 540q61 0 111 -21.5t84.5 -58.5t53.5 -88t19 -109q0 -61 -18.5 -112t-53 -87.5t-84 -56.5t-112.5 -20t-113 21t-84.5 57.5t-52.5 87t-18 110.5t18.5 111t53 88t84.5 57.5t112 20.5zM307 436q-61 0 -97.5 -43t-36.5 -128t35.5 -129.5t98.5 -44.5t98.5 44.5t35.5 129.5
t-36.5 128t-97.5 43zM371 603h-128l-137 146h119l82 -74l82 74h119z" />
    <glyph glyph-name="uni01D3" unicode="&#x1d3;" horiz-adv-x="685" 
d="M620 253q0 -52 -14.5 -101t-47.5 -86.5t-86.5 -60t-130.5 -22.5q-79 0 -132 23t-85.5 60.5t-46 86.5t-13.5 100v447h133v-445q0 -85 35.5 -122t109.5 -37t109.5 39t35.5 120v445h133v-447zM407 763h-128l-137 141h119l82 -67l82 67h119z" />
    <glyph glyph-name="uni01D4" unicode="&#x1d4;" horiz-adv-x="587" 
d="M518 0h-125v61q-29 -37 -69 -55.5t-85 -18.5q-79 0 -128 45t-49 138v357h128v-328q0 -55 20 -78.5t65 -23.5q51 0 83 34.5t32 94.5v301h128v-527zM355 603h-128l-137 146h119l82 -74l82 74h119z" />
    <glyph glyph-name="Aringacute" unicode="&#x1fa;" horiz-adv-x="636" 
d="M454 117h-279l-35 -117h-137l230 700h169l230 -700h-143zM206 225h216l-108 370zM318 981q26 0 49.5 -9t41 -25t28 -38.5t10.5 -50.5t-10.5 -50.5t-28 -38.5t-41 -25t-49.5 -9t-49.5 9t-41 25t-28 38.5t-10.5 50.5t10.5 50.5t28 38.5t41 25t49.5 9zM319 911
q-20 0 -34.5 -13.5t-14.5 -39.5q0 -25 14.5 -38.5t34.5 -13.5t34 13.5t14 38.5q0 26 -14 39.5t-34 13.5zM365 1012h-104l95 142h167z" />
    <glyph glyph-name="aringacute" unicode="&#x1fb;" horiz-adv-x="559" 
d="M280 540q59 0 100 -11t67 -32.5t37.5 -52.5t11.5 -70v-259q0 -31 3.5 -59t14.5 -56h-129q-10 25 -15 55q-30 -38 -72.5 -53t-84.5 -15t-75.5 12t-56 34t-34.5 51t-12 64q0 73 49.5 118.5t165.5 59.5l118 15v24q0 46 -18.5 64t-72.5 18q-50 0 -72 -17t-23 -59h-126
q2 86 62.5 127.5t161.5 41.5zM283 243q-63 -8 -90 -27t-27 -57q0 -30 18.5 -49.5t60.5 -19.5q25 0 47 8t39 22t27 34t10 44v57zM286 830q26 0 49.5 -9t41 -25t28 -38.5t10.5 -50.5t-10.5 -50.5t-28 -38.5t-41 -25t-49.5 -9t-49.5 9t-41 25t-28 38.5t-10.5 50.5t10.5 50.5
t28 38.5t41 25t49.5 9zM287 759q-20 0 -34.5 -13.5t-14.5 -38.5q0 -26 14.5 -39.5t34.5 -13.5t34 13.5t14 39.5q0 25 -14 38.5t-34 13.5zM327 867h-102l94 146h160z" />
    <glyph glyph-name="AEacute" unicode="&#x1fc;" horiz-adv-x="946" 
d="M869 588h-344l28 -176h299v-110h-282l31 -190h319v-112h-439l-16 113h-279l-51 -113h-142l334 700h542v-112zM233 222h218l-53 366zM612 753h-104l95 142h167z" />
    <glyph glyph-name="aeacute" unicode="&#x1fd;" horiz-adv-x="899" 
d="M616 540q59 0 105 -21t77.5 -58t48 -89t16.5 -113v-26h-370q2 -72 37.5 -107.5t97.5 -35.5q48 0 78.5 20.5t48.5 52.5l104 -53q-37 -59 -96 -91t-140 -32q-71 0 -121 26t-83 74q-27 -41 -74.5 -70.5t-126.5 -29.5q-89 0 -136 45.5t-47 115.5q0 73 49.5 118.5t165.5 59.5
l129 15q3 22 12 46q-10 31 -34.5 45.5t-78.5 14.5q-51 0 -73 -17t-23 -59h-126q2 86 61 127.5t160 41.5q43 0 72 -6t48.5 -15.5t31.5 -22t22 -24.5q9 10 25 22t37.5 22.5t47.5 17t55 6.5zM616 443q-53 0 -85 -31t-37 -92h240q-5 63 -35.5 93t-82.5 30zM280 243
q-60 -8 -87 -27t-27 -57q0 -31 19 -50t61 -19q25 0 48 7.5t41 20t30 28t15 31.5q-5 29 -5.5 46t-0.5 32zM491 593h-102l94 146h160z" />
    <glyph glyph-name="Oslashacute" unicode="&#x1fe;" horiz-adv-x="765" 
d="M622 625q45 -44 72 -111.5t27 -164.5t-29 -166.5t-76.5 -113.5t-108.5 -65t-125 -21q-37 0 -75.5 7.5t-74.5 24.5l-65 -105h-108l98 153q-50 44 -81.5 114.5t-31.5 173.5q0 98 29 167.5t76.5 113.5t108 64.5t124.5 20.5q42 0 84 -9t81 -29l52 80h106zM382 603
q-45 0 -82.5 -17t-63.5 -49.5t-40.5 -79t-14.5 -105.5q0 -121 49 -186l261 408q-44 29 -109 29zM382 97q44 0 81 16.5t63.5 49t41.5 79t15 106.5q0 105 -39 170l-255 -401q40 -20 93 -20zM429 753h-104l95 142h167z" />
    <glyph glyph-name="oslashacute" unicode="&#x1ff;" horiz-adv-x="614" 
d="M489 471q41 -38 63.5 -91.5t22.5 -116.5q0 -61 -18.5 -112t-53 -87.5t-84 -56.5t-112.5 -20q-58 0 -104 18l-50 -85h-103l78 128q-43 38 -66 93t-23 122q0 60 18.5 111t53 88t84.5 57.5t112 20.5q29 0 56 -5.5t52 -15.5l49 82h100zM307 436q-61 0 -98 -43t-37 -128
q0 -75 27 -117l166 276q-26 12 -58 12zM253 101q12 -5 25.5 -7.5t28.5 -2.5q63 0 98.5 44.5t35.5 129.5q0 67 -23 108zM348 593h-102l94 146h160z" />
    <glyph glyph-name="Scommaaccent" unicode="&#x218;" horiz-adv-x="650" 
d="M325 -17q-89 0 -169.5 31.5t-135.5 99.5l89 80q42 -45 93 -71.5t126 -26.5q64 0 106.5 25t42.5 71q0 22 -6.5 39.5t-26.5 31t-56.5 24.5t-95.5 21q-120 20 -178.5 69t-58.5 138q0 46 19 83.5t54 63.5t83.5 40.5t107.5 14.5q103 0 173.5 -36.5t112.5 -88.5l-94 -74
q-12 15 -28.5 30t-39.5 28t-53 21t-70 8q-61 0 -95.5 -22.5t-34.5 -64.5q0 -19 6.5 -33.5t26 -26.5t54.5 -22t91 -20q129 -22 188 -73t59 -143q0 -49 -19.5 -89t-56.5 -68.5t-91 -44t-123 -15.5zM328 -63q31 0 49.5 -20t18.5 -49q0 -43 -23.5 -89.5t-58.5 -88.5l-57 22
q15 26 23.5 49t12.5 54q-19 12 -26.5 26.5t-7.5 31.5q0 27 20 45.5t49 18.5z" />
    <glyph glyph-name="scommaaccent" unicode="&#x219;" horiz-adv-x="528" 
d="M268 540q74 0 128 -22.5t91 -57.5l-69 -74q-32 27 -68.5 41.5t-78.5 14.5q-47 0 -69.5 -15t-22.5 -40q0 -14 5.5 -23.5t19.5 -17t39 -13.5t64 -13q48 -8 84 -21t60 -33t36 -47.5t12 -65.5q0 -73 -60.5 -119.5t-174.5 -46.5q-84 0 -144.5 24.5t-102.5 66.5l72 78
q35 -35 77 -52t90 -17q57 0 83.5 16.5t26.5 43.5q0 14 -4.5 24.5t-19 19.5t-41 16t-70.5 15q-94 16 -138.5 54t-44.5 104q0 38 16.5 67.5t46 50t69.5 31.5t88 11zM260 -63q31 0 49.5 -20t18.5 -49q0 -43 -23.5 -89.5t-58.5 -88.5l-57 22q15 26 23.5 49t12.5 54
q-19 12 -26.5 26.5t-7.5 31.5q0 27 20 45.5t49 18.5z" />
    <glyph glyph-name="uni021A" unicode="&#x21a;" horiz-adv-x="576" 
d="M554 587h-200v-587h-133v587h-200v113h533v-113zM298 -63q31 0 49.5 -20t18.5 -49q0 -43 -23.5 -89.5t-58.5 -88.5l-57 22q15 26 23.5 49t12.5 54q-19 12 -26.5 26.5t-7.5 31.5q0 27 20 45.5t49 18.5z" />
    <glyph glyph-name="uni021B" unicode="&#x21b;" horiz-adv-x="376" 
d="M215 522h131v-94h-131v-271q0 -33 13.5 -49t49.5 -16q22 0 42 3.5t37 8.5v-100q-23 -8 -50.5 -12.5t-59.5 -4.5q-45 0 -75.5 11t-49 30.5t-27 47.5t-8.5 62v290h-72v94h72v138h128v-138zM233 -63q31 0 49.5 -20t18.5 -49q0 -43 -23.5 -89.5t-58.5 -88.5l-57 22
q15 26 23.5 49t12.5 54q-19 12 -26.5 26.5t-7.5 31.5q0 27 20 45.5t49 18.5z" />
    <glyph glyph-name="uni0237" unicode="&#x237;" horiz-adv-x="263" 
d="M195 -19q0 -45 -13.5 -76.5t-35.5 -51.5t-50.5 -29t-58.5 -9q-41 0 -68 7v96q9 -1 13 -1h8q22 0 37 4t24 15t12.5 30.5t3.5 51.5v509h128v-546z" />
    <glyph glyph-name="uni0259" unicode="&#x259;" horiz-adv-x="579" 
d="M301.018 -12.9668q-58.9961 0 -105.493 20.998q-46.4971 20.999 -78.4951 57.9971q-31.998 36.9971 -48.4971 88.9941t-16.499 112.993v25.999h371.978q-3 71.9951 -38.498 107.493t-98.4941 35.498q-47.9971 0 -78.4951 -20.499t-48.4971 -52.4971l-103.993 52.9971
q36.9971 58.9961 95.9941 90.9941q58.9961 31.998 140.991 31.998q62.9961 0 111.493 -20.999q48.4971 -20.998 82.4951 -57.9961t51.4971 -87.4941q17.498 -50.4971 17.498 -109.494q0 -59.9961 -16.498 -110.993q-16.5 -50.9961 -48.9971 -87.9941
q-32.498 -36.998 -79.9951 -57.4971q-47.498 -20.498 -109.494 -20.498zM302.018 84.0273q51.9971 0 84.4951 30.998t37.498 91.9941h-239.985q4.99902 -62.9961 35.4971 -92.9941q30.499 -29.998 82.4951 -29.998z" />
    <glyph glyph-name="uni02BB" unicode="&#x2bb;" horiz-adv-x="292" 
d="M151.917 477.541q-36.1748 0 -59.498 24.2754t-23.3232 60.4502q0 59.0215 29.0352 118.52t77.585 109.952l63.7822 -33.3193q-20.9434 -33.3184 -31.415 -63.3057q-10.4717 -29.9863 -14.2793 -70.9209q19.9912 -13.3281 29.9863 -29.0352
q9.99609 -15.707 9.99609 -39.5068q0 -31.415 -23.3232 -54.2617q-23.3232 -22.8477 -58.5459 -22.8477z" />
    <glyph glyph-name="afii57929" unicode="&#x2bc;" horiz-adv-x="291" 
d="M140.092 757.468q36.1768 0 59.502 -24.2764q23.3242 -24.2764 23.3242 -60.4531q0 -59.0264 -29.0371 -118.527q-29.0361 -59.502 -77.5898 -109.959l-63.7852 33.3203q20.9443 33.3213 31.416 63.3096q10.4727 29.9893 14.2812 70.9268
q-19.9932 13.3281 -29.9893 29.0361q-9.99609 15.709 -9.99609 39.5088q0 31.417 23.3242 54.2656q23.3252 22.8486 58.5498 22.8486z" />
    <glyph glyph-name="circumflex" unicode="&#x2c6;" horiz-adv-x="462" 
d="M432 593h-119l-82 74l-82 -74h-119l137 146h128z" />
    <glyph glyph-name="caron" unicode="&#x2c7;" horiz-adv-x="462" 
d="M295 603h-128l-137 146h119l82 -74l82 74h119z" />
    <glyph glyph-name="breve" unicode="&#x2d8;" horiz-adv-x="395" 
d="M365 740q-9 -69 -52 -109.5t-115 -40.5t-115 40.5t-53 109.5h75q7 -33 34 -48t59 -15t58.5 15t34.5 48h74z" />
    <glyph glyph-name="dotaccent" unicode="&#x2d9;" horiz-adv-x="217" 
d="M109 736q32 0 55.5 -22t23.5 -54q0 -15 -6.5 -29t-17 -24t-25 -16t-30.5 -6q-31 0 -54.5 22t-23.5 53q0 16 6.5 30t17 24t25 16t29.5 6z" />
    <glyph glyph-name="ring" unicode="&#x2da;" horiz-adv-x="318" 
d="M159 830q26 0 49.5 -9t41 -25t28 -38.5t10.5 -50.5t-10.5 -50.5t-28 -38.5t-41 -25t-49.5 -9t-49.5 9t-41 25t-28 38.5t-10.5 50.5t10.5 50.5t28 38.5t41 25t49.5 9zM160 759q-20 0 -34.5 -13.5t-14.5 -38.5q0 -26 14.5 -39.5t34.5 -13.5t34 13.5t14 39.5q0 25 -14 38.5
t-34 13.5z" />
    <glyph glyph-name="ogonek" unicode="&#x2db;" horiz-adv-x="303" 
d="M213 0q-27 -16 -44 -31.5t-26 -30t-12.5 -28t-3.5 -25.5q0 -21 13 -33.5t44 -12.5q20 0 36 4t28 9l24 -66q-49 -23 -107 -23q-65 0 -101.5 28t-36.5 81q0 48 45 88.5t123 61.5z" />
    <glyph glyph-name="tilde" unicode="&#x2dc;" horiz-adv-x="425" 
d="M151 729q27 0 46.5 -8t34 -17t26 -17t22.5 -8q14 0 24.5 8t19.5 29h71q-7 -54 -39 -89t-82 -35q-27 0 -46.5 8t-34.5 17t-26 17t-22 8q-15 0 -25.5 -8t-19.5 -29h-70q8 54 39 89t82 35z" />
    <glyph glyph-name="hungarumlaut" unicode="&#x2dd;" horiz-adv-x="483" 
d="M124 593h-94l82 153h147zM311 593h-94l89 153h147z" />
    <glyph glyph-name="gravecomb" unicode="&#x300;" horiz-adv-x="1" 
d="M-35 593h-102l-152 146h160z" />
    <glyph glyph-name="acutecomb" unicode="&#x301;" horiz-adv-x="1" 
d="M-181 593h-102l94 146h160z" />
    <glyph glyph-name="uni0302" unicode="&#x302;" horiz-adv-x="1" 
d="M-30 593h-119l-82 74l-82 -74h-119l137 146h128z" />
    <glyph glyph-name="tildecomb" unicode="&#x303;" horiz-adv-x="1" 
d="M-274 729q27 0 46.5 -8t34 -17t26 -17t22.5 -8q14 0 24.5 8t19.5 29h71q-7 -54 -39 -89t-82 -35q-27 0 -46.5 8t-34.5 17t-26 17t-22 8q-15 0 -25.5 -8t-19.5 -29h-70q8 54 39 89t82 35z" />
    <glyph glyph-name="uni0304" unicode="&#x304;" horiz-adv-x="1" 
d="M-30 618h-345v88h345v-88z" />
    <glyph glyph-name="uni0306" unicode="&#x306;" horiz-adv-x="1" 
d="M-30 740q-9 -69 -52 -109.5t-115 -40.5t-115 40.5t-53 109.5h75q7 -33 34 -48t59 -15t58.5 15t34.5 48h74z" />
    <glyph glyph-name="uni0307" unicode="&#x307;" horiz-adv-x="1" 
d="M-108 736q32 0 55.5 -22t23.5 -54q0 -15 -6.5 -29t-17 -24t-25 -16t-30.5 -6q-31 0 -54.5 22t-23.5 53q0 16 6.5 30t17 24t25 16t29.5 6z" />
    <glyph glyph-name="uni0308" unicode="&#x308;" horiz-adv-x="1" 
d="M-333 739q29 0 51.5 -21.5t22.5 -50.5q0 -30 -22.5 -51.5t-51.5 -21.5t-51.5 21.5t-22.5 51.5q0 29 22.5 50.5t51.5 21.5zM-106 739q29 0 51.5 -21.5t22.5 -50.5q0 -30 -22.5 -51.5t-51.5 -21.5t-51.5 21.5t-22.5 51.5q0 29 22.5 50.5t51.5 21.5z" />
    <glyph glyph-name="uni030A" unicode="&#x30a;" horiz-adv-x="1" 
d="M-159 830q26 0 49.5 -9t41 -25t28 -38.5t10.5 -50.5t-10.5 -50.5t-28 -38.5t-41 -25t-49.5 -9t-49.5 9t-41 25t-28 38.5t-10.5 50.5t10.5 50.5t28 38.5t41 25t49.5 9zM-158 759q-20 0 -34.5 -13.5t-14.5 -38.5q0 -26 14.5 -39.5t34.5 -13.5t34 13.5t14 39.5
q0 25 -14 38.5t-34 13.5z" />
    <glyph glyph-name="uni030B" unicode="&#x30b;" horiz-adv-x="1" 
d="M-359 593h-94l82 153h147zM-172 593h-94l89 153h147z" />
    <glyph glyph-name="uni030C" unicode="&#x30c;" horiz-adv-x="1" 
d="M-167 603h-128l-137 146h119l82 -74l82 74h119z" />
    <glyph glyph-name="uni0326" unicode="&#x326;" horiz-adv-x="1" 
d="M-98 -63q31 0 49.5 -20t18.5 -49q0 -43 -23.5 -89.5t-58.5 -88.5l-57 22q15 26 23.5 49t12.5 54q-19 12 -26.5 26.5t-7.5 31.5q0 27 20 45.5t49 18.5z" />
    <glyph glyph-name="uni0327" unicode="&#x327;" horiz-adv-x="1" 
d="M-136 -45q51 -5 79.5 -30t28.5 -59q0 -51 -39 -77.5t-98 -26.5q-35 0 -65.5 8t-53.5 20l32 62q16 -8 34.5 -12.5t36.5 -4.5q23 0 37.5 6.5t14.5 26.5q0 24 -27.5 31.5t-76.5 7.5l18 103h80z" />
    <glyph glyph-name="uni0328" unicode="&#x328;" horiz-adv-x="1" 
d="M-90 0q-27 -16 -44 -31.5t-26 -30t-12.5 -28t-3.5 -25.5q0 -21 13 -33.5t44 -12.5q20 0 36 4t28 9l24 -66q-49 -23 -107 -23q-65 0 -101.5 28t-36.5 81q0 48 45 88.5t123 61.5z" />
    <glyph glyph-name="Delta" unicode="&#x394;" horiz-adv-x="636" 
d="M632 0h-628l229 700h170zM457 109l-142 484l-143 -484h285z" />
    <glyph glyph-name="Omega" unicode="&#x3a9;" horiz-adv-x="765" 
d="M382 717q59 0 119.5 -18.5t109 -61t79.5 -111.5t31 -170q0 -97 -30.5 -155t-79.5 -91h105v-110h-260v110q33 12 56.5 35t39.5 55.5t23.5 71.5t7.5 82q0 118 -52 183.5t-149 65.5q-91 0 -146 -63.5t-55 -182.5q0 -44 8 -83.5t23.5 -72t39.5 -56t57 -35.5v-110h-260v110
h108q-51 34 -82 92t-31 155t29 165.5t76.5 111.5t108 63t124.5 20z" />
    <glyph glyph-name="mu" unicode="&#x3bc;" horiz-adv-x="592" 
d="M523 0h-125v56q-22 -34 -51.5 -51.5t-71.5 -17.5q-53 0 -85 32v-184h-123v692h128v-325q0 -57 21 -81.5t64 -24.5q51 0 83 35t32 95v301h128v-527z" />
    <glyph glyph-name="pi" unicode="&#x3c0;" horiz-adv-x="644" 
d="M606 424h-79v-424h-126v424h-160v-424h-125v424h-79v103h569v-103z" />
    <glyph glyph-name="Wgrave" unicode="&#x1e80;" horiz-adv-x="852" 
d="M695 0h-153l-110 543l-103 -543h-158l-163 700h140l106 -567l107 567h143l113 -563l92 563h133zM497 753h-105l-157 142h166z" />
    <glyph glyph-name="wgrave" unicode="&#x1e81;" horiz-adv-x="782" 
d="M628 0h-149l-87 388l-93 -388h-148l-143 527h139l82 -398l90 398h142l94 -398l86 398h131zM452 593h-102l-152 146h160z" />
    <glyph glyph-name="Wacute" unicode="&#x1e82;" horiz-adv-x="852" 
d="M695 0h-153l-110 543l-103 -543h-158l-163 700h140l106 -567l107 567h143l113 -563l92 563h133zM480 753h-104l95 142h167z" />
    <glyph glyph-name="wacute" unicode="&#x1e83;" horiz-adv-x="782" 
d="M628 0h-149l-87 388l-93 -388h-148l-143 527h139l82 -398l90 398h142l94 -398l86 398h131zM433 593h-102l94 146h160z" />
    <glyph glyph-name="Wdieresis" unicode="&#x1e84;" horiz-adv-x="852" 
d="M695 0h-153l-110 543l-103 -543h-158l-163 700h140l106 -567l107 567h143l113 -563l92 563h133zM320 899q29 0 51.5 -21.5t22.5 -50.5q0 -30 -22.5 -51.5t-51.5 -21.5t-51.5 21.5t-22.5 51.5q0 29 22.5 50.5t51.5 21.5zM547 899q29 0 51.5 -21.5t22.5 -50.5
q0 -30 -22.5 -51.5t-51.5 -21.5t-51.5 21.5t-22.5 51.5q0 29 22.5 50.5t51.5 21.5z" />
    <glyph glyph-name="wdieresis" unicode="&#x1e85;" horiz-adv-x="782" 
d="M628 0h-149l-87 388l-93 -388h-148l-143 527h139l82 -398l90 398h142l94 -398l86 398h131zM279 739q29 0 51.5 -21.5t22.5 -50.5q0 -30 -22.5 -51.5t-51.5 -21.5t-51.5 21.5t-22.5 51.5q0 29 22.5 50.5t51.5 21.5zM506 739q29 0 51.5 -21.5t22.5 -50.5q0 -30 -22.5 -51.5
t-51.5 -21.5t-51.5 21.5t-22.5 51.5q0 29 22.5 50.5t51.5 21.5z" />
    <glyph glyph-name="uni1E9E" unicode="&#x1e9e;" horiz-adv-x="700" 
d="M432 -19q-48 0 -91 8.5t-91 33.5l42 95q31 -17 61.5 -23t65.5 -6q20 0 41 6t38 19t28 33.5t11 50.5q0 27 -8.5 46.5t-28.5 34.5t-53 26.5t-82 21.5v85l130 151q-25 18 -61 31.5t-87 13.5q-34 0 -62 -8.5t-47.5 -27.5t-30 -50.5t-10.5 -77.5v-444h-133v454
q0 63 19.5 112.5t56.5 83t89.5 51t117.5 17.5q94 0 167.5 -35t130.5 -98l-153 -182q37 -11 70 -27t58 -40.5t39.5 -58.5t14.5 -80q0 -47 -17.5 -86.5t-49 -68t-76 -45t-99.5 -16.5z" />
    <glyph glyph-name="Ygrave" unicode="&#x1ef2;" horiz-adv-x="614" 
d="M372 279v-279h-132v277l-241 423h150l159 -309l159 309h146zM371 753h-105l-157 142h166z" />
    <glyph glyph-name="ygrave" unicode="&#x1ef3;" horiz-adv-x="514" 
d="M341 -25q-11 -36 -26 -65.5t-37.5 -50.5t-55 -32.5t-79.5 -11.5q-20 0 -37.5 2t-31.5 5v93q17 -2 25 -2h20q28 0 46 4.5t29.5 14.5t18 26.5t12.5 41.5h-46l-176 527h142l119 -434l109 434h137zM318 593h-102l-152 146h160z" />
    <glyph glyph-name="uni2007" unicode="&#x2007;" horiz-adv-x="627" 
 />
    <glyph glyph-name="uni2008" unicode="&#x2008;" horiz-adv-x="291" 
 />
    <glyph glyph-name="uni200B" unicode="&#x200b;" horiz-adv-x="0" 
 />
    <glyph glyph-name="figuredash" unicode="&#x2012;" 
d="M562 218h-523v110h523v-110z" />
    <glyph glyph-name="endash" unicode="&#x2013;" horiz-adv-x="539" 
d="M494 251h-449v109h449v-109z" />
    <glyph glyph-name="emdash" unicode="&#x2014;" horiz-adv-x="649" 
d="M605 251h-560v109h560v-109z" />
    <glyph glyph-name="quoteleft" unicode="&#x2018;" horiz-adv-x="292" 
d="M151.917 477.541q-36.1748 0 -59.498 24.2754t-23.3232 60.4502q0 59.0215 29.0352 118.52t77.585 109.952l63.7822 -33.3193q-20.9434 -33.3184 -31.415 -63.3057q-10.4717 -29.9863 -14.2793 -70.9209q19.9912 -13.3281 29.9863 -29.0352
q9.99609 -15.707 9.99609 -39.5068q0 -31.415 -23.3232 -54.2617q-23.3232 -22.8477 -58.5459 -22.8477z" />
    <glyph glyph-name="quoteright" unicode="&#x2019;" horiz-adv-x="291" 
d="M140.092 757.468q36.1768 0 59.502 -24.2764q23.3242 -24.2764 23.3242 -60.4531q0 -59.0264 -29.0371 -118.527q-29.0361 -59.502 -77.5898 -109.959l-63.7852 33.3203q20.9443 33.3213 31.416 63.3096q10.4727 29.9893 14.2812 70.9268
q-19.9932 13.3281 -29.9893 29.0361q-9.99609 15.709 -9.99609 39.5088q0 31.417 23.3242 54.2656q23.3252 22.8486 58.5498 22.8486z" />
    <glyph glyph-name="quotesinglbase" unicode="&#x201a;" horiz-adv-x="291" 
d="M140.092 149.468q36.1768 0 59.502 -24.2764q23.3242 -24.2764 23.3242 -60.4531q0 -59.0264 -29.0371 -118.527q-29.0361 -59.502 -77.5898 -109.959l-63.7852 33.3203q20.9443 33.3213 31.416 63.3096q10.4727 29.9893 14.2812 70.9268
q-19.9932 13.3281 -29.9893 29.0361q-9.99609 15.709 -9.99609 39.5088q0 31.417 23.3242 54.2656q23.3252 22.8486 58.5498 22.8486z" />
    <glyph glyph-name="quotedblleft" unicode="&#x201c;" horiz-adv-x="499" 
d="M358.917 477.541q-36.1748 0 -59.498 24.2754t-23.3232 60.4502q0 59.0215 29.0352 118.52t77.585 109.952l63.7822 -33.3193q-20.9434 -33.3184 -31.415 -63.3057q-10.4717 -29.9863 -14.2793 -70.9209q19.9912 -13.3281 29.9863 -29.0352
q9.99609 -15.707 9.99609 -39.5068q0 -31.415 -23.3232 -54.2617q-23.3232 -22.8477 -58.5459 -22.8477zM151.917 477.541q-36.1748 0 -59.498 24.2754t-23.3232 60.4502q0 59.0215 29.0352 118.52t77.585 109.952l63.7822 -33.3193q-20.9434 -33.3184 -31.415 -63.3057
q-10.4717 -29.9863 -14.2793 -70.9209q19.9912 -13.3281 29.9863 -29.0352q9.99609 -15.707 9.99609 -39.5068q0 -31.415 -23.3232 -54.2617q-23.3232 -22.8477 -58.5459 -22.8477z" />
    <glyph glyph-name="quotedblright" unicode="&#x201d;" horiz-adv-x="498" 
d="M140.092 756.468q36.1768 0 59.502 -24.2764q23.3242 -24.2764 23.3242 -60.4531q0 -59.0264 -29.0371 -118.527q-29.0361 -59.502 -77.5898 -109.959l-63.7852 33.3203q20.9443 33.3213 31.416 63.3096q10.4727 29.9893 14.2812 70.9268
q-19.9932 13.3281 -29.9893 29.0361q-9.99609 15.709 -9.99609 39.5088q0 31.417 23.3242 54.2656q23.3252 22.8486 58.5498 22.8486zM347.092 756.468q36.1768 0 59.502 -24.2764q23.3242 -24.2764 23.3242 -60.4531q0 -59.0264 -29.0371 -118.527
q-29.0361 -59.502 -77.5898 -109.959l-63.7852 33.3203q20.9443 33.3213 31.416 63.3096q10.4727 29.9893 14.2812 70.9268q-19.9932 13.3281 -29.9893 29.0361q-9.99609 15.709 -9.99609 39.5088q0 31.417 23.3242 54.2656q23.3252 22.8486 58.5498 22.8486z" />
    <glyph glyph-name="quotedblbase" unicode="&#x201e;" horiz-adv-x="498" 
d="M140.092 149.468q36.1768 0 59.502 -24.2764q23.3242 -24.2764 23.3242 -60.4531q0 -59.0264 -29.0371 -118.527q-29.0361 -59.502 -77.5898 -109.959l-63.7852 33.3203q20.9443 33.3213 31.416 63.3096q10.4727 29.9893 14.2812 70.9268
q-19.9932 13.3281 -29.9893 29.0361q-9.99609 15.709 -9.99609 39.5088q0 31.417 23.3242 54.2656q23.3252 22.8486 58.5498 22.8486zM347.092 149.468q36.1768 0 59.502 -24.2764q23.3242 -24.2764 23.3242 -60.4531q0 -59.0264 -29.0371 -118.527
q-29.0361 -59.502 -77.5898 -109.959l-63.7852 33.3203q20.9443 33.3213 31.416 63.3096q10.4727 29.9893 14.2812 70.9268q-19.9932 13.3281 -29.9893 29.0361q-9.99609 15.709 -9.99609 39.5088q0 31.417 23.3242 54.2656q23.3252 22.8486 58.5498 22.8486z" />
    <glyph glyph-name="dagger" unicode="&#x2020;" horiz-adv-x="631" 
d="M377 527h164v-105h-164v-586h-125v586h-164v105h164v173h125v-173z" />
    <glyph glyph-name="daggerdbl" unicode="&#x2021;" horiz-adv-x="631" 
d="M377 496h164v-105h-164v-239h164v-104h-164v-212h-125v212h-164v104h164v239h-164v105h164v204h125v-204z" />
    <glyph glyph-name="bullet" unicode="&#x2022;" horiz-adv-x="348" 
d="M175 406q23 0 43.5 -9t36.5 -25t25 -36.5t9 -44.5q0 -23 -9 -43.5t-25 -35.5t-36.5 -24t-43.5 -9q-24 0 -45 9t-36.5 24.5t-25 36t-9.5 43.5q0 24 9.5 44.5t25 36t36.5 24.5t45 9z" />
    <glyph glyph-name="uni2023" unicode="&#x2023;" horiz-adv-x="369" 
d="M69 178v229l229 -114z" />
    <glyph glyph-name="ellipsis" unicode="&#x2026;" horiz-adv-x="867" 
d="M137.714 142.713q15.4521 0 29.542 -6.36328t24.543 -16.8164t16.8164 -24.543t6.36328 -30.4512q0 -31.8154 -22.7256 -54.0859q-22.7246 -22.2705 -54.5391 -22.2705q-16.3623 0 -30.4521 6.36328q-14.0889 6.36328 -24.543 16.8164q-10.4531 10.4541 -16.8164 24.543
q-6.3623 14.0898 -6.3623 29.542q0 16.3623 6.3623 30.4521q6.36328 14.0889 16.8164 24.543q10.4541 10.4531 24.543 16.3613q14.0898 5.90918 30.4521 5.90918zM432.714 142.713q15.4521 0 29.542 -6.36328t24.543 -16.8164t16.8164 -24.543t6.36328 -30.4512
q0 -31.8154 -22.7256 -54.0859q-22.7246 -22.2705 -54.5391 -22.2705q-16.3623 0 -30.4521 6.36328q-14.0889 6.36328 -24.543 16.8164q-10.4531 10.4541 -16.8164 24.543q-6.3623 14.0898 -6.3623 29.542q0 16.3623 6.3623 30.4521q6.36328 14.0889 16.8164 24.543
q10.4541 10.4531 24.543 16.3613q14.0898 5.90918 30.4521 5.90918zM729.714 142.713q15.4521 0 29.542 -6.36328t24.543 -16.8164t16.8164 -24.543t6.36328 -30.4512q0 -31.8154 -22.7256 -54.0859q-22.7246 -22.2705 -54.5391 -22.2705q-16.3623 0 -30.4521 6.36328
q-14.0889 6.36328 -24.543 16.8164q-10.4531 10.4541 -16.8164 24.543q-6.3623 14.0898 -6.3623 29.542q0 16.3623 6.3623 30.4521q6.36328 14.0889 16.8164 24.543q10.4541 10.4531 24.543 16.3613q14.0898 5.90918 30.4521 5.90918z" />
    <glyph glyph-name="perthousand" unicode="&#x2030;" horiz-adv-x="1443" 
d="M227 716q39 0 74 -14t61 -42.5t41.5 -71.5t15.5 -102q0 -60 -15.5 -103.5t-41.5 -71.5t-61 -41.5t-74 -13.5t-74 13.5t-61.5 41.5t-41.5 71.5t-15 103.5q0 59 15 102t41.5 71.5t61.5 42.5t74 14zM342 -12h-100l433 724h100zM228 635q-47 0 -69 -37.5t-22 -109.5
q0 -151 91 -151q90 0 90 149t-90 149zM796 447q39 0 74 -14t61 -42.5t41.5 -72t15.5 -102.5q0 -60 -15.5 -104t-41.5 -72t-61 -41.5t-74 -13.5t-74 13.5t-61.5 41.5t-41.5 72t-15 104q0 59 15 102.5t41.5 72t61.5 42.5t74 14zM1215 447q39 0 74.5 -14t61.5 -42.5t41.5 -72
t15.5 -102.5q0 -60 -15.5 -104t-41.5 -72t-61.5 -41.5t-74.5 -13.5t-73.5 13.5t-61 41.5t-41.5 72t-15 104q0 59 15 102.5t41.5 72t61 42.5t73.5 14zM796 364q-91 0 -91 -147q0 -149 91 -149q90 0 90 148t-90 148zM1215 364q-90 0 -90 -147q0 -149 90 -149q91 0 91 148
t-91 148z" />
    <glyph glyph-name="guilsinglleft" unicode="&#x2039;" horiz-adv-x="284" 
d="M249 448l-94 -170l94 -170l-71 -51l-143 161v120l143 161z" />
    <glyph glyph-name="guilsinglright" unicode="&#x203a;" horiz-adv-x="284" 
d="M249 338v-120l-142 -161l-72 51l94 170l-94 170l72 51z" />
    <glyph glyph-name="uni203D" unicode="&#x203d;" horiz-adv-x="528" 
d="M265 714q64 0 109 -17.5t73.5 -45.5t41.5 -61.5t13 -64.5q0 -45 -13.5 -75t-33.5 -51.5t-44 -37t-44 -31.5t-33.5 -35.5t-13.5 -48.5v-27h-109l-19 271v102q-23 -14 -37.5 -36.5t-24.5 -51.5l-109 33q9 29 28 60t49 57t71.5 43t95.5 17zM302 392q13 15 26.5 28t24 27.5
t17 31.5t6.5 39q0 67 -64 85v-113zM265 152q34 0 58.5 -24.5t24.5 -59.5q0 -34 -24.5 -58t-58.5 -24q-35 0 -59.5 24.5t-24.5 58.5q0 35 24.5 59t59.5 24z" />
    <glyph glyph-name="fraction" unicode="&#x2044;" horiz-adv-x="253" 
d="M-40 -12h-100l433 724h100z" />
    <glyph glyph-name="uni2070" unicode="&#x2070;" horiz-adv-x="400" 
d="M200 762q82 0 129.5 -55t47.5 -165q0 -112 -47 -167t-130 -55q-82 0 -129 55t-47 167q0 110 46.5 165t129.5 55zM199 679q-38 0 -53.5 -33.5t-15.5 -103.5q0 -69 15.5 -104t53.5 -35t54 35t16 104q0 70 -16 103.5t-54 33.5z" />
    <glyph glyph-name="uni2074" unicode="&#x2074;" horiz-adv-x="400" 
d="M329 485h56v-83h-56v-72h-102v72h-213v86l180 262h135v-265zM114 485h113v163z" />
    <glyph glyph-name="uni2075" unicode="&#x2075;" horiz-adv-x="400" 
d="M341 668h-186l-12 -81q21 18 44.5 25t49.5 7q28 0 53.5 -9.5t45 -28t31.5 -45t12 -59.5q0 -34 -12 -62.5t-35 -49.5t-58 -33t-80 -12q-72 0 -114.5 30.5t-57.5 73.5l94 29q19 -52 80 -52q37 0 55.5 21t18.5 49q0 30 -19 47t-52 17q-24 0 -41.5 -9t-29.5 -23l-91 14
l34 233h283z" />
    <glyph glyph-name="uni2076" unicode="&#x2076;" horiz-adv-x="400" 
d="M213 762q54 0 93 -22t59 -66l-89 -30q-8 18 -25 28t-38 10q-38 0 -60.5 -28.5t-27.5 -92.5q20 28 49.5 39t59.5 11q28 0 53.5 -9t45.5 -26t32 -43t12 -59q0 -38 -13 -66.5t-36.5 -48t-55 -29.5t-67.5 -10q-38 0 -71 10.5t-57.5 34.5t-39 63t-14.5 96q0 115 51.5 176.5
t138.5 61.5zM205 531q-28 0 -46.5 -17t-18.5 -47t18.5 -48t44.5 -18t44.5 17t18.5 49q0 29 -15.5 46.5t-45.5 17.5z" />
    <glyph glyph-name="uni2077" unicode="&#x2077;" horiz-adv-x="400" 
d="M367 667q-33 -39 -58 -75.5t-42.5 -75.5t-29 -84t-18.5 -102h-114q9 66 24 116t36 89t47 70.5t55 60.5h-143v-48h-90v132h333v-83z" />
    <glyph glyph-name="uni2078" unicode="&#x2078;" horiz-adv-x="400" 
d="M198 320q-51 0 -86 11.5t-57.5 29.5t-32.5 40t-10 43q0 38 22 64.5t60 40.5q-35 22 -46.5 46t-11.5 50q0 22 9.5 43t29.5 37.5t50.5 26.5t72.5 10t73 -9.5t51 -25.5t30 -35.5t10 -39.5q0 -26 -17.5 -52t-49.5 -40q27 -10 45 -20.5t28.5 -23.5t14.5 -29t4 -35
q0 -23 -9.5 -46t-31 -42.5t-58 -31.5t-90.5 -12zM221 586q21 14 29.5 28.5t8.5 28.5q0 20 -15.5 31.5t-43.5 11.5t-43.5 -11.5t-15.5 -31.5q0 -19 12.5 -29.5t44.5 -20.5zM198 401q44 0 61.5 16t17.5 33q0 12 -4 20.5t-13.5 15t-25 12t-37.5 12.5l-34 10q-19 -14 -30.5 -30
t-11.5 -37q0 -23 20 -37.5t57 -14.5z" />
    <glyph glyph-name="uni2079" unicode="&#x2079;" horiz-adv-x="400" 
d="M185 317q-58 0 -98 24.5t-59 62.5l86 35q21 -42 73 -42q81 0 85 123q-19 -26 -46.5 -37.5t-60.5 -11.5q-27 0 -53 9t-45.5 26.5t-31.5 44t-12 61.5q0 36 13.5 63.5t37 46.5t55 29t67.5 10q37 0 70 -10.5t58 -34.5t39 -62.5t14 -94.5q0 -116 -48 -179t-144 -63zM196 553
q29 0 47 17t18 48q0 30 -17.5 46t-44.5 16q-28 0 -47 -16.5t-19 -48.5q0 -27 16 -44.5t47 -17.5z" />
    <glyph glyph-name="uni207A" unicode="&#x207a;" horiz-adv-x="377" 
d="M233 564h96v-78h-96v-96h-89v96h-97v78h97v96h89v-96z" />
    <glyph glyph-name="uni207B" unicode="&#x207b;" horiz-adv-x="377" 
d="M329 486h-282v78h282v-78z" />
    <glyph glyph-name="uni207C" unicode="&#x207c;" horiz-adv-x="377" 
d="M329 555h-282v79h282v-79zM329 417h-282v79h282v-79z" />
    <glyph glyph-name="uni2080" unicode="&#x2080;" horiz-adv-x="400" 
d="M200 268q82 0 129.5 -55t47.5 -165q0 -112 -47 -167t-130 -55q-82 0 -129 55t-47 167q0 110 46.5 165t129.5 55zM199 185q-38 0 -53.5 -33.5t-15.5 -103.5q0 -69 15.5 -104t53.5 -35t54 35t16 104q0 70 -16 103.5t-54 33.5z" />
    <glyph glyph-name="uni2081" unicode="&#x2081;" horiz-adv-x="400" 
d="M66 -81h107v193h-108v69h12q32 0 53 5t34 15t19 23.5t9 31.5h85v-337h85v-83h-296v83z" />
    <glyph glyph-name="uni2082" unicode="&#x2082;" horiz-adv-x="400" 
d="M201 268q74 0 116.5 -35.5t42.5 -92.5q0 -66 -46.5 -117.5t-140.5 -103.5h194v-83h-335v80q59 40 100 71t67 56.5t37.5 48t11.5 45.5q0 49 -51 49q-55 0 -57 -71h-107q0 32 10 60t31 48.5t52.5 32.5t74.5 12z" />
    <glyph glyph-name="uni2083" unicode="&#x2083;" horiz-adv-x="400" 
d="M204 268q78 0 119 -33t41 -82q0 -38 -23.5 -61.5t-61.5 -31.5q41 -5 69.5 -30t28.5 -71q0 -62 -47.5 -97.5t-128.5 -35.5q-69 0 -116.5 31t-61.5 88l98 23q7 -28 27.5 -43.5t52.5 -15.5q29 0 47.5 14t18.5 41q0 26 -18.5 39.5t-49.5 13.5h-46v77h39q23 0 43.5 9.5
t20.5 37.5q0 23 -16.5 34t-39.5 11q-26 0 -45 -12t-27 -39l-97 16q14 52 59 84.5t114 32.5z" />
    <glyph glyph-name="uni2084" unicode="&#x2084;" horiz-adv-x="400" 
d="M329 -9h56v-83h-56v-72h-102v72h-213v86l180 262h135v-265zM114 -9h113v163z" />
    <glyph glyph-name="uni2085" unicode="&#x2085;" horiz-adv-x="400" 
d="M341 174h-186l-12 -81q21 18 44.5 25t49.5 7q28 0 53.5 -9.5t45 -28t31.5 -45t12 -59.5q0 -34 -12 -62.5t-35 -49.5t-58 -33t-80 -12q-72 0 -114.5 30.5t-57.5 73.5l94 29q19 -52 80 -52q37 0 55.5 21t18.5 49q0 30 -19 47t-52 17q-24 0 -41.5 -9t-29.5 -23l-91 14
l34 233h283z" />
    <glyph glyph-name="uni2086" unicode="&#x2086;" horiz-adv-x="400" 
d="M213 268q54 0 93 -22t59 -66l-89 -30q-8 18 -25 28t-38 10q-38 0 -60.5 -28.5t-27.5 -92.5q20 28 49.5 39t59.5 11q28 0 53.5 -9t45.5 -26t32 -43t12 -59q0 -38 -13 -66.5t-36.5 -48t-55 -29.5t-67.5 -10q-38 0 -71 10.5t-57.5 34.5t-39 63t-14.5 96q0 115 51.5 176.5
t138.5 61.5zM205 37q-28 0 -46.5 -17t-18.5 -47t18.5 -48t44.5 -18t44.5 17t18.5 49q0 29 -15.5 46.5t-45.5 17.5z" />
    <glyph glyph-name="uni2087" unicode="&#x2087;" horiz-adv-x="400" 
d="M367 173q-33 -39 -58 -75.5t-42.5 -75.5t-29 -84t-18.5 -102h-114q9 66 24 116t36 89t47 70.5t55 60.5h-143v-48h-90v132h333v-83z" />
    <glyph glyph-name="uni2088" unicode="&#x2088;" horiz-adv-x="400" 
d="M198 -174q-51 0 -86 11.5t-57.5 29.5t-32.5 40t-10 43q0 38 22 64.5t60 40.5q-35 22 -46.5 46t-11.5 50q0 22 9.5 43t29.5 37.5t50.5 26.5t72.5 10t73 -9.5t51 -25.5t30 -35.5t10 -39.5q0 -26 -17.5 -52t-49.5 -40q27 -10 45 -20.5t28.5 -23.5t14.5 -29t4 -35
q0 -23 -9.5 -46t-31 -42.5t-58 -31.5t-90.5 -12zM221 92q21 14 29.5 28.5t8.5 28.5q0 20 -15.5 31.5t-43.5 11.5t-43.5 -11.5t-15.5 -31.5q0 -19 12.5 -29.5t44.5 -20.5zM198 -93q44 0 61.5 16t17.5 33q0 12 -4 20.5t-13.5 15t-25 12t-37.5 12.5l-34 10q-19 -14 -30.5 -30
t-11.5 -37q0 -23 20 -37.5t57 -14.5z" />
    <glyph glyph-name="uni2089" unicode="&#x2089;" horiz-adv-x="400" 
d="M185 -177q-58 0 -98 24.5t-59 62.5l86 35q21 -42 73 -42q81 0 85 123q-19 -26 -46.5 -37.5t-60.5 -11.5q-27 0 -53 9t-45.5 26.5t-31.5 44t-12 61.5q0 36 13.5 63.5t37 46.5t55 29t67.5 10q37 0 70 -10.5t58 -34.5t39 -62.5t14 -94.5q0 -116 -48 -179t-144 -63zM196 59
q29 0 47 17t18 48q0 30 -17.5 46t-44.5 16q-28 0 -47 -16.5t-19 -48.5q0 -27 16 -44.5t47 -17.5z" />
    <glyph glyph-name="uni208A" unicode="&#x208a;" horiz-adv-x="377" 
d="M233 75h96v-78h-96v-96h-89v96h-97v78h97v96h89v-96z" />
    <glyph glyph-name="uni208B" unicode="&#x208b;" horiz-adv-x="377" 
d="M329 -3h-282v78h282v-78z" />
    <glyph glyph-name="uni208C" unicode="&#x208c;" horiz-adv-x="377" 
d="M329 59h-282v79h282v-79zM329 -79h-282v79h282v-79z" />
    <glyph glyph-name="uni208D" unicode="&#x208d;" horiz-adv-x="300" 
d="M238 295q-21 -38 -34.5 -68.5t-21.5 -59.5t-11 -57.5t-3 -61.5t3 -61.5t11 -57t21.5 -59.5t34.5 -68h-72q-45 57 -67.5 122t-22.5 124t23 124.5t67 122.5h72z" />
    <glyph glyph-name="uni208E" unicode="&#x208e;" horiz-adv-x="300" 
d="M149 295q44 -57 67 -122.5t23 -124.5t-22.5 -124t-67.5 -122h-72q21 37 34.5 68t21.5 59.5t11 57t3 61.5t-3 61.5t-11 57.5t-21.5 59.5t-34.5 68.5h72z" />
    <glyph glyph-name="Euro" unicode="&#x20ac;" horiz-adv-x="660" 
d="M415 717q59 0 110.5 -18.5t93.5 -56.5l-41 -110q-33 36 -70.5 56t-87.5 20q-72 0 -111 -41t-54 -115h293l-25 -72h-277q-1 -17 -1.5 -33t1.5 -32h254l-25 -72h-222q6 -36 17 -63.5t30.5 -47t47.5 -29.5t68 -10q30 0 55 6.5t45.5 16.5t36 21.5t27.5 21.5v-125
q-35 -22 -80 -36.5t-95 -14.5q-53 0 -100 14t-83.5 44.5t-62 80t-36.5 121.5h-101l25 72h70q-2 32 0 65h-88l25 72h70q12 68 39.5 118t66 82.5t86 48.5t99.5 16z" />
    <glyph glyph-name="uni20B9" unicode="&#x20b9;" 
d="M540 625h-132q24 -20 38 -47t19 -59h75v-72h-76q-8 -41 -30.5 -72.5t-54 -52.5t-69.5 -31.5t-76 -10.5h-18l268 -280h-154l-266 278v96h136q54 0 83 19t40 54h-259v72h265q-7 49 -41 77.5t-93 28.5h-131v75h476v-75z" />
    <glyph glyph-name="uni20BA" unicode="&#x20ba;" 
d="M540 228q-3 -47 -21.5 -90.5t-53 -77t-85.5 -53.5t-118 -20q-73 0 -122 13v316l-81 -43v72l81 43v71l-81 -43v72l81 43v169h128v-101l177 94v-72l-177 -94v-70l177 94v-72l-177 -94v-290q5 -1 11 -1.5t12 -0.5q66 0 100 39t43 96h106z" />
    <glyph glyph-name="uni20BD" unicode="&#x20bd;" 
d="M197 266v-60h212v-72h-212v-134h-133v134h-53v72h53v60h-53v104h53v330h259q68 0 117 -16.5t81 -45.5t47.5 -68.5t15.5 -85.5q0 -102 -65 -160t-193 -58h-129zM197 370h130q24 0 45.5 5t38 17.5t26.5 34.5t10 56q0 52 -31.5 78.5t-85.5 26.5h-133v-218z" />
    <glyph glyph-name="afii61248" unicode="&#x2105;" horiz-adv-x="900" 
d="M274 -12h-100l433 724h100zM226 684q51 0 86 -23t53 -61l-67 -28q-10 22 -27 34t-43 12q-36 0 -58 -25.5t-22 -73.5q0 -49 21.5 -75t58.5 -26q33 0 49.5 16.5t25.5 38.5l67 -28q-19 -41 -54.5 -67t-89.5 -26q-39 0 -69 12.5t-51 34.5t-31.5 53t-10.5 67t11 66t32 52
t51 34.5t68 12.5zM672 324q38 0 68.5 -13t51.5 -35t32.5 -52.5t11.5 -64.5q0 -37 -11 -68t-32 -53t-51.5 -34t-69.5 -12q-78 0 -120.5 47t-42.5 120q0 36 11 66t32 52t51.5 34.5t68.5 12.5zM672 258q-37 0 -58.5 -25.5t-21.5 -73.5t21 -74.5t59 -26.5t59 26.5t21 74.5
t-22 73.5t-58 25.5z" />
    <glyph glyph-name="afii61289" unicode="&#x2113;" 
d="M370 -18q-46 0 -78 13t-51.5 35.5t-28 52t-8.5 61.5v56l-55 -59l-36 64l90 95v257q0 81 42 121t111 40q63 0 95.5 -32.5t32.5 -86.5q0 -37 -10 -72.5t-29 -73t-48 -78.5t-66 -89v-117q0 -45 19 -64t55 -19q31 0 70 12v-96q-23 -9 -51 -14.5t-54 -5.5zM331 405
q32 54 48 97.5t16 81.5q0 53 -29 53q-14 0 -24.5 -17t-10.5 -62v-153z" />
    <glyph glyph-name="afii61352" unicode="&#x2116;" horiz-adv-x="1200" 
d="M937 370q-39 0 -69 12.5t-51 35t-32 53t-11 66.5t11 66t32 52t51.5 34.5t68.5 12.5t68.5 -13t51.5 -35t32.5 -52.5t11.5 -64.5q0 -37 -11 -68t-32 -53t-51.5 -34t-69.5 -12zM697 0h-150l-288 488v-488h-122v700h147l290 -501v501h123v-700zM938 436q38 0 59 26.5t21 74.5
t-22 74t-58 26q-37 0 -58.5 -26t-21.5 -74t21 -74.5t59 -26.5zM789 305h302v-78h-302v78z" />
    <glyph glyph-name="uni2117" unicode="&#x2117;" horiz-adv-x="900" 
d="M451 -17q-78 0 -146 28t-118 77.5t-78.5 116.5t-28.5 144t28.5 144.5t78.5 117t118 78t146 28.5t145.5 -28.5t117 -78t77.5 -117t28 -144.5t-28 -144t-77.5 -116.5t-117 -77.5t-145.5 -28zM451 49q65 0 119.5 24t93.5 64.5t61 95t22 116.5q0 61 -22 116t-61 96.5
t-93.5 65.5t-119.5 24t-120 -24.5t-94.5 -65.5t-61.5 -96t-22 -116t22 -115.5t61.5 -95.5t94 -65t120.5 -24zM317 557h164q73 0 114.5 -33.5t41.5 -93.5q0 -27 -9.5 -50.5t-29 -41t-49.5 -28t-71 -10.5h-79v-154h-82v411zM480 365q29 0 49.5 15t20.5 51q0 29 -19.5 44
t-47.5 15h-84v-125h81z" />
    <glyph glyph-name="uni2120" unicode="&#x2120;" horiz-adv-x="1200" 
d="M311 711q68 0 113.5 -21.5t75.5 -52.5l-67 -54q-14 16 -43 32t-79 16q-36 0 -56 -12t-20 -31q0 -9 4 -16.5t15.5 -14t33 -12.5t56.5 -13q85 -17 124 -47t39 -89q0 -63 -50 -99.5t-141 -36.5q-58 0 -113.5 19.5t-93.5 62.5l70 58q26 -28 58.5 -44.5t80.5 -16.5
q38 0 64 13.5t26 36.5q0 11 -4 19t-16.5 15t-35 13.5t-59.5 13.5q-78 15 -119 46t-41 87q0 29 13 52.5t36.5 40.5t56.5 26t72 9zM1078 265h-100l-18 318l-87 -318h-109l-86 316l-17 -316h-98l26 435h147l84 -325l84 325h146z" />
    <glyph glyph-name="trademark" unicode="&#x2122;" horiz-adv-x="1000" 
d="M414 613h-134v-348h-104v348h-135v87h373v-87zM948 265h-100l-17 318l-88 -318h-108l-86 316l-17 -316h-99l27 435h147l84 -325l83 325h147z" />
    <glyph glyph-name="uni2126" unicode="&#x2126;" horiz-adv-x="781" 
d="M390 717q59 0 119.5 -18.5t109 -61t79.5 -111.5t31 -170q0 -97 -30.5 -155t-79.5 -91h105v-110h-260v110q33 12 56.5 35t39.5 55.5t23.5 71.5t7.5 82q0 118 -52 183.5t-149 65.5q-91 0 -146 -63.5t-55 -182.5q0 -44 8 -83.5t23.5 -72t39.5 -56t57 -35.5v-110h-260v110
h108q-51 34 -82 92t-31 155t29 165.5t76.5 111.5t108 63t124.5 20z" />
    <glyph glyph-name="estimated" unicode="&#x212e;" horiz-adv-x="945" 
d="M472 716q80 0 153 -27.5t128.5 -77.5t88.5 -119t33 -153h-657v-218q16 -24 44.5 -42t63.5 -30.5t73.5 -18.5t73.5 -6t72.5 6t72 18t64.5 30.5t51 43.5h58q-55 -65 -134.5 -101.5t-184.5 -36.5q-86 0 -159.5 27t-127.5 75.5t-84.5 115t-30.5 145.5t31.5 146.5t86.5 117
t128 77.5t156 28zM473 676q-88 0 -152.5 -26.5t-102.5 -74.5v-196h509v196q-42 46 -104 73.5t-150 27.5z" />
    <glyph glyph-name="uni2150" unicode="&#x2150;" horiz-adv-x="1023" 
d="M350 -12h-100l433 724h100zM990 337q-33 -39 -58 -75.5t-42.5 -75.5t-29 -84t-18.5 -102h-114q9 66 24 116t36 89t47 70.5t55 60.5h-143v-48h-90v132h333v-83zM66 363h107v193h-108v69h12q32 0 53 5t34 15t19 23.5t9 31.5h85v-337h85v-83h-296v83z" />
    <glyph glyph-name="uni2151" unicode="&#x2151;" horiz-adv-x="993" 
d="M350 -12h-100l433 724h100zM778 -12q-58 0 -98 24.5t-59 62.5l86 35q21 -42 73 -42q81 0 85 123q-19 -26 -46.5 -37.5t-60.5 -11.5q-27 0 -53 9t-45.5 26.5t-31.5 44t-12 61.5q0 36 13.5 63.5t37 46.5t55 29t67.5 10q37 0 70 -10.5t58 -34.5t39 -62.5t14 -94.5
q0 -116 -48 -179t-144 -63zM789 224q29 0 47 17t18 48q0 30 -17.5 46t-44.5 16q-28 0 -47 -16.5t-19 -48.5q0 -27 16 -44.5t47 -17.5zM66 363h107v193h-108v69h12q32 0 53 5t34 15t19 23.5t9 31.5h85v-337h85v-83h-296v83z" />
    <glyph glyph-name="uni2152" unicode="&#x2152;" horiz-adv-x="1383" 
d="M350 -12h-100l433 724h100zM649 83h107v193h-108v69h12q32 0 53 5t34 15t19 23.5t9 31.5h85v-337h85v-83h-296v83zM1183 432q82 0 129.5 -55t47.5 -165q0 -112 -47 -167t-130 -55q-82 0 -129 55t-47 167q0 110 46.5 165t129.5 55zM1182 349q-38 0 -53.5 -33.5
t-15.5 -103.5q0 -69 15.5 -104t53.5 -35t54 35t16 104q0 70 -16 103.5t-54 33.5zM66 363h107v193h-108v69h12q32 0 53 5t34 15t19 23.5t9 31.5h85v-337h85v-83h-296v83z" />
    <glyph glyph-name="onethird" unicode="&#x2153;" horiz-adv-x="993" 
d="M350 -12h-100l433 724h100zM797 432q78 0 119 -33t41 -82q0 -38 -23.5 -61.5t-61.5 -31.5q41 -5 69.5 -30t28.5 -71q0 -62 -47.5 -97.5t-128.5 -35.5q-69 0 -116.5 31t-61.5 88l98 23q7 -28 27.5 -43.5t52.5 -15.5q29 0 47.5 14t18.5 41q0 26 -18.5 39.5t-49.5 13.5h-46
v77h39q23 0 43.5 9.5t20.5 37.5q0 23 -16.5 34t-39.5 11q-26 0 -45 -12t-27 -39l-97 16q14 52 59 84.5t114 32.5zM66 363h107v193h-108v69h12q32 0 53 5t34 15t19 23.5t9 31.5h85v-337h85v-83h-296v83z" />
    <glyph glyph-name="twothirds" unicode="&#x2154;" horiz-adv-x="993" 
d="M350 -12h-100l433 724h100zM797 432q78 0 119 -33t41 -82q0 -38 -23.5 -61.5t-61.5 -31.5q41 -5 69.5 -30t28.5 -71q0 -62 -47.5 -97.5t-128.5 -35.5q-69 0 -116.5 31t-61.5 88l98 23q7 -28 27.5 -43.5t52.5 -15.5q29 0 47.5 14t18.5 41q0 26 -18.5 39.5t-49.5 13.5h-46
v77h39q23 0 43.5 9.5t20.5 37.5q0 23 -16.5 34t-39.5 11q-26 0 -45 -12t-27 -39l-97 16q14 52 59 84.5t114 32.5zM201 712q74 0 116.5 -35.5t42.5 -92.5q0 -66 -46.5 -117.5t-140.5 -103.5h194v-83h-335v80q59 40 100 71t67 56.5t37.5 48t11.5 45.5q0 49 -51 49
q-55 0 -57 -71h-107q0 32 10 60t31 48.5t52.5 32.5t74.5 12z" />
    <glyph glyph-name="uni2155" unicode="&#x2155;" horiz-adv-x="1003" 
d="M350 -12h-100l433 724h100zM944 338h-186l-12 -81q21 18 44.5 25t49.5 7q28 0 53.5 -9.5t45 -28t31.5 -45t12 -59.5q0 -34 -12 -62.5t-35 -49.5t-58 -33t-80 -12q-72 0 -114.5 30.5t-57.5 73.5l94 29q19 -52 80 -52q37 0 55.5 21t18.5 49q0 30 -19 47t-52 17
q-24 0 -41.5 -9t-29.5 -23l-91 14l34 233h283zM66 363h107v193h-108v69h12q32 0 53 5t34 15t19 23.5t9 31.5h85v-337h85v-83h-296v83z" />
    <glyph glyph-name="uni2156" unicode="&#x2156;" horiz-adv-x="1003" 
d="M350 -12h-100l433 724h100zM944 338h-186l-12 -81q21 18 44.5 25t49.5 7q28 0 53.5 -9.5t45 -28t31.5 -45t12 -59.5q0 -34 -12 -62.5t-35 -49.5t-58 -33t-80 -12q-72 0 -114.5 30.5t-57.5 73.5l94 29q19 -52 80 -52q37 0 55.5 21t18.5 49q0 30 -19 47t-52 17
q-24 0 -41.5 -9t-29.5 -23l-91 14l34 233h283zM201 712q74 0 116.5 -35.5t42.5 -92.5q0 -66 -46.5 -117.5t-140.5 -103.5h194v-83h-335v80q59 40 100 71t67 56.5t37.5 48t11.5 45.5q0 49 -51 49q-55 0 -57 -71h-107q0 32 10 60t31 48.5t52.5 32.5t74.5 12z" />
    <glyph glyph-name="uni2157" unicode="&#x2157;" horiz-adv-x="963" 
d="M310 -12h-100l433 724h100zM904 338h-186l-12 -81q21 18 44.5 25t49.5 7q28 0 53.5 -9.5t45 -28t31.5 -45t12 -59.5q0 -34 -12 -62.5t-35 -49.5t-58 -33t-80 -12q-72 0 -114.5 30.5t-57.5 73.5l94 29q19 -52 80 -52q37 0 55.5 21t18.5 49q0 30 -19 47t-52 17
q-24 0 -41.5 -9t-29.5 -23l-91 14l34 233h283zM204 712q78 0 119 -33t41 -82q0 -38 -23.5 -61.5t-61.5 -31.5q41 -5 69.5 -30t28.5 -71q0 -62 -47.5 -97.5t-128.5 -35.5q-69 0 -116.5 31t-61.5 88l98 23q7 -28 27.5 -43.5t52.5 -15.5q29 0 47.5 14t18.5 41q0 26 -18.5 39.5
t-49.5 13.5h-46v77h39q23 0 43.5 9.5t20.5 37.5q0 23 -16.5 34t-39.5 11q-26 0 -45 -12t-27 -39l-97 16q14 52 59 84.5t114 32.5z" />
    <glyph glyph-name="uni2158" unicode="&#x2158;" horiz-adv-x="993" 
d="M340 -12h-100l433 724h100zM934 338h-186l-12 -81q21 18 44.5 25t49.5 7q28 0 53.5 -9.5t45 -28t31.5 -45t12 -59.5q0 -34 -12 -62.5t-35 -49.5t-58 -33t-80 -12q-72 0 -114.5 30.5t-57.5 73.5l94 29q19 -52 80 -52q37 0 55.5 21t18.5 49q0 30 -19 47t-52 17
q-24 0 -41.5 -9t-29.5 -23l-91 14l34 233h283zM329 435h56v-83h-56v-72h-102v72h-213v86l180 262h135v-265zM114 435h113v163z" />
    <glyph glyph-name="uni2159" unicode="&#x2159;" horiz-adv-x="983" 
d="M350 -12h-100l433 724h100zM796 432q54 0 93 -22t59 -66l-89 -30q-8 18 -25 28t-38 10q-38 0 -60.5 -28.5t-27.5 -92.5q20 28 49.5 39t59.5 11q28 0 53.5 -9t45.5 -26t32 -43t12 -59q0 -38 -13 -66.5t-36.5 -48t-55 -29.5t-67.5 -10q-38 0 -71 10.5t-57.5 34.5t-39 63
t-14.5 96q0 115 51.5 176.5t138.5 61.5zM788 201q-28 0 -46.5 -17t-18.5 -47t18.5 -48t44.5 -18t44.5 17t18.5 49q0 29 -15.5 46.5t-45.5 17.5zM66 363h107v193h-108v69h12q32 0 53 5t34 15t19 23.5t9 31.5h85v-337h85v-83h-296v83z" />
    <glyph glyph-name="uni215A" unicode="&#x215a;" horiz-adv-x="943" 
d="M310 -12h-100l433 724h100zM756 432q54 0 93 -22t59 -66l-89 -30q-8 18 -25 28t-38 10q-38 0 -60.5 -28.5t-27.5 -92.5q20 28 49.5 39t59.5 11q28 0 53.5 -9t45.5 -26t32 -43t12 -59q0 -38 -13 -66.5t-36.5 -48t-55 -29.5t-67.5 -10q-38 0 -71 10.5t-57.5 34.5t-39 63
t-14.5 96q0 115 51.5 176.5t138.5 61.5zM748 201q-28 0 -46.5 -17t-18.5 -47t18.5 -48t44.5 -18t44.5 17t18.5 49q0 29 -15.5 46.5t-45.5 17.5zM341 618h-186l-12 -81q21 18 44.5 25t49.5 7q28 0 53.5 -9.5t45 -28t31.5 -45t12 -59.5q0 -34 -12 -62.5t-35 -49.5t-58 -33
t-80 -12q-72 0 -114.5 30.5t-57.5 73.5l94 29q19 -52 80 -52q37 0 55.5 21t18.5 49q0 30 -19 47t-52 17q-24 0 -41.5 -9t-29.5 -23l-91 14l34 233h283z" />
    <glyph glyph-name="oneeighth" unicode="&#x215b;" horiz-adv-x="993" 
d="M350 -12h-100l433 724h100zM791 -10q-51 0 -86 11.5t-57.5 29.5t-32.5 40t-10 43q0 38 22 64.5t60 40.5q-35 22 -46.5 46t-11.5 50q0 22 9.5 43t29.5 37.5t50.5 26.5t72.5 10t73 -9.5t51 -25.5t30 -35.5t10 -39.5q0 -26 -17.5 -52t-49.5 -40q27 -10 45 -20.5t28.5 -23.5
t14.5 -29t4 -35q0 -23 -9.5 -46t-31 -42.5t-58 -31.5t-90.5 -12zM814 256q21 14 29.5 28.5t8.5 28.5q0 20 -15.5 31.5t-43.5 11.5t-43.5 -11.5t-15.5 -31.5q0 -19 12.5 -29.5t44.5 -20.5zM791 71q44 0 61.5 16t17.5 33q0 12 -4 20.5t-13.5 15t-25 12t-37.5 12.5l-34 10
q-19 -14 -30.5 -30t-11.5 -37q0 -23 20 -37.5t57 -14.5zM66 363h107v193h-108v69h12q32 0 53 5t34 15t19 23.5t9 31.5h85v-337h85v-83h-296v83z" />
    <glyph glyph-name="threeeighths" unicode="&#x215c;" horiz-adv-x="953" 
d="M310 -12h-100l433 724h100zM751 -10q-51 0 -86 11.5t-57.5 29.5t-32.5 40t-10 43q0 38 22 64.5t60 40.5q-35 22 -46.5 46t-11.5 50q0 22 9.5 43t29.5 37.5t50.5 26.5t72.5 10t73 -9.5t51 -25.5t30 -35.5t10 -39.5q0 -26 -17.5 -52t-49.5 -40q27 -10 45 -20.5t28.5 -23.5
t14.5 -29t4 -35q0 -23 -9.5 -46t-31 -42.5t-58 -31.5t-90.5 -12zM774 256q21 14 29.5 28.5t8.5 28.5q0 20 -15.5 31.5t-43.5 11.5t-43.5 -11.5t-15.5 -31.5q0 -19 12.5 -29.5t44.5 -20.5zM751 71q44 0 61.5 16t17.5 33q0 12 -4 20.5t-13.5 15t-25 12t-37.5 12.5l-34 10
q-19 -14 -30.5 -30t-11.5 -37q0 -23 20 -37.5t57 -14.5zM204 712q78 0 119 -33t41 -82q0 -38 -23.5 -61.5t-61.5 -31.5q41 -5 69.5 -30t28.5 -71q0 -62 -47.5 -97.5t-128.5 -35.5q-69 0 -116.5 31t-61.5 88l98 23q7 -28 27.5 -43.5t52.5 -15.5q29 0 47.5 14t18.5 41
q0 26 -18.5 39.5t-49.5 13.5h-46v77h39q23 0 43.5 9.5t20.5 37.5q0 23 -16.5 34t-39.5 11q-26 0 -45 -12t-27 -39l-97 16q14 52 59 84.5t114 32.5z" />
    <glyph glyph-name="fiveeighths" unicode="&#x215d;" horiz-adv-x="953" 
d="M310 -12h-100l433 724h100zM751 -10q-51 0 -86 11.5t-57.5 29.5t-32.5 40t-10 43q0 38 22 64.5t60 40.5q-35 22 -46.5 46t-11.5 50q0 22 9.5 43t29.5 37.5t50.5 26.5t72.5 10t73 -9.5t51 -25.5t30 -35.5t10 -39.5q0 -26 -17.5 -52t-49.5 -40q27 -10 45 -20.5t28.5 -23.5
t14.5 -29t4 -35q0 -23 -9.5 -46t-31 -42.5t-58 -31.5t-90.5 -12zM774 256q21 14 29.5 28.5t8.5 28.5q0 20 -15.5 31.5t-43.5 11.5t-43.5 -11.5t-15.5 -31.5q0 -19 12.5 -29.5t44.5 -20.5zM751 71q44 0 61.5 16t17.5 33q0 12 -4 20.5t-13.5 15t-25 12t-37.5 12.5l-34 10
q-19 -14 -30.5 -30t-11.5 -37q0 -23 20 -37.5t57 -14.5zM341 618h-186l-12 -81q21 18 44.5 25t49.5 7q28 0 53.5 -9.5t45 -28t31.5 -45t12 -59.5q0 -34 -12 -62.5t-35 -49.5t-58 -33t-80 -12q-72 0 -114.5 30.5t-57.5 73.5l94 29q19 -52 80 -52q37 0 55.5 21t18.5 49
q0 30 -19 47t-52 17q-24 0 -41.5 -9t-29.5 -23l-91 14l34 233h283z" />
    <glyph glyph-name="seveneighths" unicode="&#x215e;" horiz-adv-x="903" 
d="M260 -12h-100l433 724h100zM701 -10q-51 0 -86 11.5t-57.5 29.5t-32.5 40t-10 43q0 38 22 64.5t60 40.5q-35 22 -46.5 46t-11.5 50q0 22 9.5 43t29.5 37.5t50.5 26.5t72.5 10t73 -9.5t51 -25.5t30 -35.5t10 -39.5q0 -26 -17.5 -52t-49.5 -40q27 -10 45 -20.5t28.5 -23.5
t14.5 -29t4 -35q0 -23 -9.5 -46t-31 -42.5t-58 -31.5t-90.5 -12zM724 256q21 14 29.5 28.5t8.5 28.5q0 20 -15.5 31.5t-43.5 11.5t-43.5 -11.5t-15.5 -31.5q0 -19 12.5 -29.5t44.5 -20.5zM701 71q44 0 61.5 16t17.5 33q0 12 -4 20.5t-13.5 15t-25 12t-37.5 12.5l-34 10
q-19 -14 -30.5 -30t-11.5 -37q0 -23 20 -37.5t57 -14.5zM367 617q-33 -39 -58 -75.5t-42.5 -75.5t-29 -84t-18.5 -102h-114q9 66 24 116t36 89t47 70.5t55 60.5h-143v-48h-90v132h333v-83z" />
    <glyph glyph-name="uni215F" unicode="&#x215f;" horiz-adv-x="643" 
d="M350 -12h-100l433 724h100zM66 363h107v193h-108v69h12q32 0 53 5t34 15t19 23.5t9 31.5h85v-337h85v-83h-296v83z" />
    <glyph glyph-name="uni2189" unicode="&#x2189;" horiz-adv-x="943" 
d="M300 -12h-100l433 724h100zM747 432q78 0 119 -33t41 -82q0 -38 -23.5 -61.5t-61.5 -31.5q41 -5 69.5 -30t28.5 -71q0 -62 -47.5 -97.5t-128.5 -35.5q-69 0 -116.5 31t-61.5 88l98 23q7 -28 27.5 -43.5t52.5 -15.5q29 0 47.5 14t18.5 41q0 26 -18.5 39.5t-49.5 13.5h-46
v77h39q23 0 43.5 9.5t20.5 37.5q0 23 -16.5 34t-39.5 11q-26 0 -45 -12t-27 -39l-97 16q14 52 59 84.5t114 32.5zM200 712q82 0 129.5 -55t47.5 -165q0 -112 -47 -167t-130 -55q-82 0 -129 55t-47 167q0 110 46.5 165t129.5 55zM199 629q-38 0 -53.5 -33.5t-15.5 -103.5
q0 -69 15.5 -104t53.5 -35t54 35t16 104q0 70 -16 103.5t-54 33.5z" />
    <glyph glyph-name="arrowleft" unicode="&#x2190;" horiz-adv-x="900" 
d="M489 586l-194 -204h502v-106h-502l194 -204l-87 -74l-298 331l298 331z" />
    <glyph glyph-name="arrowup" unicode="&#x2191;" horiz-adv-x="900" 
d="M782 390l-71 -81l-202 190v-499h-118v499l-201 -190l-72 81l332 299z" />
    <glyph glyph-name="arrowright" unicode="&#x2192;" horiz-adv-x="900" 
d="M797 329l-298 -331l-87 74l194 204h-502v106h502l-194 204l87 74z" />
    <glyph glyph-name="arrowdown" unicode="&#x2193;" horiz-adv-x="900" 
d="M509 147l202 189l71 -81l-332 -298l-332 298l72 81l201 -189v498h118v-498z" />
    <glyph glyph-name="arrowboth" unicode="&#x2194;" horiz-adv-x="1280" 
d="M1184 329l-298 -331l-87 74l194 204h-705l194 -204l-87 -74l-298 331l298 331l87 -74l-194 -204h705l-194 204l87 74z" />
    <glyph glyph-name="arrowupdn" unicode="&#x2195;" horiz-adv-x="900" 
d="M782 582l-71 -80l-202 190v-703l202 190l71 -80l-332 -299l-332 299l72 80l201 -190v703l-201 -190l-72 80l332 299z" />
    <glyph glyph-name="uni2196" unicode="&#x2196;" horiz-adv-x="905" 
d="M656 503l-283 -5l358 -360l-80 -79l-356 358l-6 -280l-115 4l24 448l451 24z" />
    <glyph glyph-name="uni2197" unicode="&#x2197;" horiz-adv-x="905" 
d="M707 589l24 -448l-115 -4l-6 280l-356 -358l-80 79l358 360l-283 5l7 110z" />
    <glyph glyph-name="uni2198" unicode="&#x2198;" horiz-adv-x="905" 
d="M610 217l6 280l115 -5l-24 -447l-451 -24l-7 109l283 5l-358 361l80 79z" />
    <glyph glyph-name="uni2199" unicode="&#x2199;" horiz-adv-x="905" 
d="M731 496l-358 -361l283 -5l-7 -109l-451 24l-24 447l115 5l6 -280l356 358z" />
    <glyph glyph-name="partialdiff" unicode="&#x2202;" horiz-adv-x="631" 
d="M126 715q104 0 187.5 -24.5t142.5 -73.5t91 -124.5t32 -177.5q0 -88 -20.5 -150.5t-57 -103t-86.5 -59.5t-110 -19q-59 0 -108.5 17t-85 48.5t-55.5 76t-20 100.5q0 57 18.5 100.5t50.5 73.5t74.5 45.5t89.5 15.5q51 0 100 -20.5t76 -62.5q-7 66 -32 111t-66 72.5t-97 40
t-124 12.5v102zM301 356q-33 0 -58 -10.5t-41.5 -28.5t-24.5 -42t-8 -51q0 -33 11 -59t29.5 -43t43.5 -26t54 -9q59 0 94.5 35.5t35.5 100.5q0 30 -10 54.5t-28 42t-43 27t-55 9.5z" />
    <glyph glyph-name="emptyset" unicode="&#x2205;" horiz-adv-x="900" 
d="M688 629q60 -51 94 -123t34 -157q0 -77 -28.5 -143.5t-78 -116t-116 -77.5t-142.5 -28q-55 0 -105 15t-93 42l-41 -55h-80l70 94q-55 50 -86.5 119t-31.5 150q0 77 29 144t78.5 116.5t116.5 78t143 28.5q51 0 97.5 -13t87.5 -37l35 48h80zM186 349q0 -55 20.5 -103.5
t55.5 -84.5l314 425q-28 15 -59 23.5t-66 8.5q-56 0 -104 -21t-84 -58t-56.5 -86t-20.5 -104zM451 82q55 0 103.5 21t84 57t56 84.5t20.5 104.5q0 60 -23 111t-63 89l-317 -428q62 -39 139 -39z" />
    <glyph glyph-name="uni2206" unicode="&#x2206;" horiz-adv-x="636" 
d="M632 0h-628l229 700h170zM457 109l-142 484l-143 -484h285z" />
    <glyph glyph-name="product" unicode="&#x220f;" horiz-adv-x="631" 
d="M598 598h-77v-598h-128v598h-155v-598h-128v598h-77v102h565v-102z" />
    <glyph glyph-name="summation" unicode="&#x2211;" 
d="M548 598h-345l189 -194v-89l-190 -210h346v-105h-496v94l238 265l-238 246v95h496v-102z" />
    <glyph glyph-name="minus" unicode="&#x2212;" 
d="M509 237h-418v110h418v-110z" />
    <glyph glyph-name="uni2215" unicode="&#x2215;" 
d="M133 -12h-100l433 724h100z" />
    <glyph glyph-name="uni2219" unicode="&#x2219;" 
d="M301 406q23 0 43.5 -9t36.5 -25t25 -36.5t9 -44.5q0 -23 -9 -43.5t-25 -35.5t-36.5 -24t-43.5 -9q-24 0 -45 9t-36.5 24.5t-25 36t-9.5 43.5q0 24 9.5 44.5t25 36t36.5 24.5t45 9z" />
    <glyph glyph-name="radical" unicode="&#x221a;" 
d="M714 765h-188l-216 -765h-134l-190 522h130l121 -379l198 724h279v-102z" />
    <glyph glyph-name="infinity" unicode="&#x221e;" horiz-adv-x="907" 
d="M641 478q53 0 93 -17t67 -46t40.5 -68t13.5 -82q0 -44 -14 -82.5t-42 -67t-68.5 -45.5t-94.5 -17q-64 0 -107.5 31.5t-75.5 87.5q-15 -25 -32.5 -46.5t-40 -37.5t-50 -25.5t-63.5 -9.5q-53 0 -93.5 17t-67.5 46t-40.5 67.5t-13.5 82.5q0 43 14 82t42 67.5t68.5 45.5
t94.5 17q64 0 107.5 -31.5t75.5 -87.5q15 25 32.5 46.5t40 37.5t50.5 25.5t64 9.5zM277 377q-42 0 -70.5 -28t-28.5 -83t26.5 -83t68.5 -28q27 0 46.5 10.5t34.5 28t26 39t20 43.5q-9 18 -19 36t-24 32.5t-33.5 23.5t-46.5 9zM634 376q-26 0 -46 -10.5t-35 -28t-25.5 -39
t-19.5 -43.5q9 -18 19 -36t24 -32.5t33 -23.5t46 -9q43 0 71.5 28t28.5 83t-26.5 83t-69.5 28z" />
    <glyph glyph-name="integral" unicode="&#x222b;" horiz-adv-x="300" 
d="M271 852q29 0 56.5 -5t47.5 -11v-100q-16 5 -40.5 10t-45.5 5q-33 0 -54.5 -11.5t-21.5 -46.5v-760q0 -30 -11 -56.5t-34 -46.5t-57.5 -31.5t-80.5 -11.5q-30 0 -58 5t-48 11v100q17 -5 40.5 -10t46.5 -5q32 0 54 12t22 49v759q0 30 11 56t34 45.5t57.5 31t81.5 11.5z
" />
    <glyph glyph-name="congruent" unicode="&#x2245;" 
d="M517 315h-418v110h418v-110zM517 98h-418v110h418v-110zM215 697q33 0 58.5 -9t46 -20.5t37.5 -20.5t34 -9q28 0 47 16.5t32 38.5l68 -59q-9 -17 -23 -35t-32.5 -32.5t-43 -23.5t-54.5 -9q-32 0 -57.5 9t-46 20t-38 20t-34.5 9q-28 0 -47 -16.5t-32 -38.5l-68 59
q9 18 22.5 36t32.5 32.5t43 23.5t55 9z" />
    <glyph glyph-name="approxequal" unicode="&#x2248;" 
d="M215 491q33 0 58.5 -9t46 -20.5t37.5 -20.5t34 -9q28 0 47 16.5t32 38.5l68 -59q-9 -17 -23 -35t-32.5 -32.5t-43 -23.5t-54.5 -9q-32 0 -57.5 9t-46 20t-38 20t-34.5 9q-28 0 -47 -16.5t-32 -38.5l-68 59q9 18 22.5 36t32.5 32.5t43 23.5t55 9zM215 297q33 0 58.5 -9
t46 -20.5t37.5 -20.5t34 -9q28 0 47 16.5t32 38.5l68 -59q-9 -17 -23 -35t-32.5 -32.5t-43 -23.5t-54.5 -9q-32 0 -57.5 9t-46 20t-38 20t-34.5 9q-28 0 -47 -16.5t-32 -38.5l-68 59q9 18 22.5 36t32.5 32.5t43 23.5t55 9z" />
    <glyph glyph-name="uni2259" unicode="&#x2259;" 
d="M478 527h-117l-63 86l-63 -86h-116l131 173h98zM509 356h-418v110h418v-110zM509 139h-418v110h418v-110z" />
    <glyph glyph-name="notequal" unicode="&#x2260;" 
d="M378 356l-61 -107h193v-110h-256l-69 -120h-92l69 120h-70v110h134l61 107h-195v110h259l65 113h90l-65 -113h69v-110h-132z" />
    <glyph glyph-name="lessequal" unicode="&#x2264;" 
d="M509 474l-313 -101l313 -102v-124l-418 155v142l418 155v-125zM509 0h-418v110h418v-110z" />
    <glyph glyph-name="greaterequal" unicode="&#x2265;" 
d="M509 444v-142l-418 -155v124l312 102l-312 101v125zM509 0h-418v110h418v-110z" />
    <glyph glyph-name="dotmath" unicode="&#x22c5;" 
d="M300 384q17 0 32.5 -7t27 -18.5t18.5 -27t7 -33.5q0 -35 -25 -59.5t-60 -24.5q-18 0 -33.5 7t-27 18.5t-18.5 27t-7 32.5q0 18 7 33.5t18.5 27t27 18t33.5 6.5z" />
    <glyph glyph-name="uni2460" unicode="&#x2460;" horiz-adv-x="900" 
d="M319.994 234.446h97.2627v175.437h-98.1719v62.7207h10.9082q29.0879 0 48.1768 4.54492t30.9053 13.6357q11.8174 9.08984 17.2715 21.3613t8.18066 28.6328h77.2646v-306.332h77.2646v-75.4463h-269.062v75.4463zM451 717q78 0 145.5 -28.5t117 -78t77.5 -117
t28 -144.5t-28 -144t-77.5 -116.5t-117 -77.5t-145.5 -28t-146 28t-118 77.5t-78.5 116.5t-28.5 144t28.5 144.5t78.5 117t118 78t146 28.5zM451 651q-65 0 -119.5 -24t-94 -65.5t-62 -96.5t-22.5 -116q0 -62 22.5 -116.5t62 -95t94 -64.5t119.5 -24t119.5 24t93.5 64.5
t61 95t22 116.5q0 61 -22 116t-61 96.5t-93.5 65.5t-119.5 24z" />
    <glyph glyph-name="uni2461" unicode="&#x2461;" horiz-adv-x="900" 
d="M450.708 551.687q67.2656 0 105.898 -32.2695q38.6318 -32.2695 38.6318 -84.082q0 -59.9941 -42.2676 -106.807q-42.2686 -46.8135 -127.714 -94.082h176.345v-75.4463h-304.514v72.7197q53.6309 36.3604 90.8994 64.5391q37.2695 28.1787 60.9033 51.3584
q23.6338 23.1787 34.0869 43.6318q10.4541 20.4521 10.4541 41.3594q0 44.54 -46.3594 44.54q-49.9951 0 -51.8125 -64.5381h-97.2627q0 29.0879 9.08984 54.5391q9.08984 25.4521 28.1787 44.0869t47.7227 29.542q28.6328 10.9082 67.7197 10.9082zM451 717
q78 0 145.5 -28.5t117 -78t77.5 -117t28 -144.5t-28 -144t-77.5 -116.5t-117 -77.5t-145.5 -28t-146 28t-118 77.5t-78.5 116.5t-28.5 144t28.5 144.5t78.5 117t118 78t146 28.5zM451 651q-65 0 -119.5 -24t-94 -65.5t-62 -96.5t-22.5 -116q0 -62 22.5 -116.5t62 -95
t94 -64.5t119.5 -24t119.5 24t93.5 64.5t61 95t22 116.5q0 61 -22 116t-61 96.5t-93.5 65.5t-119.5 24z" />
    <glyph glyph-name="uni2462" unicode="&#x2462;" horiz-adv-x="900" 
d="M453.436 551.687q70.9014 0 108.17 -29.9971q37.2695 -29.9971 37.2695 -74.5371q0 -34.542 -21.3613 -55.9033q-21.3613 -21.3623 -55.9033 -28.6338q37.2686 -4.54492 63.1748 -27.2695q25.9062 -22.7256 25.9062 -64.5391q0 -56.3574 -43.1768 -88.627
q-43.1777 -32.2695 -116.807 -32.2695q-62.7207 0 -105.897 28.1787q-43.1777 28.1787 -55.9033 79.9922l89.0811 20.9062q6.36328 -25.4521 24.998 -39.541q18.6338 -14.0898 47.7217 -14.0898q26.3613 0 43.1777 12.7266q16.8164 12.7256 16.8164 37.2686
q0 23.6338 -16.8164 35.9053t-44.9951 12.2715h-41.8145v69.9932h35.4512q20.9072 0 39.541 8.63477q18.6348 8.63574 18.6348 34.0879q0 20.9062 -14.998 30.9053q-14.999 9.99902 -35.9062 9.99902q-23.6338 0 -40.9043 -10.9072q-17.2715 -10.9082 -24.543 -35.4512
l-88.1729 14.5439q12.7266 47.2676 53.6309 76.8105q40.9053 29.542 103.626 29.542zM451 717q78 0 145.5 -28.5t117 -78t77.5 -117t28 -144.5t-28 -144t-77.5 -116.5t-117 -77.5t-145.5 -28t-146 28t-118 77.5t-78.5 116.5t-28.5 144t28.5 144.5t78.5 117t118 78t146 28.5z
M451 651q-65 0 -119.5 -24t-94 -65.5t-62 -96.5t-22.5 -116q0 -62 22.5 -116.5t62 -95t94 -64.5t119.5 -24t119.5 24t93.5 64.5t61 95t22 116.5q0 61 -22 116t-61 96.5t-93.5 65.5t-119.5 24z" />
    <glyph glyph-name="uni2463" unicode="&#x2463;" horiz-adv-x="900" 
d="M555.06 299.895h50.9043v-75.4473h-50.9043v-65.4473h-92.7178v65.4473h-193.616v78.1738l163.62 238.157h122.714v-240.884zM359.626 299.895h102.716v148.166zM451 717q78 0 145.5 -28.5t117 -78t77.5 -117t28 -144.5t-28 -144t-77.5 -116.5t-117 -77.5t-145.5 -28
t-146 28t-118 77.5t-78.5 116.5t-28.5 144t28.5 144.5t78.5 117t118 78t146 28.5zM451 651q-65 0 -119.5 -24t-94 -65.5t-62 -96.5t-22.5 -116q0 -62 22.5 -116.5t62 -95t94 -64.5t119.5 -24t119.5 24t93.5 64.5t61 95t22 116.5q0 61 -22 116t-61 96.5t-93.5 65.5t-119.5 24
z" />
    <glyph glyph-name="uni2464" unicode="&#x2464;" horiz-adv-x="900" 
d="M575.968 466.241h-169.073l-10.9082 -73.6289q19.0889 16.3613 40.4502 22.7246t44.9961 6.36328q25.4512 0 48.6309 -8.63574t40.9053 -25.4521q17.7246 -16.8164 28.6328 -40.9043q10.9082 -24.0889 10.9082 -54.0859q0 -30.9053 -10.9082 -56.8115t-31.8145 -44.9961
q-20.9072 -19.0889 -52.7217 -29.9961q-31.8154 -10.9082 -72.7197 -10.9082q-65.4482 0 -104.08 27.7246q-38.6328 27.7236 -52.2676 66.8105l85.4453 26.3613q17.2715 -47.2676 72.7197 -47.2676q33.6328 0 50.4492 19.0889t16.8164 44.541q0 27.2695 -17.2705 42.7227
q-17.2715 15.4531 -47.2676 15.4531q-21.8164 0 -37.7236 -8.18164q-15.9072 -8.18066 -26.8154 -20.9062l-82.7188 12.7256l30.9062 211.796h257.246zM451 717q78 0 145.5 -28.5t117 -78t77.5 -117t28 -144.5t-28 -144t-77.5 -116.5t-117 -77.5t-145.5 -28t-146 28
t-118 77.5t-78.5 116.5t-28.5 144t28.5 144.5t78.5 117t118 78t146 28.5zM451 651q-65 0 -119.5 -24t-94 -65.5t-62 -96.5t-22.5 -116q0 -62 22.5 -116.5t62 -95t94 -64.5t119.5 -24t119.5 24t93.5 64.5t61 95t22 116.5q0 61 -22 116t-61 96.5t-93.5 65.5t-119.5 24z" />
    <glyph glyph-name="uni2465" unicode="&#x2465;" horiz-adv-x="900" 
d="M456.616 551.687q49.0859 0 84.5371 -19.998q35.4502 -19.998 53.6309 -59.9932l-80.9014 -27.2705q-7.27148 16.3623 -22.7246 25.4521t-34.542 9.08984q-34.542 0 -54.9941 -25.9062t-24.9971 -84.082q18.1797 25.4512 44.9951 35.4502t54.085 9.99902
q25.4521 0 48.6318 -8.18066q23.1787 -8.18066 41.3594 -23.6338q18.1797 -15.4531 29.0879 -39.0869q10.9072 -23.6338 10.9072 -53.6309q0 -34.542 -11.8164 -60.4482q-11.8174 -25.9062 -33.1787 -43.6318t-49.9951 -26.8154q-28.6328 -9.08984 -61.3564 -9.08984
q-34.542 0 -64.5391 9.54395q-29.9971 9.54492 -52.2676 31.3604q-22.2705 21.8164 -35.4512 57.2676q-13.1797 35.4502 -13.1797 87.2637q0 104.534 46.8135 160.438q46.8125 55.9033 125.896 55.9033zM449.345 341.708q-25.4521 0 -42.2686 -15.4521
q-16.8164 -15.4531 -16.8164 -42.7236q0 -27.2695 16.8164 -43.6318q16.8164 -16.3613 40.4502 -16.3613t40.4502 15.4531q16.8164 15.4521 16.8164 44.54q0 26.3613 -14.0889 42.2686q-14.0898 15.9072 -41.3594 15.9072zM451 717q78 0 145.5 -28.5t117 -78t77.5 -117
t28 -144.5t-28 -144t-77.5 -116.5t-117 -77.5t-145.5 -28t-146 28t-118 77.5t-78.5 116.5t-28.5 144t28.5 144.5t78.5 117t118 78t146 28.5zM451 651q-65 0 -119.5 -24t-94 -65.5t-62 -96.5t-22.5 -116q0 -62 22.5 -116.5t62 -95t94 -64.5t119.5 -24t119.5 24t93.5 64.5
t61 95t22 116.5q0 61 -22 116t-61 96.5t-93.5 65.5t-119.5 24z" />
    <glyph glyph-name="uni2466" unicode="&#x2466;" horiz-adv-x="900" 
d="M606.602 465.332q-29.9971 -35.4512 -52.7217 -68.6299q-22.7246 -33.1777 -38.6318 -68.6289q-15.9082 -35.4512 -26.3613 -76.3555q-10.4531 -40.9053 -16.8164 -92.7178h-103.626q8.18164 59.9941 21.8164 105.443q13.6348 45.4502 32.7236 80.9014
q19.0889 35.4502 42.7227 64.084q23.6338 28.6328 49.9951 54.9941h-129.986v-43.6318h-81.8096v119.987h302.695v-75.4463zM451 717q78 0 145.5 -28.5t117 -78t77.5 -117t28 -144.5t-28 -144t-77.5 -116.5t-117 -77.5t-145.5 -28t-146 28t-118 77.5t-78.5 116.5t-28.5 144
t28.5 144.5t78.5 117t118 78t146 28.5zM451 651q-65 0 -119.5 -24t-94 -65.5t-62 -96.5t-22.5 -116q0 -62 22.5 -116.5t62 -95t94 -64.5t119.5 -24t119.5 24t93.5 64.5t61 95t22 116.5q0 61 -22 116t-61 96.5t-93.5 65.5t-119.5 24z" />
    <glyph glyph-name="uni2467" unicode="&#x2467;" horiz-adv-x="900" 
d="M447.981 149.91q-46.3594 0 -78.1738 10.4531q-31.8145 10.4541 -52.2676 26.8154q-20.4521 16.3623 -29.542 36.3604t-9.08984 39.0869q0 34.542 19.998 58.6299q19.998 24.0889 54.5391 36.8145q-31.8145 19.998 -42.2676 41.8135q-10.4541 21.8164 -10.4541 45.4502
q0 19.998 8.63574 39.0869t26.8154 34.0869q18.1797 14.999 45.9043 24.0889t65.9023 9.08984t66.3564 -8.63574q28.1787 -8.63477 46.3594 -23.1787q18.1797 -14.5439 27.2695 -32.2695t9.08984 -35.9053q0 -23.6348 -15.9072 -47.2686t-44.9951 -36.3594
q24.543 -9.08984 40.9043 -18.6348q16.3623 -9.54395 25.9062 -21.3613q9.54492 -11.8164 13.1807 -26.3604t3.63574 -31.8154q0 -20.9072 -8.63477 -41.8135q-8.63574 -20.9072 -28.1797 -38.6328q-19.543 -17.7256 -52.7217 -28.6328q-33.1777 -10.9082 -82.2637 -10.9082
zM468.889 391.703q19.0889 12.7256 26.8154 25.9062q7.72559 13.1807 7.72559 25.9062q0 18.1807 -14.0889 28.6338q-14.0898 10.4531 -39.542 10.4531q-25.4512 0 -39.541 -10.4531q-14.0889 -10.4531 -14.0889 -28.6338q0 -17.2705 11.3623 -26.8154
q11.3623 -9.54395 40.4502 -18.6338zM447.981 223.539q39.9961 0 55.9033 14.5439t15.9072 29.9971q0 10.9072 -3.63574 18.6338t-12.2715 13.6348q-8.63574 5.90918 -22.7246 10.9082q-14.0898 5 -34.0879 11.3623l-30.9062 9.08984q-17.2705 -12.7256 -27.7236 -27.2695
q-10.4541 -14.5439 -10.4541 -33.6328q0 -20.9072 18.1807 -34.0879q18.1797 -13.1797 51.8125 -13.1797zM451 717q78 0 145.5 -28.5t117 -78t77.5 -117t28 -144.5t-28 -144t-77.5 -116.5t-117 -77.5t-145.5 -28t-146 28t-118 77.5t-78.5 116.5t-28.5 144t28.5 144.5
t78.5 117t118 78t146 28.5zM451 651q-65 0 -119.5 -24t-94 -65.5t-62 -96.5t-22.5 -116q0 -62 22.5 -116.5t62 -95t94 -64.5t119.5 -24t119.5 24t93.5 64.5t61 95t22 116.5q0 61 -22 116t-61 96.5t-93.5 65.5t-119.5 24z" />
    <glyph glyph-name="uni2468" unicode="&#x2468;" horiz-adv-x="900" 
d="M437.164 148.092q-52.7217 0 -89.0811 22.2705q-36.3604 22.2705 -53.6309 56.8125l78.1738 31.8145q19.0889 -38.1777 66.3564 -38.1777q73.6289 0 77.2646 111.807q-17.2705 -23.6338 -42.2686 -34.0869q-24.9971 -10.4541 -54.9941 -10.4541
q-24.543 0 -48.1768 8.18164q-23.6338 8.18066 -41.3594 24.0879t-28.6338 39.9961q-10.9072 24.0889 -10.9072 55.9033q0 32.7236 12.2715 57.7217q12.2715 24.9971 33.6328 42.2676q21.3613 17.2715 49.9941 26.3613q28.6338 9.08984 61.3574 9.08984
q33.6328 0 63.6299 -9.54395q29.9971 -9.54492 52.7217 -31.3613q22.7256 -21.8154 35.4512 -56.8115q12.7256 -34.9971 12.7256 -85.9004q0 -105.443 -43.6318 -162.711q-43.6318 -57.2666 -130.896 -57.2666zM447.163 362.615q26.3613 0 42.7227 15.4531
q16.3623 15.4531 16.3623 43.6318q0 27.2695 -15.9072 41.8135t-40.4502 14.5439q-25.4521 0 -42.7227 -14.998q-17.2715 -14.999 -17.2715 -44.0869q0 -24.543 14.5439 -40.4502t42.7227 -15.9072zM451 717q78 0 145.5 -28.5t117 -78t77.5 -117t28 -144.5t-28 -144
t-77.5 -116.5t-117 -77.5t-145.5 -28t-146 28t-118 77.5t-78.5 116.5t-28.5 144t28.5 144.5t78.5 117t118 78t146 28.5zM451 651q-65 0 -119.5 -24t-94 -65.5t-62 -96.5t-22.5 -116q0 -62 22.5 -116.5t62 -95t94 -64.5t119.5 -24t119.5 24t93.5 64.5t61 95t22 116.5
q0 61 -22 116t-61 96.5t-93.5 65.5t-119.5 24z" />
    <glyph glyph-name="uni24EA" unicode="&#x24ea;" horiz-adv-x="900" 
d="M449.799 551.687q74.5381 0 117.716 -49.9951q43.1768 -49.9941 43.1768 -149.984q0 -101.808 -42.7227 -151.802q-42.7227 -49.9951 -118.17 -49.9951q-74.5371 0 -117.26 49.9951q-42.7227 49.9941 -42.7227 151.802q0 99.9902 42.2676 149.984
q42.2686 49.9951 117.715 49.9951zM448.891 476.24q-34.542 0 -48.6318 -30.4521q-14.0889 -30.4512 -14.0889 -94.0811q0 -62.7207 14.0889 -94.5352q14.0898 -31.8154 48.6318 -31.8154t49.0859 31.8154q14.5439 31.8145 14.5439 94.5352q0 63.6299 -14.5439 94.0811
q-14.5439 30.4521 -49.0859 30.4521zM451 717q78 0 145.5 -28.5t117 -78t77.5 -117t28 -144.5t-28 -144t-77.5 -116.5t-117 -77.5t-145.5 -28t-146 28t-118 77.5t-78.5 116.5t-28.5 144t28.5 144.5t78.5 117t118 78t146 28.5zM451 651q-65 0 -119.5 -24t-94 -65.5t-62 -96.5
t-22.5 -116q0 -62 22.5 -116.5t62 -95t94 -64.5t119.5 -24t119.5 24t93.5 64.5t61 95t22 116.5q0 61 -22 116t-61 96.5t-93.5 65.5t-119.5 24z" />
    <glyph glyph-name="uni24FF" unicode="&#x24ff;" horiz-adv-x="900" 
d="M451 -17q-78 0 -146 28t-118 77.5t-78.5 116.5t-28.5 144t28.5 144.5t78.5 117t118 78t146 28.5t145.5 -28.5t117 -78t77.5 -117t28 -144.5t-28 -144t-77.5 -116.5t-117 -77.5t-145.5 -28zM450 150q75 0 117.5 49.5t42.5 152.5q0 100 -42.5 150t-117.5 50t-117.5 -50
t-42.5 -150q0 -103 42.5 -152.5t117.5 -49.5zM450 226q-35 0 -49 31.5t-14 94.5t14 94t49 31q34 0 48.5 -31t14.5 -94t-14.5 -94.5t-48.5 -31.5z" />
    <glyph glyph-name="filledbox" unicode="&#x25a0;" 
d="M489 454v-379h-379v379h379z" />
    <glyph glyph-name="H22073" unicode="&#x25a1;" 
d="M489 454v-379h-379v379h379zM210 175h179v179h-179v-179z" />
    <glyph glyph-name="uni25B3" unicode="&#x25b3;" horiz-adv-x="900" 
d="M452 709l348 -709h-700zM623 103l-172 357l-175 -357h347z" />
    <glyph glyph-name="uni25B4" unicode="&#x25b4;" 
d="M489 75h-379l189 379z" />
    <glyph glyph-name="uni25B8" unicode="&#x25b8;" 
d="M110 75v379l379 -190z" />
    <glyph glyph-name="uni25BD" unicode="&#x25bd;" horiz-adv-x="900" 
d="M452 -8.95703l348 708.957h-700zM623 597.006l-172 -356.978l-175 356.978h347z" />
    <glyph glyph-name="uni25BE" unicode="&#x25be;" 
d="M110 454h379l-190 -379z" />
    <glyph glyph-name="uni25C2" unicode="&#x25c2;" 
d="M489 454v-379l-379 189z" />
    <glyph glyph-name="uni25C6" unicode="&#x25c6;" 
d="M560 266l-260 -278l-260 278l260 273z" />
    <glyph glyph-name="uni25C7" unicode="&#x25c7;" 
d="M560 266l-260 -278l-260 278l260 273zM171 267l129 -143l130 143l-130 135z" />
    <glyph glyph-name="lozenge" unicode="&#x25ca;" 
d="M575 361l-200 -361h-150l-200 359l201 341h149zM154 360l147 -278l144 278l-146 259z" />
    <glyph glyph-name="circle" unicode="&#x25cb;" 
d="M301 27q-50 0 -94 19t-77 52t-52 77t-19 94t19 94t52 76.5t77 51.5t94 19t94 -19t76.5 -51.5t51.5 -76.5t19 -94t-19 -94t-51.5 -77t-76.5 -52t-94 -19zM301 129q27 0 50.5 10.5t41 29t27.5 44t10 56.5q0 30 -10 55.5t-27.5 44t-41 29t-50.5 10.5t-50.5 -10.5t-41.5 -29
t-28 -44t-10 -55.5q0 -31 10 -56.5t28 -44t41.5 -29t50.5 -10.5z" />
    <glyph glyph-name="H18533" unicode="&#x25cf;" 
d="M301 27q-50 0 -94 19t-77 52t-52 77t-19 94t19 94t52 76.5t77 51.5t94 19t94 -19t76.5 -51.5t51.5 -76.5t19 -94t-19 -94t-51.5 -77t-76.5 -52t-94 -19z" />
    <glyph glyph-name="uni2605" unicode="&#x2605;" horiz-adv-x="900" 
d="M690 -10l-242 177l-242 -177l80 280l-201 195l266 -29l94 277l96 -278l273 29l-203 -197z" />
    <glyph glyph-name="uni2610" unicode="&#x2610;" horiz-adv-x="900" 
d="M100 700h700v-700h-700v700zM692 108v484h-484v-484h484z" />
    <glyph glyph-name="uni2611" unicode="&#x2611;" horiz-adv-x="900" 
d="M100 700h700v-700h-700v700zM692 108v484h-484v-484h484zM627.481 535.979l-175.646 -365.425h-82.7754l-83.4482 176.319h82.7754l43.0703 -97.5811l137.286 286.687h78.7383z" />
    <glyph glyph-name="uni2612" unicode="&#x2612;" horiz-adv-x="900" 
d="M100 700h700v-700h-700v700zM692 108v484h-484v-484h484zM507.84 341.886l87.3994 -177.041h-96.3643l-53.0371 108.316l-100.1 -138.197h-97.1113l156.125 222.609l-85.1582 173.306h94.8701l53.0371 -107.569l97.1113 134.462h97.1113z" />
    <glyph glyph-name="uni2620" unicode="&#x2620;" 
d="M300 129q-19 0 -37 2.5t-35 7.5l-33 65q-17 10 -23.5 17t-9.5 21v42q-21 24 -26 51t-5 51q0 33 13 61t35.5 48.5t53.5 32t67 11.5t67 -11.5t53.5 -32t35.5 -48.5t13 -61q0 -24 -5 -51t-26 -51v-42q-3 -14 -9.5 -21t-23.5 -17l-33 -65q-17 -5 -35 -7.5t-37 -2.5zM81 259
q-17 -11 -27.5 -15t-21.5 -4q-10 0 -18.5 6.5t-8.5 20.5q0 11 7.5 22t28.5 13l3 7q-5 5 -9 12.5t-4 16.5q0 12 8 20.5t24 8.5q21 0 30 -16t11 -42l34 -20v-58zM462 289l34 20q2 26 11 42t30 16q16 0 24 -8.5t8 -20.5q0 -9 -4 -16.5t-9 -12.5l3 -7q21 -2 28.5 -13t7.5 -22
q0 -14 -8.5 -20.5t-18.5 -6.5q-11 0 -21.5 4t-27.5 15l-57 -28v58zM219 285q17 0 28.5 10t11.5 27t-11.5 28t-28.5 11q-16 0 -27.5 -11t-11.5 -28t11.5 -27t27.5 -10zM381 285q16 0 27.5 10t11.5 27t-11.5 28t-27.5 11q-17 0 -28.5 -11t-11.5 -28t11.5 -27t28.5 -10z
M265 206q10 0 18 3.5t17 3.5t17 -3.5t18 -3.5v29q-5 15 -14.5 30t-20.5 15t-20.5 -15t-14.5 -30v-29zM90 32q-16 0 -24 8.5t-8 20.5q0 9 4 16.5t9 12.5l-3 7q-21 2 -28.5 13t-7.5 22q0 14 8.5 20.5t18.5 6.5q11 0 21.5 -4t27.5 -15l71 38l25 -47l-73 -41q-2 -26 -11 -42
t-30 -16zM510 32q-21 0 -30 16t-11 42l-73 41l25 47l71 -38q17 11 27.5 15t21.5 4q10 0 18.5 -6.5t8.5 -20.5q0 -11 -7.5 -22t-28.5 -13l-3 -7q5 -5 9 -12.5t4 -16.5q0 -12 -8 -20.5t-24 -8.5z" />
    <glyph glyph-name="smileface" unicode="&#x263a;" 
d="M301 -16q-58 0 -108.5 21.5t-88 59t-59 88t-21.5 109.5q0 58 21.5 108.5t59 87.5t88 58.5t108.5 21.5t108 -21.5t87.5 -58.5t59 -87.5t21.5 -108.5q0 -59 -21.5 -109.5t-59 -88t-87.5 -59t-108 -21.5zM302 55q40 0 75 14.5t61.5 41.5t42 65.5t15.5 85.5t-15.5 85t-42 65
t-61.5 41.5t-75 14.5q-41 0 -76.5 -14.5t-62 -41.5t-42 -65t-15.5 -85t15.5 -85.5t42 -65.5t62 -41.5t76.5 -14.5zM218 296q-23 0 -37 14t-14 36q0 20 14 34t37 14t37 -14t14 -34q0 -22 -14 -36t-37 -14zM378 296q-23 0 -37 14t-14 36q0 20 14 34t37 14t37 -14t14 -34
q0 -22 -14 -36t-37 -14zM300 98q-33 0 -60 12t-47 32t-32.5 46t-15.5 53h59q10 -38 32.5 -61t63.5 -23t63.5 23t32.5 61h59q-3 -27 -15.5 -53t-32.5 -46t-47 -32t-60 -12z" />
    <glyph glyph-name="invsmileface" unicode="&#x263b;" 
d="M301 -16q-58 0 -108.5 21.5t-88 59t-59 88t-21.5 109.5q0 58 21.5 108.5t59 87.5t88 58.5t108.5 21.5t108 -21.5t87.5 -58.5t59 -87.5t21.5 -108.5q0 -59 -21.5 -109.5t-59 -88t-87.5 -59t-108 -21.5zM211 296q23 0 37 14t14 36q0 20 -14 34t-37 14t-37 -14t-14 -34
q0 -22 14 -36t37 -14zM386 296q23 0 37 14t14 36q0 20 -14 34t-37 14t-37 -14t-14 -34q0 -22 14 -36t37 -14zM300 79q33 0 60 12t47 31.5t32.5 45.5t15.5 53h-59q-10 -37 -32.5 -60.5t-63.5 -23.5t-63.5 23.5t-32.5 60.5h-59q3 -27 15.5 -53t32.5 -45.5t47 -31.5t60 -12z
" />
    <glyph glyph-name="sun" unicode="&#x263c;" 
d="M332 425q17 -2 32 -8.5t29 -15.5l85 87l47 -47l-87 -85q11 -14 17 -29t10 -32h116v-63h-115q-8 -35 -26 -60l85 -83l-47 -46l-82 84q-29 -19 -64 -25v-113h-63v113q-37 6 -64 25l-82 -84l-46 46l84 83q-21 29 -25 60h-116v63h117q3 17 9 32.5t16 28.5l-85 85l46 47
l85 -87q14 9 29 15.5t32 8.5v113h63v-113zM300 355q-38 0 -63.5 -25.5t-25.5 -66.5q0 -42 25.5 -67t63.5 -25q39 0 64.5 25t25.5 67q0 41 -25.5 66.5t-64.5 25.5z" />
    <glyph glyph-name="female" unicode="&#x2640;" 
d="M336 159h94v-66h-94v-93h-69v93h-96v66h96v63q-58 11 -95.5 54t-37.5 103q0 34 13 63.5t35 51.5t52 34.5t65 12.5q34 0 64.5 -12.5t53 -34.5t35.5 -51.5t13 -63.5q0 -30 -10 -56t-27 -46t-41 -34t-51 -20v-64zM215 379q0 -38 23.5 -62.5t61.5 -24.5q37 0 61 24.5t24 62.5
t-24 63t-61 25q-38 0 -61.5 -25t-23.5 -63z" />
    <glyph glyph-name="male" unicode="&#x2642;" 
d="M557 279l-64 -9l-20 152l-134 -160q17 -21 26.5 -47t9.5 -55q0 -35 -13.5 -64.5t-36 -50.5t-53 -33t-64.5 -12q-35 0 -64.5 12.5t-52 34t-35 50.5t-12.5 63t13 63.5t35 51.5t52 34.5t65 12.5q41 0 76 -18l136 162l-163 -11v63l264 9zM210 73q37 0 61 24.5t24 62.5
t-24 62.5t-61 24.5q-38 0 -61.5 -24.5t-23.5 -62.5t23.5 -62.5t61.5 -24.5z" />
    <glyph glyph-name="spade" unicode="&#x2660;" 
d="M100 45q43 0 77 5t57 21t35.5 47t12.5 82q-21 -35 -48.5 -49.5t-65.5 -14.5q-45 0 -71.5 26t-26.5 72q0 35 16 68.5t46 69.5t72.5 77t95.5 90q53 -49 95.5 -90t72.5 -77t46 -69.5t16 -68.5q0 -46 -26.5 -72t-71.5 -26q-38 0 -65.5 14.5t-48.5 49.5q0 -51 12.5 -82
t35.5 -47t57 -21t77 -5l20 -45h-440z" />
    <glyph glyph-name="club" unicode="&#x2663;" 
d="M100 45q43 0 77 5t57 21t35.5 47t12.5 82q-21 -35 -47 -50.5t-61 -15.5q-49 0 -81.5 31.5t-32.5 82.5q0 49 30 78.5t77 29.5q23 0 35 -3t32 -11q-20 17 -37 39.5t-17 59.5q0 48 33 77t87 29t87 -29t33 -77q0 -37 -17 -59.5t-37 -39.5q20 8 32 11t35 3q47 0 77 -29.5
t30 -78.5q0 -51 -32.5 -82.5t-81.5 -31.5q-36 0 -62 15.5t-46 50.5q0 -51 12.5 -82t35.5 -47t57 -21t77 -5l20 -45h-440z" />
    <glyph glyph-name="heart" unicode="&#x2665;" 
d="M434 539q55 0 90.5 -33t35.5 -91q0 -44 -18 -83.5t-52 -81t-82 -86.5t-108 -100q-60 55 -108 100t-82 86t-52 81t-18 84q0 58 35.5 91t90.5 33q52 0 81.5 -25t52.5 -67q23 42 52.5 67t81.5 25z" />
    <glyph glyph-name="diamond" unicode="&#x2666;" 
d="M520 266l-220 -278l-220 278l220 273z" />
    <glyph glyph-name="musicalnote" unicode="&#x266a;" 
d="M408 501q49 -27 69 -58.5t20 -73.5q0 -24 -8.5 -46t-16.5 -39l-35 16q3 13 3 33q0 38 -13 62.5t-42 42.5l-22 14v-343q0 -29 -11.5 -51.5t-31 -38.5t-44.5 -24t-52 -8q-50 0 -79 20.5t-29 55.5q0 20 9 36t24.5 27.5t35.5 17.5t42 6q20 0 39 -3.5t30 -9.5v390h67z" />
    <glyph glyph-name="musicalnotedbl" unicode="&#x266b;" 
d="M564 163q0 -27 -11 -50.5t-29.5 -41t-44 -27t-55.5 -9.5q-50 0 -78 18.5t-28 53.5q0 19 9.5 35.5t25.5 28.5t38 19t48 7q35 0 59 -13v267l-216 -55v-282q0 -57 -38.5 -92t-103.5 -35q-47 0 -76.5 19.5t-29.5 56.5q0 38 32.5 62.5t82.5 24.5q17 0 35.5 -3.5t29.5 -9.5v354
l350 91v-419z" />
    <glyph glyph-name="uni2713" unicode="&#x2713;" 
d="M552 578l-261 -543h-123l-124 262h123l64 -145l204 426h117z" />
    <glyph glyph-name="uni2717" unicode="&#x2717;" 
d="M388 289l117 -237h-129l-71 145l-134 -185h-130l209 298l-114 232h127l71 -144l130 180h130z" />
    <glyph glyph-name="uni2776" unicode="&#x2776;" horiz-adv-x="900" 
d="M451 -17q-78 0 -146 28t-118 77.5t-78.5 116.5t-28.5 144t28.5 144.5t78.5 117t118 78t146 28.5t145.5 -28.5t117 -78t77.5 -117t28 -144.5t-28 -144t-77.5 -116.5t-117 -77.5t-145.5 -28zM588 159v76h-77v306h-77q-5 -16 -13 -29t-21 -21.5t-32.5 -13t-49.5 -4.5v-72
q29 0 52.5 4t45.5 21v-191h-97v-76h269z" />
    <glyph glyph-name="uni2777" unicode="&#x2777;" horiz-adv-x="900" 
d="M451 -17q-78 0 -146 28t-118 77.5t-78.5 116.5t-28.5 144t28.5 144.5t78.5 117t118 78t146 28.5t145.5 -28.5t117 -78t77.5 -117t28 -144.5t-28 -144t-77.5 -116.5t-117 -77.5t-145.5 -28zM602 159v76h-176q86 48 128 94t42 107q0 51 -38.5 83.5t-105.5 32.5
q-39 0 -68 -11t-48 -29.5t-28 -44t-9 -54.5h97q1 64 51 64q47 0 47 -44q0 -21 -10.5 -41.5t-34 -44t-61 -51.5t-90.5 -64v-73h304z" />
    <glyph glyph-name="uni2778" unicode="&#x2778;" horiz-adv-x="900" 
d="M451 -17q-78 0 -146 28t-118 77.5t-78.5 116.5t-28.5 144t28.5 144.5t78.5 117t118 78t146 28.5t145.5 -28.5t117 -78t77.5 -117t28 -144.5t-28 -144t-77.5 -116.5t-117 -77.5t-145.5 -28zM451 150q73 0 116.5 32t43.5 89q0 42 -26 64.5t-63 27.5q35 8 56 29t21 56
q0 44 -37.5 74t-108.5 30q-62 0 -103 -29t-54 -77l89 -15q8 25 25 36t40 11q21 0 36 -10t15 -31q0 -26 -19 -35t-40 -9h-35v-69h42q28 0 45 -12t17 -36q0 -26 -17 -38t-44 -12q-29 0 -47.5 13.5t-24.5 39.5l-89 -21q13 -52 56 -80t106 -28z" />
    <glyph glyph-name="uni2779" unicode="&#x2779;" horiz-adv-x="900" 
d="M451 -17q-78 0 -146 28t-118 77.5t-78.5 116.5t-28.5 144t28.5 144.5t78.5 117t118 78t146 28.5t145.5 -28.5t117 -78t77.5 -117t28 -144.5t-28 -144t-77.5 -116.5t-117 -77.5t-145.5 -28zM554 159v65h51v76h-51v241h-123l-163 -238v-79h194v-65h92zM462 449v-149h-103z
" />
    <glyph glyph-name="uni277A" unicode="&#x277a;" horiz-adv-x="900" 
d="M451 -17q-78 0 -146 28t-118 77.5t-78.5 116.5t-28.5 144t28.5 144.5t78.5 117t118 78t146 28.5t145.5 -28.5t117 -78t77.5 -117t28 -144.5t-28 -144t-77.5 -116.5t-117 -77.5t-145.5 -28zM443 150q82 0 125 40.5t43 102.5q0 30 -11 54t-29 40.5t-41.5 25.5t-48.5 9
q-23 0 -44.5 -6.5t-40.5 -23.5l11 74h169l11 75h-257l-30 -212l83 -13q11 14 26.5 22t37.5 8q30 0 47.5 -15.5t17.5 -43.5q0 -26 -17 -44.5t-51 -18.5q-55 0 -73 47l-85 -27q14 -38 52.5 -66t104.5 -28z" />
    <glyph glyph-name="uni277B" unicode="&#x277b;" horiz-adv-x="900" 
d="M451 -17q-78 0 -146 28t-118 77.5t-78.5 116.5t-28.5 144t28.5 144.5t78.5 117t118 78t146 28.5t145.5 -28.5t117 -78t77.5 -117t28 -144.5t-28 -144t-77.5 -116.5t-117 -77.5t-145.5 -28zM448 150q33 0 61.5 9t49.5 27t33 44t12 60q0 30 -11 53.5t-29 39.5t-41.5 24
t-48.5 8q-27 0 -54 -10t-44 -36q5 58 25 84t55 26q19 0 34.5 -9t22.5 -26l81 28q-38 80 -138 80q-79 0 -126 -56t-47 -161q0 -52 13 -87.5t35.5 -57t52.5 -31t64 -9.5zM447 224q-23 0 -40 16t-17 44q0 27 16.5 42.5t42.5 15.5q27 0 41.5 -16t14.5 -42q0 -29 -17 -44.5
t-41 -15.5z" />
    <glyph glyph-name="uni277C" unicode="&#x277c;" horiz-adv-x="900" 
d="M451 -17q-78 0 -146 28t-118 77.5t-78.5 116.5t-28.5 144t28.5 144.5t78.5 117t118 78t146 28.5t145.5 -28.5t117 -78t77.5 -117t28 -144.5t-28 -144t-77.5 -116.5t-117 -77.5t-145.5 -28zM472 159q6 52 16.5 93t27 76.5t39 68.5t52.5 69v75h-303v-120h82v44h130
q-27 -27 -50.5 -55.5t-42.5 -64t-33 -81t-21 -105.5h103z" />
    <glyph glyph-name="uni277D" unicode="&#x277d;" horiz-adv-x="900" 
d="M451 -17q-78 0 -146 28t-118 77.5t-78.5 116.5t-28.5 144t28.5 144.5t78.5 117t118 78t146 28.5t145.5 -28.5t117 -78t77.5 -117t28 -144.5t-28 -144t-77.5 -116.5t-117 -77.5t-145.5 -28zM448 150q49 0 82 11t53 28.5t28.5 39t8.5 41.5q0 35 -17 58t-67 40q29 14 45 37
t16 47q0 18 -9 36t-27.5 32t-46.5 23t-66 9t-65.5 -9t-45.5 -24t-27 -34t-9 -39q0 -24 10.5 -46t42.5 -41q-35 -13 -55 -37t-20 -59q0 -20 9 -40t29.5 -36t52.5 -26.5t78 -10.5zM448 398q-29 8 -40.5 18.5t-11.5 27.5t14 28t39 11q26 0 40.5 -10.5t14.5 -28.5
q0 -13 -8 -26.5t-27 -25.5zM449 224q-34 0 -52 13t-18 34q0 19 10.5 34t27.5 27l31 -9q41 -12 57 -22t16 -33q0 -16 -16 -30t-56 -14z" />
    <glyph glyph-name="uni277E" unicode="&#x277e;" horiz-adv-x="900" 
d="M451 -17q-78 0 -146 28t-118 77.5t-78.5 116.5t-28.5 144t28.5 144.5t78.5 117t118 78t146 28.5t145.5 -28.5t117 -78t77.5 -117t28 -144.5t-28 -144t-77.5 -116.5t-117 -77.5t-145.5 -28zM437 149q88 0 131 57t43 162q0 51 -13 86t-35 57t-52 31.5t-64 9.5
q-33 0 -61.5 -9t-49.5 -26.5t-33.5 -42.5t-12.5 -58q0 -32 11 -55.5t29 -39.5t41 -24t48 -8q30 0 55.5 10.5t42.5 33.5q-4 -112 -78 -112q-46 0 -66 38l-79 -32q18 -34 54 -56t89 -22zM447 363q-28 0 -42.5 16t-14.5 41q0 29 17 43.5t43 14.5q25 0 40.5 -14.5t15.5 -41.5
q0 -28 -16.5 -43.5t-42.5 -15.5z" />
    <glyph glyph-name="uniFB01" unicode="&#xfb01;" horiz-adv-x="580" 
d="M276 713q41 0 78.5 -8.5t58.5 -16.5v-96q-31 14 -60 18.5t-55 4.5q-44 0 -65 -11t-21 -45v-37h300v-522h-128v428h-172v-428h-128v428h-72v94h72v54q0 28 11 53t34 44t59.5 29.5t87.5 10.5z" />
    <glyph glyph-name="uniFB02" unicode="&#xfb02;" horiz-adv-x="598" 
d="M263 713q35 0 64 -5.5t52 -11.5l127 6v-548q0 -17 1 -28t5.5 -17.5t13.5 -9t25 -2.5h9q4 0 12 1v-97q-29 -8 -66 -8q-61 0 -94.5 34.5t-33.5 106.5v468q-16 5 -39.5 9t-51.5 4q-37 0 -56 -11t-19 -45v-37h97v-94h-97v-428h-128v428h-72v94h72v54q0 28 10.5 53t32.5 44
t56 29.5t80 10.5z" />
    <glyph glyph-name="uniFEFF" unicode="&#xfeff;" horiz-adv-x="0" 
 />
    <glyph glyph-name="uni018F.aalt" horiz-adv-x="663" 
d="M329 592q58 0 110.5 -17.5t92.5 -54.5t63.5 -94t23.5 -136q0 -80 -24.5 -137.5t-64.5 -94.5t-91.5 -54.5t-104.5 -17.5q-60 0 -113 19t-92 58t-62 99.5t-23 143.5v19h440q-8 82 -48.5 121.5t-106.5 39.5q-101 0 -150 -92l-122 45q45 85 116.5 119t155.5 34zM329 88
q63 0 102 35.5t50 107.5h-300q1 -36 13.5 -63t33 -44.5t46.5 -26.5t55 -9z" />
    <glyph glyph-name="dollar.lnum.tnum" 
d="M352 716q65 -10 110.5 -40t78.5 -75l-80 -64q-18 25 -47 47.5t-68 31.5v-211q54 -14 92 -31.5t62.5 -41.5t36 -56.5t11.5 -75.5q0 -91 -53 -148t-143 -68v-133h-84v134q-67 7 -121.5 34.5t-97.5 89.5l90 69q27 -43 60 -65.5t74 -29.5v231q-102 27 -148 76.5t-46 127.5
q0 86 50.5 137.5t138.5 61.5v117h84v-118zM272 619q-38 -8 -57.5 -33.5t-19.5 -63.5q0 -33 15.5 -57t61.5 -41v195zM345 83q42 7 64 36.5t22 71.5q0 16 -3.5 31t-13 28.5t-26 25t-43.5 20.5v-213z" />
    <glyph glyph-name="dollar.lnum" horiz-adv-x="679" 
d="M392 705q82 -10 139.5 -43.5t95.5 -78.5l-94 -71q-9 12 -22.5 25.5t-31.5 25.5t-41 21.5t-52 13.5v-191q70 -14 117.5 -32t77 -42.5t42.5 -57t13 -75.5q0 -91 -63 -148.5t-181 -67.5v-133h-85v134q-78 6 -147 37t-120 93l94 77q35 -40 77.5 -66.5t102.5 -33.5v210
q-64 13 -109 32.5t-73.5 45.5t-41.5 59.5t-13 73.5q0 41 16.5 75t46.5 59t72.5 40t94.5 19v117h85v-118zM313 600q-49 -5 -75 -27t-26 -56q0 -17 3.5 -30.5t14 -25t30.5 -21t53 -17.5v177zM386 92q55 5 84 31t29 68q0 14 -3.5 27.5t-15 25.5t-34 23t-60.5 20v-195z" />
    <glyph glyph-name="dollar.c2sc" 
d="M349 589q74 -9 125 -42t85 -76l-91 -64q-9 12 -20.5 24.5t-26.5 24t-34.5 20.5t-44.5 13v-146q62 -14 104.5 -29.5t69 -36t38 -47.5t11.5 -64q0 -36 -14.5 -67t-42 -55t-67.5 -39.5t-92 -19.5v-133h-78v133q-72 5 -133 34t-105 88l82 72q32 -39 70 -64.5t93 -31.5v163
q-57 12 -98 27.5t-67 36.5t-38 48.5t-12 63.5q0 71 55.5 116.5t152.5 51.5v110h78v-111zM278 491q-46 -2 -68.5 -18.5t-22.5 -43.5q0 -11 2.5 -20.5t12 -18t27.5 -17t49 -16.5v134zM343 84q52 3 74.5 24t22.5 49q0 13 -3 24t-13 20t-29.5 16.5t-51.5 15.5v-149z" />
    <glyph glyph-name="s.aalt" horiz-adv-x="588" 
d="M289 592q46 0 84.5 -8.5t70.5 -23t58 -33.5t46 -41l-93 -67q-11 11 -25.5 23.5t-34.5 23t-46 17t-59 6.5q-48 0 -76 -16.5t-28 -46.5q0 -14 5.5 -24.5t21.5 -19.5t45 -17t76 -15q114 -19 166 -61t52 -120q0 -84 -67 -133.5t-189 -49.5q-79 0 -150.5 26.5t-125.5 86.5
l93 72q35 -37 79 -59.5t107 -22.5q52 0 86.5 18.5t34.5 53.5q0 16 -6 28t-23 22t-47 18t-79 16q-107 18 -158.5 60t-51.5 117q0 38 16.5 69.5t47.5 54t74 34.5t96 12z" />
    <glyph glyph-name="eight.lnum.tnum" 
d="M298 717q59 0 102.5 -16.5t72 -43.5t42.5 -60.5t14 -67.5q0 -56 -28 -90t-70 -54q58 -24 95.5 -69t37.5 -119q0 -36 -13 -73.5t-43.5 -69t-82 -51.5t-127.5 -20q-71 0 -121 19t-81.5 49t-45.5 67.5t-14 75.5q0 66 32.5 109.5t87.5 66.5q-47 30 -65.5 70t-18.5 88
q0 34 13 68t41 61t70.5 43.5t101.5 16.5zM298 617q-45 0 -71.5 -24.5t-26.5 -67.5q0 -42 22.5 -66t79.5 -35l33 -7q38 26 51.5 54t13.5 54q0 18 -6.5 34.5t-19 29t-32 20.5t-44.5 8zM250 330q-35 -20 -58 -48.5t-23 -79.5q0 -50 34 -82.5t96 -32.5q37 0 62.5 10.5t41 27
t22.5 37.5t7 41q0 29 -11 48.5t-30.5 32.5t-45.5 21.5t-57 15.5z" />
    <glyph glyph-name="eight.dnom" horiz-adv-x="400" 
d="M198 -10q-51 0 -86 11.5t-57.5 29.5t-32.5 40t-10 43q0 38 22 64.5t60 40.5q-35 22 -46.5 46t-11.5 50q0 22 9.5 43t29.5 37.5t50.5 26.5t72.5 10t73 -9.5t51 -25.5t30 -35.5t10 -39.5q0 -26 -17.5 -52t-49.5 -40q27 -10 45 -20.5t28.5 -23.5t14.5 -29t4 -35
q0 -23 -9.5 -46t-31 -42.5t-58 -31.5t-90.5 -12zM221 256q21 14 29.5 28.5t8.5 28.5q0 20 -15.5 31.5t-43.5 11.5t-43.5 -11.5t-15.5 -31.5q0 -19 12.5 -29.5t44.5 -20.5zM198 71q44 0 61.5 16t17.5 33q0 12 -4 20.5t-13.5 15t-25 12t-37.5 12.5l-34 10q-19 -14 -30.5 -30
t-11.5 -37q0 -23 20 -37.5t57 -14.5z" />
    <glyph glyph-name="eight.tnum" 
d="M298 697q57 0 98.5 -16t69.5 -41.5t41.5 -57.5t13.5 -65q0 -57 -28.5 -91.5t-76.5 -56.5q30 -9 55 -24t44 -36t29.5 -50t10.5 -67q0 -35 -12.5 -72t-42.5 -67t-79.5 -49t-122.5 -19q-68 0 -116 18.5t-78.5 47.5t-44.5 64.5t-14 69.5q0 65 36 110.5t93 68.5
q-54 32 -74.5 68.5t-20.5 82.5q0 33 13 65.5t39.5 58.5t68 42t98.5 16zM299 599q-43 0 -69 -23.5t-26 -64.5q0 -38 22.5 -62t72.5 -38l31 -9q38 27 52 56t14 55q0 34 -24.5 60t-72.5 26zM257 322q-35 -19 -59 -49.5t-24 -81.5q0 -43 33 -73.5t91 -30.5q34 0 58 10t39 25
t22 34t7 37q0 27 -9.5 45.5t-27.5 31t-42.5 22t-54.5 18.5z" />
    <glyph glyph-name="iogonek.salt" horiz-adv-x="263" 
d="M195 0h-128v527h128v-527zM203 605h-141v128h141v-128zM195 0q-27 -16 -44 -31.5t-26 -30t-12.5 -28t-3.5 -25.5q0 -21 13 -33.5t44 -12.5q20 0 36 4t28 9l24 -66q-49 -23 -107 -23q-65 0 -101.5 28t-36.5 81q0 48 45 88.5t123 61.5z" />
    <glyph glyph-name="glyph26" horiz-adv-x="263" 
d="M50 -185q-30 0 -54 7v96q6 -1 9 -1h9q28 0 40.5 14.5t12.5 61.5v534h128v-546q0 -45 -11.5 -76.5t-31.5 -51.5t-46.5 -29t-55.5 -9z" />
    <glyph glyph-name="Delta.lnum" horiz-adv-x="636" 
d="M615 0h-629l230 681h169zM439 109l-142 473l-142 -473h284z" />
    <glyph glyph-name="glyph30" horiz-adv-x="627" 
d="M628 0h-629l230 700h169zM453 109l-143 484l-143 -484h286z" />
    <glyph glyph-name="Delta.lnum.tnum" 
d="M587 0h-573l201 700h169zM418 109l-121 481l-122 -481h243z" />
    <glyph glyph-name="Delta.tnum" 
d="M587 0h-572l201 681h169zM419 109l-122 466l-121 -466h243z" />
    <glyph glyph-name="A.aalt" horiz-adv-x="570" 
d="M398 94h-233l-30 -94h-132l199 578h164l199 -578h-137zM194 190h175l-88 296z" />
    <glyph glyph-name="AE.aalt" horiz-adv-x="840" 
d="M770 473h-295l22 -128h259v-101h-241l23 -139h276v-105h-385l-14 89h-242l-43 -89h-137l297 578h480v-105zM218 193h182l-44 278z" />
    <glyph glyph-name="B.aalt" horiz-adv-x="589" 
d="M440 313q62 -14 93 -50.5t31 -93.5q0 -36 -13.5 -67t-42.5 -53.5t-74.5 -35.5t-108.5 -13h-251v578h217q128 0 184 -39.5t56 -112.5q0 -46 -26.5 -74t-64.5 -39zM201 476v-127h117q37 0 59.5 14.5t22.5 50.5q0 34 -23.5 48t-72.5 14h-103zM334 103q44 0 70 17t26 55
q0 25 -8.5 41t-22.5 25t-31.5 12t-35.5 3h-131v-153h133z" />
    <glyph glyph-name="E.aalt" horiz-adv-x="531" 
d="M478 473h-277v-128h259v-102h-259v-138h284v-105h-411v578h404v-105z" />
    <glyph glyph-name="oe.aalt" horiz-adv-x="877" 
d="M347 592q24 0 52 -3.5t55 -10.5h370v-105h-268v-128h250v-101h-250v-139h275v-105h-381q-54 -14 -106 -14q-51 0 -104 15.5t-96.5 51.5t-71.5 94t-28 143q0 81 26 138t68.5 93.5t97 53.5t111.5 17zM346 487q-75 0 -122.5 -51t-47.5 -146q0 -94 44 -146.5t126 -52.5
q46 0 83 14v368q-17 6 -38 10t-45 4z" />
    <glyph glyph-name="F.aalt" horiz-adv-x="503" 
d="M469 473h-268v-142h247v-102h-247v-229h-127v578h395v-105z" />
    <glyph glyph-name="g.aalt" horiz-adv-x="663" 
d="M335 592q86 0 155.5 -36t104.5 -113l-118 -45q-18 42 -52.5 66t-88.5 24q-78 0 -119 -53t-41 -148q0 -93 39 -145t122 -52q63 0 102.5 32t39.5 89v13h-137v97h264v-321h-120v54q-63 -68 -166 -68q-50 0 -99 15.5t-88.5 51t-64 93t-24.5 140.5q0 81 24.5 139t65 95
t93 54.5t108.5 17.5z" />
    <glyph glyph-name="H.aalt" horiz-adv-x="654" 
d="M580 0h-128v247h-251v-247h-127v578h127v-226h251v226h128v-578z" />
    <glyph glyph-name="Hbar.aalt" horiz-adv-x="679" 
d="M652 422h-59v-422h-128v247h-251v-247h-127v422h-61v76h61v80h127v-80h251v80h128v-80h59v-76zM465 422h-251v-70h251v70z" />
    <glyph glyph-name="Euro.lnum.tnum" horiz-adv-x="584" 
d="M377 717q56 0 104.5 -18.5t87.5 -56.5l-40 -103q-31 36 -65.5 56t-79.5 20q-65 0 -102 -43.5t-51 -119.5h272l-24 -72h-256q-2 -33 0 -65h237l-24 -72h-207q10 -74 45 -116.5t106 -42.5q28 0 51 6.5t41.5 16.5t33 21.5t25.5 21.5v-116q-32 -22 -74 -36.5t-90 -14.5
q-50 0 -93 14t-76.5 44.5t-57 80t-33.5 121.5h-93l24 72h63v65h-80l24 72h64q12 68 37 118t60 82.5t78.5 48.5t92.5 16z" />
    <glyph glyph-name="Euro.lnum" horiz-adv-x="679" 
d="M422 717q59 0 110.5 -18.5t93.5 -56.5l-41 -110q-33 36 -70.5 56t-87.5 20q-72 0 -111 -41t-54 -115h293l-25 -72h-277q-1 -17 -1.5 -33t1.5 -32h254l-25 -72h-222q6 -36 17 -63.5t30.5 -47t47.5 -29.5t68 -10q30 0 55 6.5t45.5 16.5t36 21.5t27.5 21.5v-125
q-35 -22 -80 -36.5t-95 -14.5q-53 0 -100 14t-83.5 44.5t-62 80t-36.5 121.5h-101l25 72h70q-2 32 0 65h-88l25 72h70q12 68 39.5 118t66 82.5t86 48.5t99.5 16z" />
    <glyph glyph-name="Euro.c2sc" 
d="M380 591q52 0 98.5 -17t83.5 -53l-36 -96q-27 31 -62 49.5t-79 18.5q-57 0 -90 -29.5t-47 -78.5h259l-23 -68h-246q-2 -27 0 -54h230l-23 -67h-198q12 -51 44.5 -82t90.5 -31q28 0 50.5 6t41.5 15.5t34 20.5t27 21v-113q-32 -22 -74 -35.5t-90 -13.5q-93 0 -160 52.5
t-88 159.5h-86l24 67h57q-2 27 0 54h-77l24 68h60q24 97 91 151.5t164 54.5z" />
    <glyph glyph-name="C.aalt" horiz-adv-x="652" 
d="M335 592q40 0 79.5 -8.5t74.5 -28.5t63.5 -52.5t47.5 -80.5l-122 -35q-20 50 -54 74t-88 24q-75 0 -117.5 -50.5t-42.5 -144.5q0 -92 40.5 -145t121.5 -53q60 0 96.5 29.5t56.5 83.5l123 -38q-18 -46 -47 -80t-65.5 -56.5t-79 -33.5t-88.5 -11q-51 0 -103 16t-93.5 52
t-67.5 94t-26 142q0 81 25 138t65.5 93.5t93 53.5t107.5 17z" />
    <glyph glyph-name="cent.c2sc" 
d="M568 168q-29 -80 -88 -124t-134 -55v-138h-87v138q-44 6 -85 25.5t-72.5 55.5t-50.5 90.5t-19 129.5q0 73 18 126.5t49 90t72.5 56.5t87.5 26v129h87v-129q33 -5 64 -16.5t58.5 -31.5t50 -50t38.5 -71l-118 -33q-15 42 -39 67.5t-62 33.5v-399q45 8 72.5 37.5t42.5 77.5z
M158 290q0 -85 26 -136.5t83 -63.5v398q-54 -12 -81.5 -63t-27.5 -135z" />
    <glyph glyph-name="D.aalt" horiz-adv-x="633" 
d="M273 578q64 0 121.5 -15.5t100.5 -49.5t68.5 -87.5t25.5 -129.5q0 -85 -26 -141.5t-67.5 -91t-93 -49t-103.5 -14.5h-225v578h199zM200 472v-366h98q29 0 57.5 8t51 29t36.5 58t14 95q0 39 -9.5 71.5t-30.5 56t-55.5 36t-84.5 12.5h-77z" />
    <glyph glyph-name="Eth.aalt" horiz-adv-x="640" 
d="M280 578q64 0 121.5 -15.5t100.5 -49.5t68.5 -87.5t25.5 -129.5q0 -85 -26 -141.5t-67.5 -91t-93 -49t-103.5 -14.5h-225v260h-72v84h72v234h199zM305 106q29 0 57.5 8t51 29t36.5 58t14 95q0 39 -9.5 71.5t-30.5 56t-55.5 36t-84.5 12.5h-77v-128h161v-84h-161v-154h98z
" />
    <glyph glyph-name="one.lnum" horiz-adv-x="474" 
d="M59 105h162v354h-164v91h23q46 0 76 10t49 27.5t28.5 42t14.5 54.5h101v-579h136v-105h-426v105z" />
    <glyph glyph-name="one.lnum.tnum" 
d="M109 105h162v370h-164v91h23q46 0 76 10t49 27.5t28.5 42t14.5 54.5h101v-595h136v-105h-426v105z" />
    <glyph glyph-name="one.tnum" 
d="M109 105h162v247h-164v91h23q46 0 76 10t49 28t28.5 42.5t14.5 54.5h101v-473h136v-105h-426v105z" />
    <glyph glyph-name="one.dnom" horiz-adv-x="400" 
d="M66 83h107v193h-108v69h12q32 0 53 5t34 15t19 23.5t9 31.5h85v-337h85v-83h-296v83z" />
    <glyph glyph-name="one.dnom.ss02" horiz-adv-x="400" 
d="M186 276h-108v69h12q32 0 53 5t34 15t19 23.5t9 31.5h85v-420h-104v276z" />
    <glyph glyph-name="one.ss02" horiz-adv-x="490" 
d="M228 352h-164v91h25q46 0 76 10t48 28t26.5 42.5t12.5 54.5h104v-578h-128v352z" />
    <glyph glyph-name="one.lnum.tnum.ss02" 
d="M291 474h-164v92h25q46 0 76 10t48 27.5t26.5 42t12.5 54.5h104v-700h-128v474z" />
    <glyph glyph-name="one.tnum.ss02" 
d="M291 352h-164v91h25q46 0 76 10t48 28t26.5 42.5t12.5 54.5h104v-578h-128v352z" />
    <glyph glyph-name="one.lnum.tnum.c2sc" 
d="M109 105h162v247h-164v91h23q46 0 76 10t49 28t28.5 42.5t14.5 54.5h101v-473h136v-105h-426v105z" />
    <glyph glyph-name="one.lnum.tnum.c2sc.ss02" 
d="M291 352h-164v91h25q46 0 76 10t48 28t26.5 42.5t12.5 54.5h104v-578h-128v352z" />
    <glyph glyph-name="J.aalt" horiz-adv-x="369" 
d="M304 186q0 -43 -9 -78.5t-31.5 -60.5t-60 -38.5t-94.5 -13.5q-24 0 -44.5 1.5t-43.5 3.5v104q12 -1 24 -1h24q32 0 53 4t33.5 14.5t17.5 28t5 43.5v385h126v-392z" />
    <glyph glyph-name="K.aalt" horiz-adv-x="614" 
d="M281 252l-80 -84v-168h-127v578h127v-254l231 254h156l-221 -237l246 -341h-154z" />
    <glyph glyph-name="L.aalt" horiz-adv-x="487" 
d="M201 110h266v-110h-393v578h127v-468z" />
    <glyph glyph-name="Lslash.aalt" horiz-adv-x="494" 
d="M474 110v-110h-393v220l-72 -38v90l72 38v268h127v-202l135 71v-89l-135 -71v-177h266z" />
    <glyph glyph-name="N.aalt" horiz-adv-x="645" 
d="M571 0h-141l-238 385v-385h-118v578h140l239 -399v399h118v-578z" />
    <glyph glyph-name="Eng.aalt" horiz-adv-x="645" 
d="M571 -16q0 -45 -13.5 -76.5t-35.5 -51.5t-50.5 -29t-58.5 -9q-41 0 -68 7v96q9 -1 12 -1h9q44 0 66.5 12t22.5 55v13h-22l-241 385v-385h-118v578h140l239 -399v399h118v-594z" />
    <glyph glyph-name="Oslash.aalt" horiz-adv-x="685" 
d="M545 522q43 -35 69.5 -92.5t26.5 -141.5q0 -80 -25.5 -137t-67 -93.5t-95 -54t-110.5 -17.5q-30 0 -62 5.5t-62 18.5l-61 -96h-105l90 140q-44 36 -71.5 93.5t-27.5 142.5q0 81 25.5 138t67.5 93.5t95.5 53.5t110.5 17q31 0 63 -6t64 -19l59 95h104zM343 488
q-77 0 -122.5 -51t-45.5 -147q0 -94 36 -143l209 327q-34 14 -77 14zM269 103q30 -13 73 -13q37 0 68 13t53 38t34.5 61.5t12.5 84.5q0 89 -35 139z" />
    <glyph glyph-name="O.aalt" horiz-adv-x="685" 
d="M343 592q51 0 104 -15.5t96 -51t70.5 -94t27.5 -143.5q0 -80 -25.5 -137t-67 -93.5t-95 -54t-110.5 -17.5q-51 0 -104.5 15.5t-96.5 51.5t-70.5 94t-27.5 143q0 81 25.5 138t67.5 93.5t95.5 53.5t110.5 17zM343 487q-76 0 -121.5 -51t-45.5 -146q0 -94 42 -146.5
t125 -52.5q73 0 119.5 50t46.5 146q0 93 -41.5 146.5t-124.5 53.5z" />
    <glyph glyph-name="Q.aalt" horiz-adv-x="692" 
d="M342 592q52 0 105 -15.5t96 -51t70.5 -94t27.5 -143.5q0 -79 -26.5 -135.5t-71.5 -93.5q26 -14 55.5 -22.5t71.5 -15.5l-46 -117q-54 15 -96 41.5t-73 61.5q-54 -21 -113 -21q-51 0 -104 15.5t-96 51.5t-70.5 94t-27.5 143q0 81 25.5 138t67.5 93.5t95.5 53.5t109.5 17z
M342 487q-76 0 -121.5 -51t-45.5 -146q0 -94 42 -146.5t125 -52.5q73 0 119.5 50t46.5 146q0 93 -41.5 146.5t-124.5 53.5z" />
    <glyph glyph-name="zero.dnom" horiz-adv-x="400" 
d="M200 432q82 0 129.5 -55t47.5 -165q0 -112 -47 -167t-130 -55q-82 0 -129 55t-47 167q0 110 46.5 165t129.5 55zM199 349q-38 0 -53.5 -33.5t-15.5 -103.5q0 -69 15.5 -104t53.5 -35t54 35t16 104q0 70 -16 103.5t-54 33.5z" />
    <glyph glyph-name="zero.lnum.tnum" 
d="M300 718q60 0 108 -23t81.5 -69t52 -115t18.5 -161q0 -185 -70 -276.5t-190 -91.5q-60 0 -107.5 23t-81.5 69t-52 115t-18 161t18 161t52 115t81.5 69t107.5 23zM300 614q-66 0 -97 -64t-31 -197q0 -132 31 -199.5t97 -67.5t97.5 67.5t31.5 199.5q0 133 -31.5 197
t-97.5 64z" />
    </font>
</defs>
</svg>
