<?xml version="1.0" encoding="utf-8"?>
<svg width="176px" height="44px" viewBox="0 0 176 44" version="1.1" xmlns:xlink="http://www.w3.org/1999/xlink" xmlns="http://www.w3.org/2000/svg">
  <desc>Created with Lunacy</desc>
  <defs>
    <path d="M0 0L32.4214 0L32.4214 19.284L0 19.284L0 0Z" transform="translate(7.333334E-05 0.5511111)" id="path_1" />
    <path d="M0 0L16.7475 0L16.7475 19.9877L0 19.9877L0 0Z" transform="translate(0.7329 0.558)" id="path_2" />
    <path d="M0 0L21.2307 0L21.2307 19.284L0 19.284L0 0Z" transform="translate(0.5545467 0.5511111)" id="path_3" />
    <path d="M0 0L13.2705 0L13.2705 19.9874L0 19.9874L0 0Z" transform="translate(0.1149474 0.558)" id="path_4" />
    <path d="M0 0L16.5048 0L16.5048 19.9877L0 19.9877L0 0Z" transform="translate(0.220187 0.558)" id="path_5" />
    <clipPath id="mask_1">
      <use xlink:href="#path_1" />
    </clipPath>
    <clipPath id="mask_2">
      <use xlink:href="#path_2" />
    </clipPath>
    <clipPath id="mask_3">
      <use xlink:href="#path_3" />
    </clipPath>
    <clipPath id="mask_4">
      <use xlink:href="#path_4" />
    </clipPath>
    <clipPath id="mask_5">
      <use xlink:href="#path_5" />
    </clipPath>
  </defs>
  <g id="Group-44">
    <g id="Group-3">
      <path d="M0 0L32.4214 0L32.4214 19.284L0 19.284L0 0Z" transform="translate(7.333334E-05 0.5511111)" id="Clip-2" fill="none" stroke="none" />
      <g clip-path="url(#mask_1)">
        <path d="M12.0142 19.0763C14.1951 18.9933 14.9358 18.7852 14.9358 17.4141L14.9358 6.31778C14.9358 3.49111 14.0301 1.57926 11.5207 1.57926C9.46293 1.57926 7.40593 3.44963 6.13067 5.90222L6.13067 17.4141C6.13067 18.7852 6.87133 18.9933 9.05153 19.0763L9.05153 19.2844L0 19.2844L0 19.0763C2.38627 19.0348 3.333 18.8267 3.333 17.4141L3.333 2.57704C3.333 1.28889 3.00373 0.914815 0 0.665185L0 0.457778L6.0896 0.208148L6.0896 5.15407C7.7352 2.41111 10.2447 0 12.9602 0C15.7997 0 17.5685 1.74593 17.7327 5.11259C19.5433 2.12 21.9296 0 24.563 0C27.731 0 29.3355 2.16148 29.3355 5.65259L29.3355 17.4141C29.3355 18.7852 30.2001 18.9933 32.4214 19.0763L32.4214 19.2844L23.617 19.2844L23.617 19.0763C25.7972 18.9933 26.5379 18.7852 26.5379 17.4141L26.5379 6.31778C26.5379 3.49111 25.6329 1.57926 23.1227 1.57926C21.1889 1.57926 19.1737 3.20074 17.7327 5.86L17.7327 17.4141C17.7327 18.7852 18.4734 18.9933 20.6543 19.0763L20.6543 19.2844L12.0142 19.2844L12.0142 19.0763Z" transform="translate(7.333334E-05 0.5506667)" id="Fill-1" fill="#000000" stroke="none" />
      </g>
    </g>
    <g id="Group-6" transform="translate(31 0)">
      <path d="M0 0L16.7475 0L16.7475 19.9877L0 19.9877L0 0Z" transform="translate(0.7329 0.558)" id="Clip-5" fill="none" stroke="none" />
      <g clip-path="url(#mask_2)">
        <path d="M9.00525 0C3.9555 0 0 4.92375 0 10.3523C0 16.2008 3.8715 19.9883 8.87925 19.9883C12.414 19.9883 14.9805 17.6737 16.7475 14.9385L16.4535 14.7278C14.7277 17.1263 12.582 19.02 9.63675 19.02C5.68125 19.02 3.03 15.654 3.03 10.0995L3.03 10.0575C3.03 9.55275 3.03 9.08925 3.072 8.5845L16.7055 8.5845C16.9583 3.99825 14.097 0 9.00525 0ZM13.7603 8.12175L3.114 8.12175C3.53475 3.24075 5.6385 0.37875 8.92125 0.37875C12.624 0.37875 13.9282 3.6615 13.7603 8.12175Z" transform="translate(0.7329 0.557475)" id="Fill-4" fill="#000000" fill-rule="evenodd" stroke="none" />
      </g>
    </g>
    <g id="Group-9" transform="translate(48 0)">
      <path d="M0 0L21.2307 0L21.2307 19.284L0 19.284L0 0Z" transform="translate(0.5545467 0.5511111)" id="Clip-8" fill="none" stroke="none" />
      <g clip-path="url(#mask_3)">
        <path d="M0 19.0763C2.38627 19.0348 3.333 18.8267 3.333 17.4141L3.333 2.57704C3.333 1.28889 3.00373 0.914815 0 0.665185L0 0.457778L6.0896 0.208148L6.0896 5.15407C7.7352 2.41111 10.2865 0 13.1663 0C16.4582 0 18.1449 2.16148 18.1449 5.77704L18.1449 17.4141C18.1449 18.7852 19.0087 18.9933 21.2307 19.0763L21.2307 19.2844L12.4256 19.2844L12.4256 19.0763C14.6058 18.9933 15.3465 18.7852 15.3465 17.4141L15.3465 6.44222C15.3465 3.49111 14.3594 1.57926 11.726 1.57926C9.58613 1.57926 7.40593 3.44963 6.13067 5.90222L6.13067 17.4141C6.13067 18.7852 6.87133 18.9933 9.05153 19.0763L9.05153 19.2844L0 19.2844L0 19.0763Z" transform="translate(0.5545467 0.5506667)" id="Fill-7" fill="#000000" stroke="none" />
      </g>
    </g>
    <path d="M9.01992 0C4.46976 0 0 4.21013 0 10.063C0 15.958 4.26626 20 8.97936 20C13.5302 20 18 15.7899 18 9.93696C18 4.04203 13.7337 0 9.01992 0ZM8.81714 0.336961C12.2709 0.336961 14.9526 3.07317 14.9526 10.021C14.9526 16.9681 12.596 19.663 9.18286 19.663C5.72915 19.663 3.04744 16.9261 3.04744 9.97899C3.04744 3.03114 5.40398 0.336961 8.81714 0.336961Z" transform="translate(69 1)" id="Fill-10" fill="#000000" fill-rule="evenodd" stroke="none" />
    <path d="M3.31994 25.1392C3.31994 26.5453 2.37692 26.7516 0 26.7929L0 27L10.2053 27L10.2053 26.7104C7.13148 26.7104 6.10665 26.4628 6.10665 25.0566L6.10665 17.6966C7.33601 18.606 9.13952 19.3916 11.3119 19.3916C15.9014 19.3916 20 15.1327 20 9.0963C20 3.76218 16.7619 0 12.2951 0C9.75384 0 7.95106 1.32284 6.06574 3.34875L6.06574 0.0825395L0 0.330895L0 0.537244C2.99196 0.785599 3.31994 1.15776 3.31994 2.43934L3.31994 25.1392ZM10.9014 1.28157C14.6311 1.28157 16.8853 4.79613 16.8853 9.42719C16.8853 15.0089 14.8364 18.9789 11.3119 18.9789C8.89335 18.9789 6.96713 17.9037 6.10665 15.7533L6.10665 3.80419C7.45946 2.27426 9.22133 1.28157 10.9014 1.28157Z" transform="translate(86 1)" id="Fill-12" fill="#000000" fill-rule="evenodd" stroke="none" />
    <path d="M2.75646 10.6006C1.00194 11.5388 0 12.884 0 14.7189C0 16.9209 1.6704 19 4.97027 19C7.43418 19 9.60556 17.6955 11.5268 15.575L11.5685 15.575C11.5685 18.0625 12.8213 18.9186 14.6175 18.9186C15.7869 18.9186 16.9564 18.4702 18 17.7362L17.9166 17.6142C15.411 18.633 14.3667 17.9404 14.3667 15.5343L14.3667 5.17785C14.3667 1.54936 11.6936 0 7.64261 0C4.17601 0 1.04363 1.63075 1.04363 3.95479C1.04363 4.97437 1.6704 5.87114 2.9232 5.87114C3.96758 5.87114 4.76109 5.13716 4.76109 3.95479C4.76109 3.05802 4.17601 2.28334 2.96489 2.07914C3.50829 1.26376 4.88615 0.48908 7.01584 0.48908C10.1482 0.48908 11.5268 1.75357 11.5268 5.50415L11.5268 8.44008C8.39444 8.88847 5.05289 9.37755 2.75646 10.6006ZM11.5268 8.84777L11.5268 15.0452C10.1482 16.676 8.43613 17.7362 6.34812 17.7362C4.21769 17.7362 2.96489 16.5539 2.96489 14.1891C2.96489 10.9269 4.51024 9.74454 11.5268 8.84777Z" transform="translate(107 1)" id="Fill-14" fill="#000000" fill-rule="evenodd" stroke="none" />
    <path d="M3.06429 13.3807L3.06429 2.30421C3.06429 1.05123 2.73733 0.727721 0 0.444558L0 0.242093L5.8424 0L5.8424 12.7337C5.8424 15.6042 6.82329 17.4639 9.43828 17.4639C11.5625 17.4639 13.6458 15.6446 14.9129 13.2597L14.9129 2.30421C14.9129 1.05123 14.586 0.687372 11.5217 0.444558L11.5217 0.242093L17.691 0L17.691 16.7361C17.691 18.1102 18.6311 18.3126 21 18.353L21 18.5554L14.9537 18.5554L14.9537 13.9874C13.3196 16.6554 10.8677 19 8.00808 19C4.73916 19 3.06429 16.8975 3.06429 13.3807" transform="translate(122 1)" id="Fill-16" fill="#000000" stroke="none" />
    <g id="Group-20" transform="translate(144 0)">
      <path d="M0 0L13.2705 0L13.2705 19.9874L0 19.9874L0 0Z" transform="translate(0.1149474 0.558)" id="Clip-19" fill="none" stroke="none" />
      <g clip-path="url(#mask_4)">
        <path d="M0 13.1707L0.123789 13.1707C2.56274 18.3045 3.59653 19.6087 6.94547 19.6087C9.55021 19.6087 11.2449 18.0518 11.2449 15.6112C11.2449 13.3815 10.4595 12.3293 6.16 11.025C2.10811 9.804 0.165053 8.6265 0.165053 5.76525C0.165053 2.5665 3.38947 0 6.44958 0C8.14431 0 9.674 0.50475 10.9554 1.17825L12.1542 0L12.3613 0L12.3613 6.10125L12.2367 6.10125C10.0874 1.473 8.97105 0.37875 6.40832 0.37875C3.84484 0.37875 2.19137 1.89375 2.19137 4.0815C2.19137 6.228 3.59653 7.1955 7.44137 8.37375C11.5751 9.636 13.2705 11.277 13.2705 14.0122C13.2705 17.589 9.96284 19.9875 6.86295 19.9875C4.83663 19.9875 3.01737 19.272 1.65347 18.5152L0.207053 19.9875L0 19.9875L0 13.1707Z" transform="translate(0.1149474 0.557925)" id="Fill-18" fill="#000000" stroke="none" />
      </g>
    </g>
    <g id="Group-23" transform="translate(159 0)">
      <path d="M0 0L16.5048 0L16.5048 19.9877L0 19.9877L0 0Z" transform="translate(0.220187 0.558)" id="Clip-22" fill="none" stroke="none" />
      <g clip-path="url(#mask_5)">
        <path d="M8.87474 0C3.89817 0 0 4.92375 0 10.3523C0 16.2008 3.81539 19.9883 8.74983 19.9883C12.2333 19.9883 14.7634 17.6737 16.5048 14.9385L16.2143 14.7278C14.5143 17.1263 12.3997 19.02 9.49709 19.02C5.59817 19.02 2.98535 15.654 2.98535 10.0995L2.98535 10.0575C2.98535 9.55275 2.98535 9.08925 3.02748 8.5845L16.4634 8.5845C16.7125 3.99825 13.892 0 8.87474 0ZM13.5608 8.12175L3.06887 8.12175C3.48352 3.24075 5.55678 0.37875 8.79122 0.37875C12.441 0.37875 13.7264 3.6615 13.5608 8.12175Z" transform="translate(0.220187 0.557475)" id="Fill-21" fill="#000000" fill-rule="evenodd" stroke="none" />
      </g>
    </g>
    <path d="M10.1332 2.05118C9.5972 0.582122 9.31482 0.222278 7.79012 0.110777L7.79012 0L13.8594 0L13.8594 0.110777C12.3627 0.194041 11.7987 0.554609 11.7987 1.21999C11.7987 1.35828 11.8548 1.63559 11.9676 1.94041L15.0723 10.3109L15.129 10.3109L18.0929 2.38424C18.2625 1.88466 18.3753 1.4973 18.3753 1.19176C18.3753 0.582122 17.9513 0.277304 16.7665 0.110777L16.7665 0L21 0L21 0.13829C19.3913 0.360568 19.1089 0.554609 18.3465 2.60579L14.4522 13L14.2546 13L10.8668 4.0191L7.00049 13L6.85893 13L2.51266 2.05118C1.9479 0.637872 1.66552 0.249791 0 0.13829L0 0L6.18137 0L6.18137 0.110777C4.65741 0.194041 4.20619 0.554609 4.20619 1.16424C4.20619 1.30253 4.23421 1.57984 4.37503 1.94041L7.73409 10.3667L7.79012 10.3667L10.726 3.65926L10.1332 2.05118Z" transform="translate(0 30)" id="Fill-24" fill="#000000" stroke="none" />
    <path d="M0.108434 19.8608C1.62792 19.8055 2.19773 19.694 2.19773 18.7453L2.19773 1.53448C2.19773 0.669605 1.98086 0.41823 0 0.251375L0 0.111479L4.04252 0L4.04252 10.4885C5.12757 8.64731 6.78313 7.05745 8.68249 7.05745C10.8526 7.05745 11.9653 8.50814 11.9653 10.9345L11.9653 18.7453C11.9653 19.6656 12.5351 19.8055 14 19.8608L14 20L8.19348 20L8.19348 19.8608C9.63218 19.8055 10.1205 19.6656 10.1205 18.7453L10.1205 11.3811C10.1205 9.40071 9.46917 8.1176 7.73281 8.1176C6.32176 8.1176 4.88377 9.37302 4.04252 11.0183L4.04252 18.7453C4.04252 19.6656 4.53083 19.8055 5.96882 19.8608L5.96882 20L0.108434 20L0.108434 19.8608Z" transform="translate(20 23)" id="Fill-26" fill="#000000" stroke="none" />
    <path d="M1.83782 7.25307C0.668364 7.89502 0 8.81531 0 10.0708C0 11.5769 1.11345 13 3.31345 13C4.95564 13 6.40364 12.1067 7.68436 10.6566L7.712 10.6566C7.712 12.3581 8.54764 12.9439 9.74473 12.9439C10.5244 12.9439 11.304 12.6371 12 12.1351L11.9447 12.0513C10.2735 12.7486 9.57745 12.2743 9.57745 10.6289L9.57745 3.54347C9.57745 1.0602 7.79564 0 5.09527 0C2.784 0 0.696 1.11631 0.696 2.70624C0.696 3.40356 1.11345 4.0171 1.94836 4.0171C2.64509 4.0171 3.17382 3.51505 3.17382 2.70624C3.17382 2.09198 2.784 1.56224 1.97673 1.42307C2.33891 0.864918 3.25745 0.335183 4.67782 0.335183C6.76582 0.335183 7.68436 1.2001 7.68436 3.76571L7.68436 5.77462C5.59636 6.08139 3.36873 6.41657 1.83782 7.25307ZM7.68436 6.0537L7.68436 10.2938C6.76582 11.4093 5.624 12.1351 4.232 12.1351C2.81236 12.1351 1.97673 11.3263 1.97673 9.70792C1.97673 7.47604 3.00727 6.66723 7.68436 6.0537Z" transform="translate(34 30)" id="Fill-28" fill="#000000" fill-rule="evenodd" stroke="none" />
    <path d="M2.55951 14.5024L2.55951 5.11835L0 5.11835L0 4.86284L2.55951 4.7492L2.55951 0.938846L4.43098 0L4.43098 4.80564L8.55999 4.80564L8.55999 5.11835L4.43098 5.11835L4.43098 14.616C4.43098 16.3221 5.17439 17.261 6.33048 17.261C7.23854 17.261 7.95391 16.663 8.86268 15.1842L9 15.2704C8.06463 17.0329 7.01853 18 5.50439 18C3.79829 18 2.55951 16.8911 2.55951 14.5024" transform="translate(45 25)" id="Fill-30" fill="#000000" stroke="none" />
    <path d="M10.1332 2.05118C9.5972 0.582122 9.31482 0.222278 7.79012 0.110777L7.79012 0L13.8594 0L13.8594 0.110777C12.3627 0.194041 11.7987 0.554609 11.7987 1.21999C11.7987 1.35828 11.8548 1.63559 11.9676 1.94041L15.0723 10.3109L15.129 10.3109L18.0929 2.38424C18.2625 1.88466 18.3753 1.4973 18.3753 1.19176C18.3753 0.582122 17.9513 0.277304 16.7665 0.110777L16.7665 0L21 0L21 0.13829C19.3913 0.360568 19.1089 0.554609 18.3465 2.60579L14.4522 13L14.2546 13L10.8668 4.0191L7.00049 13L6.85893 13L2.51266 2.05118C1.9479 0.637872 1.66552 0.249791 0 0.13829L0 0L6.18137 0L6.18137 0.110777C4.65741 0.194041 4.20619 0.554609 4.20619 1.16424C4.20619 1.30253 4.23421 1.57984 4.37503 1.94041L7.73409 10.3667L7.79012 10.3667L10.726 3.65926L10.1332 2.05118Z" transform="translate(56 30)" id="Fill-32" fill="#000000" stroke="none" />
    <path d="M6.01309 0C2.97966 0 0 2.73669 0 6.54075C0 10.3727 2.84451 13 5.98691 13C9.02034 13 12 10.2633 12 6.45853C12 2.62731 9.15549 0 6.01309 0ZM5.87794 0.218764C8.18044 0.218764 9.96851 1.99747 9.96851 6.51358C9.96851 11.0297 8.39696 12.7812 6.12206 12.7812C3.81956 12.7812 2.03149 11.0018 2.03149 6.48642C2.03149 1.9703 3.60234 0.218764 5.87794 0.218764Z" transform="translate(76 30)" id="Fill-34" fill="#000000" fill-rule="evenodd" stroke="none" />
    <path d="M0 12.8599C1.65684 12.832 2.31435 12.692 2.31435 11.737L2.31435 1.71255C2.31435 0.842708 2.08598 0.589676 0 0.420987L0 0.280903L4.22867 0.112948L4.22867 3.56592C4.94291 1.8255 6.62885 0 8.20061 0C9.4007 0 10 0.67402 10 1.57247C10 2.3587 9.4007 3.00412 8.71408 3.00412C7.88566 3.00412 7.34309 2.47092 7.34309 1.74116C7.34309 1.29157 7.45727 0.982793 7.77148 0.589676C6.51467 0.758364 5.22875 2.02206 4.25703 3.95904L4.25703 11.737C4.25703 12.692 4.82872 12.832 6.88633 12.8599L6.88633 13L0 13L0 12.8599Z" transform="translate(88 30)" id="Fill-36" fill="#000000" stroke="none" />
    <path d="M4.13055 18.7446C4.13055 19.6648 4.62949 19.8047 5.96048 19.8601L5.96048 20L0.110795 20L0.110795 19.8601C1.66337 19.8047 2.24559 19.6932 2.24559 18.7446L2.24559 1.53375C2.24559 0.668877 2.024 0.41823 0 0.250647L0 0.111479L4.13055 0L4.13055 14.3648L8.59422 9.81821C10.091 8.28446 9.86945 7.61485 7.73465 7.50337L7.73465 7.36347L13.0854 7.36347L13.0854 7.50337C11.5879 7.58716 10.9231 7.94929 8.81581 10.0419L6.84757 11.9946L11.2555 17.9358C12.4474 19.5534 12.6415 19.7209 14 19.8601L14 20L8.17855 20L8.17855 19.8601C9.92448 19.7209 10.036 19.3304 9.31475 18.3264L5.68313 13.1655L4.13055 14.7L4.13055 18.7446Z" transform="translate(97 23)" id="Fill-38" fill="#000000" stroke="none" />
    <path d="M0 8.56635L0.0842217 8.56635C1.7379 11.9055 2.4395 12.7541 4.70982 12.7541C6.47628 12.7541 7.62609 11.7411 7.62609 10.1541C7.62609 8.70289 7.09366 8.01947 4.17739 7.17091C1.42957 6.3774 0.112051 5.61105 0.112051 3.74952C0.112051 1.66995 2.29889 0 4.37367 0C5.52348 0 6.56123 0.328842 7.42982 0.766346L8.24347 0L8.38335 0L8.38335 3.96899L8.29913 3.96899C6.841 0.957932 6.08373 0.246632 4.34584 0.246632C2.60721 0.246632 1.48596 1.23173 1.48596 2.65505C1.48596 4.05048 2.4395 4.68029 5.04671 5.44663C7.85019 6.26731 9 7.33462 9 9.11394C9 11.4401 6.75677 13 4.65416 13C3.28025 13 2.04695 12.5346 1.12125 12.0421L0.139881 13L0 13L0 8.56635Z" transform="translate(112 30)" id="Fill-40" fill="#000000" stroke="none" />
    <path d="M8.94055 5.01607C8.94055 8.24662 8.1005 9.83376 4.22647 10.5422L4.22647 15.2755L4.57891 15.2755L4.57891 10.7976C8.61571 10.0603 11 8.10522 11 4.98794C11 2.26745 8.85917 0 5.2017 0C2.16702 0 0 2.23932 0 3.93898C0 4.93094 0.595895 5.61125 1.43524 5.61125C2.32979 5.61125 2.79052 4.84581 2.79052 4.13737C2.79052 3.4578 2.41118 2.80563 1.27318 2.55023C1.78769 1.27549 3.16985 0.254653 5.06652 0.254653C7.42321 0.254653 8.94055 1.81366 8.94055 5.01607ZM4.38854 18.1662C3.63057 18.1662 3.00708 18.7896 3.00708 19.6113C3.00708 20.3767 3.63057 21 4.38854 21C5.1472 21 5.7707 20.3767 5.7707 19.555C5.7707 18.7896 5.1472 18.1662 4.38854 18.1662Z" transform="translate(121 23)" id="Fill-42" fill="#000000" fill-rule="evenodd" stroke="none" />
  </g>
</svg>