<svg xmlns="http://www.w3.org/2000/svg" width="174" height="119" viewBox="0 0 174 119">
  <defs>
    <style>
      .cls-1 {
        fill: #4667ab;
        fill-rule: evenodd;
      }
    </style>
  </defs>
  <path class="cls-1" d="M156.75,0L18.867,0.566a14.61,14.61,0,0,0-6.383,1.5L62.133,51.615C94.674,89.527,100.774,61.864,163.162,1.5A14.831,14.831,0,0,0,156.75,0h0Zm15.944,11.326L125.2,59.344l47.493,48.218A13.07,13.07,0,0,0,174,102.013V16.9a12.7,12.7,0,0,0-1.305-5.577h0ZM1.306,10.956A12.494,12.494,0,0,0,0,16.506v86.327a12.5,12.5,0,0,0,1.3,5.551l48.826-48.7ZM115.5,69.481c-20.768,16.932-29.393,20.9-54.9-.2L12.455,117.5a14.828,14.828,0,0,0,6.412,1.5h138.11a14.7,14.7,0,0,0,6.383-1.5Z"/>
</svg>
