<svg width="226" height="60" viewBox="0 0 226 60" fill="none" xmlns="http://www.w3.org/2000/svg">
<g filter="url(#filter0_d)">
<mask id="mask0" mask-type="alpha" maskUnits="userSpaceOnUse" x="3" y="0" width="41" height="25">
<path fill-rule="evenodd" clip-rule="evenodd" d="M3.00012 0.688843H43.2813V24.7938H3.00012V0.688843Z" fill="white"/>
</mask>
<g mask="url(#mask0)">
<path fill-rule="evenodd" clip-rule="evenodd" d="M17.9269 24.5337C20.6365 24.43 21.5567 24.1698 21.5567 22.4559V8.58558C21.5567 5.05224 20.4315 2.66243 17.3137 2.66243C14.7571 2.66243 12.2014 5.00039 10.617 8.06613V22.4559C10.617 24.1698 11.5372 24.43 14.246 24.5337V24.7939H3.00012V24.5337C5.96488 24.4819 7.14112 24.2217 7.14112 22.4559V3.90965C7.14112 2.29947 6.73203 1.83187 3.00012 1.51984V1.26058L10.566 0.94854V7.13095C12.6105 3.70224 15.7283 0.688354 19.1022 0.688354C22.63 0.688354 24.8276 2.87076 25.0317 7.0791C27.2812 3.33835 30.246 0.688354 33.5178 0.688354C37.4538 0.688354 39.4473 3.39021 39.4473 7.7541V22.4559C39.4473 24.1698 40.5215 24.43 43.2813 24.5337V24.7939H32.3425V24.5337C35.0512 24.43 35.9714 24.1698 35.9714 22.4559V8.58558C35.9714 5.05224 34.8471 2.66243 31.7284 2.66243C29.3258 2.66243 26.822 4.68928 25.0317 8.01335V22.4559C25.0317 24.1698 25.9519 24.43 28.6616 24.5337V24.7939H17.9269V24.5337Z" fill="#560C55"/>
</g>
<mask id="mask1" mask-type="alpha" maskUnits="userSpaceOnUse" x="42" y="0" width="22" height="26">
<path fill-rule="evenodd" clip-rule="evenodd" d="M42.8958 0.690918H63.3649V25.4376H42.8958V0.690918Z" fill="white"/>
</mask>
<g mask="url(#mask1)">
<path fill-rule="evenodd" clip-rule="evenodd" d="M46.7018 10.7457H59.7138C59.9192 5.22347 58.3251 1.15911 53.7995 1.15911C49.7873 1.15911 47.216 4.70254 46.7018 10.7457ZM42.8958 13.5073C42.8958 6.78626 47.7303 0.690186 53.9022 0.690186C60.1254 0.690186 63.6225 5.6404 63.3136 11.3186H46.6504C46.5991 11.9435 46.5991 12.5174 46.5991 13.1423V13.1943C46.5991 20.0713 49.8395 24.2388 54.674 24.2388C58.2738 24.2388 60.8963 21.8941 63.0056 18.9245L63.3649 19.1855C61.2053 22.572 58.0684 25.4375 53.7482 25.4375C47.6276 25.4375 42.8958 20.7483 42.8958 13.5073Z" fill="#560C55"/>
</g>
<mask id="mask2" mask-type="alpha" maskUnits="userSpaceOnUse" x="62" y="0" width="28" height="25">
<path fill-rule="evenodd" clip-rule="evenodd" d="M62.7058 0.688843H89.7267V24.7938H62.7058V0.688843Z" fill="white"/>
</mask>
<g mask="url(#mask2)">
<path fill-rule="evenodd" clip-rule="evenodd" d="M62.7058 24.5337C65.7429 24.4819 66.9478 24.2217 66.9478 22.4559V3.90965C66.9478 2.29947 66.5287 1.83187 62.7058 1.51984V1.26058L70.4562 0.94854V7.13095C72.5506 3.70224 75.7977 0.688354 79.4629 0.688354C83.6526 0.688354 85.7993 3.39021 85.7993 7.90965V22.4559C85.7993 24.1698 86.8987 24.43 89.7267 24.5337V24.7939H78.5202V24.5337C81.295 24.43 82.2377 24.1698 82.2377 22.4559V8.74113C82.2377 5.05224 80.9814 2.66243 77.6298 2.66243C74.9063 2.66243 72.1315 5.00039 70.5085 8.06613V22.4559C70.5085 24.1698 71.4511 24.43 74.2259 24.5337V24.7939H62.7058V24.5337Z" fill="#560C55"/>
</g>
<path fill-rule="evenodd" clip-rule="evenodd" d="M108.106 13.0252C108.106 4.6878 104.679 1.40435 100.266 1.40435C95.9051 1.40435 92.8939 4.63737 92.8939 12.9748C92.8939 21.3113 96.3206 24.5956 100.734 24.5956C105.095 24.5956 108.106 21.3617 108.106 13.0252ZM89 13.0756C89 6.05216 94.7114 1 100.525 1C106.549 1 112 5.85043 112 12.9244C112 19.9478 106.289 25 100.474 25C94.4513 25 89 20.1496 89 13.0756Z" fill="#560C55"/>
<path fill-rule="evenodd" clip-rule="evenodd" d="M132.107 12.8713C132.107 7.03958 129.289 2.61383 124.627 2.61383C122.527 2.61383 120.324 3.86388 118.633 5.79046V20.8374C119.709 23.5454 122.117 24.8994 125.14 24.8994C129.545 24.8994 132.107 19.9001 132.107 12.8713ZM111 34.7392C113.971 34.6873 115.15 34.4274 115.15 32.6567V4.07176C115.15 2.45792 114.74 1.98927 111 1.67653V1.41668L118.582 1.10394V5.21694C120.939 2.6658 123.192 1 126.369 1C131.952 1 136 5.73756 136 12.4546C136 20.056 130.877 25.4191 125.14 25.4191C122.424 25.4191 120.17 24.4298 118.633 23.2846V32.5528C118.633 34.3235 119.914 34.6353 123.757 34.6353V35H111V34.7392Z" fill="#560C55"/>
<path fill-rule="evenodd" clip-rule="evenodd" d="M151.088 20.0045V12.1761C142.513 13.3089 140.624 14.8024 140.624 18.9231C140.624 21.9102 142.155 23.4037 144.759 23.4037C147.311 23.4037 149.403 22.0644 151.088 20.0045ZM137 19.5923C137 17.2745 138.225 15.5753 140.369 14.3902C143.176 12.8453 147.26 12.2275 151.088 11.6612V7.95261C151.088 3.21503 149.403 1.61779 145.575 1.61779C142.972 1.61779 141.288 2.59633 140.624 3.62628C142.104 3.88422 142.819 4.86277 142.819 5.99552C142.819 7.48904 141.849 8.41618 140.573 8.41618C139.042 8.41618 138.276 7.28342 138.276 5.99552C138.276 3.0599 142.104 1 146.341 1C151.292 1 154.559 2.95709 154.559 7.54045V20.6223C154.559 23.6616 155.836 24.5364 158.898 23.2495L159 23.4037C157.724 24.3308 156.295 24.8972 154.866 24.8972C152.67 24.8972 151.139 23.8158 151.139 20.6737H151.088C148.74 23.3523 146.086 25 143.075 25C139.042 25 137 22.3737 137 19.5923Z" fill="#560C55"/>
<path fill-rule="evenodd" clip-rule="evenodd" d="M159.794 17.9019V3.91058C159.794 2.32787 159.389 1.91923 156 1.56155V1.3058L163.233 1V17.0846C163.233 20.7106 164.448 23.0596 167.685 23.0596C170.315 23.0596 172.895 20.7615 174.464 17.749V3.91058C174.464 2.32787 174.059 1.86826 170.265 1.56155V1.3058L177.903 1V22.1404C177.903 23.876 179.067 24.1317 182 24.1827V24.4385H174.514V18.6683C172.491 22.0385 169.455 25 165.915 25C161.868 25 159.794 22.3443 159.794 17.9019Z" fill="#560C55"/>
<mask id="mask3" mask-type="alpha" maskUnits="userSpaceOnUse" x="184" y="0" width="17" height="26">
<path fill-rule="evenodd" clip-rule="evenodd" d="M184.14 0.690918H200.254V25.4373H184.14V0.690918Z" fill="white"/>
</mask>
<g mask="url(#mask3)">
<path fill-rule="evenodd" clip-rule="evenodd" d="M184.14 16.9974H184.29C187.251 23.3535 188.507 24.9683 192.573 24.9683C195.736 24.9683 197.794 23.0406 197.794 20.019C197.794 17.2584 196.84 15.9556 191.62 14.3408C186.699 12.8291 184.34 11.3712 184.34 7.82872C184.34 3.86837 188.255 0.690796 191.971 0.690796C194.029 0.690796 195.887 1.31572 197.442 2.14958L198.898 0.690796H199.15V8.24472H198.998C196.388 2.51451 195.033 1.15972 191.921 1.15972C188.808 1.15972 186.8 3.03544 186.8 5.74408C186.8 8.40165 188.507 9.59951 193.175 11.0583C198.195 12.6211 200.254 14.6528 200.254 18.0393C200.254 22.4677 196.237 25.4372 192.473 25.4372C190.013 25.4372 187.803 24.5514 186.147 23.6144L184.391 25.4372H184.14V16.9974Z" fill="#560C55"/>
</g>
<mask id="mask4" mask-type="alpha" maskUnits="userSpaceOnUse" x="202" y="0" width="21" height="26">
<path fill-rule="evenodd" clip-rule="evenodd" d="M202.272 0.690918H222.66V25.4376H202.272V0.690918Z" fill="white"/>
</mask>
<g mask="url(#mask4)">
<path fill-rule="evenodd" clip-rule="evenodd" d="M206.063 10.7457H219.024C219.228 5.22347 217.64 1.15911 213.132 1.15911C209.136 1.15911 206.575 4.70254 206.063 10.7457ZM202.272 13.5073C202.272 6.78626 207.087 0.690186 213.235 0.690186C219.433 0.690186 222.917 5.6404 222.609 11.3186H206.012C205.96 11.9435 205.96 12.5174 205.96 13.1423V13.1943C205.96 20.0713 209.187 24.2388 214.004 24.2388C217.589 24.2388 220.201 21.8941 222.301 18.9245L222.66 19.1855C220.509 22.572 217.384 25.4375 213.081 25.4375C206.985 25.4375 202.272 20.7483 202.272 13.5073Z" fill="#560C55"/>
</g>
<path fill-rule="evenodd" clip-rule="evenodd" d="M15.5459 40.5245C14.8822 38.7165 14.5326 38.2736 12.6449 38.1363V38H20.1593V38.1363C18.3063 38.2388 17.6079 38.6826 17.6079 39.5015C17.6079 39.6717 17.6773 40.013 17.817 40.3882L21.6609 50.6904H21.7312L25.4007 40.9344C25.6107 40.3196 25.7503 39.8428 25.7503 39.4668C25.7503 38.7165 25.2255 38.3413 23.7586 38.1363V38H29V38.1702C27.0082 38.4438 26.6586 38.6826 25.7147 41.2071L20.8932 54H20.6486L16.4541 42.9466L11.6673 54H11.492L6.11091 40.5245C5.41168 38.7851 5.06207 38.3074 3 38.1702V38H10.6531V38.1363C8.76632 38.2388 8.20767 38.6826 8.20767 39.4329C8.20767 39.6031 8.24235 39.9444 8.4167 40.3882L12.5755 50.759H12.6449L16.2798 42.5037L15.5459 40.5245Z" fill="#560C55"/>
<path fill-rule="evenodd" clip-rule="evenodd" d="M28.1394 53.826C30.093 53.7568 30.8257 53.6175 30.8257 52.4316V30.9181C30.8257 29.837 30.5468 29.5228 28 29.3142V29.1393L33.1975 29V42.1107C34.5926 39.8091 36.7212 37.8218 39.1632 37.8218C41.9533 37.8218 43.3839 39.6352 43.3839 42.6681V52.4316C43.3839 53.582 44.1165 53.7568 46 53.826V54H38.5345V53.826C40.3842 53.7568 41.012 53.582 41.012 52.4316V43.2264C41.012 40.7509 40.1746 39.147 37.9422 39.147C36.128 39.147 34.2791 40.7163 33.1975 42.7728V52.4316C33.1975 53.582 33.8254 53.7568 35.6742 53.826V54H28.1394V53.826Z" fill="#560C55"/>
<path fill-rule="evenodd" clip-rule="evenodd" d="M55.6055 50.6692V45.4507C49.7591 46.2058 48.4709 47.2013 48.4709 49.9482C48.4709 51.94 49.5155 52.9355 51.29 52.9355C53.03 52.9355 54.4573 52.0423 55.6055 50.6692ZM46 50.3948C46 48.8496 46.8355 47.7169 48.2973 46.9269C50.2109 45.8973 52.9955 45.4848 55.6055 45.1072V42.6347C55.6055 39.477 54.4573 38.4125 51.8473 38.4125C50.0718 38.4125 48.9236 39.0645 48.4709 39.7515C49.48 39.9228 49.9673 40.5747 49.9673 41.3308C49.9673 42.3262 49.3064 42.9441 48.4355 42.9441C47.3918 42.9441 46.87 42.189 46.87 41.3308C46.87 39.3739 49.48 38 52.3691 38C55.7445 38 57.9718 39.3049 57.9718 42.3612V51.0818C57.9718 53.1068 58.8418 53.6906 60.9309 52.8324L61 52.9355C60.13 53.5534 59.1555 53.9309 58.1809 53.9309C56.6845 53.9309 55.64 53.2099 55.64 51.1159H55.6055C54.0045 52.9005 52.1945 54 50.1418 54C47.3918 54 46 52.2485 46 50.3948Z" fill="#560C55"/>
<path fill-rule="evenodd" clip-rule="evenodd" d="M62.1283 49.7251V38.2558H59V37.9435L62.1283 37.8046V33.1475L64.4156 32V37.8736H69.4622V38.2558H64.4156V49.864C64.4156 51.9492 65.3243 53.0967 66.7373 53.0967C67.8471 53.0967 68.7214 52.3659 69.8322 50.5585L70 50.6638C68.8568 52.818 67.5782 54 65.7276 54C63.6424 54 62.1283 52.6446 62.1283 49.7251Z" fill="#560C55"/>
<path fill-rule="evenodd" clip-rule="evenodd" d="M86.5459 40.5245C85.8822 38.7165 85.5326 38.2736 83.6449 38.1363V38H91.1593V38.1363C89.3063 38.2388 88.6079 38.6826 88.6079 39.5015C88.6079 39.6717 88.6773 40.013 88.817 40.3882L92.6609 50.6904H92.7312L96.4007 40.9344C96.6107 40.3196 96.7503 39.8428 96.7503 39.4668C96.7503 38.7165 96.2255 38.3413 94.7586 38.1363V38H100V38.1702C98.0082 38.4438 97.6586 38.6826 96.7147 41.2071L91.8932 54H91.6486L87.4541 42.9466L82.6673 54H82.492L77.1109 40.5245C76.4117 38.7851 76.0621 38.3074 74 38.1702V38H81.6531V38.1363C79.7663 38.2388 79.2077 38.6826 79.2077 39.4329C79.2077 39.6031 79.2424 39.9444 79.4167 40.3882L83.5755 50.759H83.6449L87.2798 42.5037L86.5459 40.5245Z" fill="#560C55"/>
<path fill-rule="evenodd" clip-rule="evenodd" d="M110.291 45.5178C110.291 39.6121 107.907 37.2861 104.837 37.2861C101.803 37.2861 99.7087 39.5766 99.7087 45.4822C99.7087 51.387 102.093 53.7139 105.163 53.7139C108.196 53.7139 110.291 51.4234 110.291 45.5178ZM97 45.5533C97 40.5788 100.973 37 105.017 37C109.207 37 113 40.4357 113 45.4458C113 50.4212 109.027 54 104.983 54C100.793 54 97 50.5643 97 45.5533Z" fill="#560C55"/>
<path fill-rule="evenodd" clip-rule="evenodd" d="M113 53.8276C114.988 53.7933 115.777 53.6209 115.777 52.4456V40.1078C115.777 39.0372 115.503 38.7258 113 38.5181V38.3457L118.074 38.139V42.3888C118.931 40.2468 120.955 38 122.841 38C124.281 38 125 38.8296 125 39.9353C125 40.903 124.281 41.6974 123.457 41.6974C122.463 41.6974 121.812 41.0411 121.812 40.143C121.812 39.5896 121.949 39.2096 122.326 38.7258C120.818 38.9334 119.274 40.4887 118.108 42.8727V52.4456C118.108 53.6209 118.794 53.7933 121.264 53.8276V54H113V53.8276Z" fill="#560C55"/>
<path fill-rule="evenodd" clip-rule="evenodd" d="M129.311 52.4307C129.311 53.581 129.952 53.7559 131.663 53.8251V54H124.142V53.8251C126.139 53.7559 126.887 53.6166 126.887 52.4307V30.9172C126.887 29.8361 126.602 29.5228 124 29.3133V29.1393L129.311 29V46.956L135.05 41.2728C136.974 39.3556 136.689 38.5186 133.945 38.3792V38.2043H140.824V38.3792C138.899 38.484 138.044 38.9366 135.335 41.5524L132.804 43.9933L138.471 51.4198C140.004 53.4417 140.253 53.6512 142 53.8251V54H134.515V53.8251C136.76 53.6512 136.903 53.163 135.976 51.9079L131.307 45.4569L129.311 47.375V52.4307Z" fill="#560C55"/>
<path fill-rule="evenodd" clip-rule="evenodd" d="M143 48.2021H143.103C145.124 52.5688 145.982 53.6784 148.756 53.6784C150.915 53.6784 152.321 52.3538 152.321 50.2784C152.321 48.3807 151.67 47.487 148.106 46.3773C144.747 45.3397 143.137 44.3375 143.137 41.9032C143.137 39.1838 145.81 37 148.346 37C149.751 37 151.019 37.43 152.081 38.0021L153.075 37H153.246V42.1902H153.143C151.361 38.2527 150.436 37.3225 148.312 37.3225C146.187 37.3225 144.816 38.6107 144.816 40.472C144.816 42.2968 145.982 43.1204 149.168 44.1225C152.595 45.1957 154 46.5914 154 48.9182C154 51.9602 151.258 54 148.688 54C147.009 54 145.502 53.3914 144.37 52.7473L143.171 54H143V48.2021Z" fill="#560C55"/>
<path fill-rule="evenodd" clip-rule="evenodd" d="M157.827 52.2806C157.827 51.2633 158.621 50.4915 159.585 50.4915C160.551 50.4915 161.345 51.2633 161.345 52.2109C161.345 53.2283 160.551 54 159.585 54C158.621 54 157.827 53.2283 157.827 52.2806ZM159.379 41.0522C164.31 40.1751 165.379 38.2101 165.379 34.2104C165.379 30.2455 163.448 28.3153 160.448 28.3153C158.034 28.3153 156.275 29.5792 155.62 31.1574C157.069 31.4736 157.552 32.2811 157.552 33.1225C157.552 33.9996 156.965 34.9473 155.827 34.9473C154.758 34.9473 154 34.105 154 32.8768C154 30.7725 156.758 28 160.62 28C165.275 28 168 30.8073 168 34.1755C168 38.035 164.965 40.4556 159.828 41.3684V46.9125H159.379V41.0522Z" fill="#560C55"/>
</g>
<defs>
<filter id="filter0_d" x="0" y="0.688843" width="225.66" height="59.3112" filterUnits="userSpaceOnUse" color-interpolation-filters="sRGB">
<feFlood flood-opacity="0" result="BackgroundImageFix"/>
<feColorMatrix in="SourceAlpha" type="matrix" values="0 0 0 0 0 0 0 0 0 0 0 0 0 0 0 0 0 0 127 0"/>
<feOffset dy="3"/>
<feGaussianBlur stdDeviation="1.5"/>
<feColorMatrix type="matrix" values="0 0 0 0 0 0 0 0 0 0 0 0 0 0 0 0 0 0 0.50702 0"/>
<feBlend mode="normal" in2="BackgroundImageFix" result="effect1_dropShadow"/>
<feBlend mode="normal" in="SourceGraphic" in2="effect1_dropShadow" result="shape"/>
</filter>
</defs>
</svg>
