<?xml version="1.0" encoding="UTF-8"?>
<svg width="48px" height="40px" viewBox="0 0 48 40" version="1.1" xmlns="http://www.w3.org/2000/svg" xmlns:xlink="http://www.w3.org/1999/xlink">
    <!-- Generator: Sketch 55.2 (78181) - https://sketchapp.com -->
    <title>Twitter-color</title>
    <desc>Created with Sketch.</desc>
    <g id="Page-1" stroke="none" stroke-width="1" fill="none" fill-rule="evenodd">
        <g id="Artboard" transform="translate(-300.000000, -160.000000)" fill="#00AAEC">
            <path d="M348,164.735283 C346.236309,165.538462 344.337383,166.081618 342.345483,166.324305 C344.379644,165.076201 345.940482,163.097147 346.675823,160.739617 C344.771263,161.895269 342.666667,162.736006 340.418384,163.18671 C338.626519,161.224991 336.065504,160 333.231203,160 C327.796443,160 323.387216,164.521488 323.387216,170.097508 C323.387216,170.88913 323.471738,171.657638 323.640782,172.397255 C315.456242,171.975442 308.201444,167.959552 303.341433,161.843265 C302.493397,163.339834 302.008804,165.076201 302.008804,166.925244 C302.008804,170.426869 303.747139,173.518238 306.389857,175.329722 C304.778306,175.280607 303.256911,174.821235 301.9271,174.070061 L301.9271,174.194294 C301.9271,179.08848 305.322064,183.17082 309.8299,184.095341 C309.004402,184.33225 308.133826,184.450704 307.235077,184.450704 C306.601162,184.450704 305.981335,184.390033 305.381229,184.271578 C306.634971,188.28169 310.269414,191.2026 314.580032,191.280607 C311.210424,193.99061 306.961789,195.605634 302.349709,195.605634 C301.555203,195.605634 300.769149,195.559408 300,195.466956 C304.358514,198.327194 309.53689,200 315.095615,200 C333.211481,200 343.114633,184.615385 343.114633,171.270495 C343.114633,170.831347 343.106181,170.392199 343.089276,169.961719 C345.013559,168.537378 346.684275,166.760563 348,164.735283" id="Twitter"></path>
        </g>
    </g>
</svg>