<?xml version="1.0" encoding="UTF-8"?>
<svg width="48px" height="48px" viewBox="0 0 48 48" version="1.1" xmlns="http://www.w3.org/2000/svg" xmlns:xlink="http://www.w3.org/1999/xlink">
    <!-- Generator: Sketch 55.2 (78181) - https://sketchapp.com -->
    <title>Whatsapp-color</title>
    <desc>Created with Sketch.</desc>
    <g id="Page-1" stroke="none" stroke-width="1" fill="none" fill-rule="evenodd">
        <g id="Artboard" transform="translate(-100.000000, -160.000000)" fill="#67C15E">
            <path d="M123.993033,160 L123.993033,160.000398 L124.006967,160.000398 C137.237748,160.000398 148,170.765685 148,184.000199 C148,197.234315 137.237748,208 124.006967,208 C119.126434,208 114.598605,206.546975 110.804449,204.035539 L101.579605,206.983798 L104.570026,198.066947 C101.692661,194.116025 100,189.248451 100,183.999801 C100,170.765287 110.762252,160 123.993033,160 Z M117.29285,172.190836 C116.827488,171.07628 116.474784,171.034071 115.769774,171.005401 C115.529728,170.991464 115.262214,170.977527 114.96564,170.977527 C114.04845,170.977527 113.089462,171.245514 112.511043,171.838033 C111.806033,172.557577 110.056843,174.23638 110.056843,177.679202 C110.056843,181.122023 112.567571,184.451756 112.905944,184.917648 C113.258648,185.382743 117.800808,192.55031 124.853297,195.471492 C130.368379,197.757149 132.00491,197.545307 133.260074,197.27732 C135.093658,196.882308 137.393002,195.527239 137.971421,193.891043 C138.54984,192.25405 138.54984,190.857171 138.380255,190.560912 C138.211068,190.264652 137.745308,190.095816 137.040298,189.742615 C136.335288,189.389811 132.90737,187.696673 132.25849,187.470894 C131.623543,187.231179 131.017259,187.315995 130.537963,187.99333 C129.860819,188.938653 129.198006,189.89831 128.661785,190.476494 C128.238619,190.928051 127.547144,190.984595 126.969123,190.744481 C126.193254,190.420348 124.021298,189.657798 121.340985,187.273388 C119.267356,185.42535 117.856938,183.125756 117.448104,182.434484 C117.038871,181.729275 117.405907,181.319529 117.729948,180.938852 C118.082653,180.501232 118.421026,180.191036 118.77373,179.781688 C119.126434,179.372738 119.323884,179.160897 119.549599,178.681068 C119.789645,178.215575 119.62006,177.735746 119.450874,177.382942 C119.281687,177.030139 117.871269,173.587317 117.29285,172.190836 Z" id="Whatsapp"></path>
        </g>
    </g>
</svg>